<svg xmlns="http://www.w3.org/2000/svg" xmlns:xlink="http://www.w3.org/1999/xlink" width="1220" height="619"><g transform="translate(-80 -100)"><path d="M220 649c0 27.6-22.4 50-50 50s-50-22.4-50-50 22.4-50 50-50 50 22.4 50 50z" stroke="#000" stroke-width="2" fill="#fff"/><use xlink:href="#a" transform="matrix(1,0,0,1,125,604) translate(45 50.4)"/><path d="M139.6 635.15h60.8v41.47h-60.8z" fill="none"/><path d="M157.32 641.92l.8 3.74c4.6-7.03 7.02-9.4 9.9-9.4 1.6 0 2.7 1 2.7 2.44 0 1.38-.9 2.36-2.23 2.36-1.26 0-1.85-1.1-3.43-1.1-1.18 0-3.54 2.88-6.44 7.94 0 .46.14 1.38.53 2.95l2.1 8.8c.46 1.85 1.05 2.7 1.97 2.7.86 0 1.58-.65 3.1-2.62.58-.8.85-1.2 1.37-1.84l1 .58c-3.82 5.9-5.53 7.5-8.03 7.5-2.1 0-3.1-1.2-3.88-4.48l-1.9-7.82-5.8 7.82c-2.9 3.88-4.2 4.47-6.24 4.47s-3.28-1.05-3.28-2.76c0-1.3.92-2.36 2.23-2.36.6 0 1.26.27 2.1.73.67.4 1.33.6 1.72.6.72 0 1.97-1.26 3.35-3.23l5.4-7.63-1.85-8.13c-.92-3.95-1.38-4.47-3.02-4.47-.53 0-1.32.13-2.56.46l-1.2.33-.18-1.07.72-.26c4-1.45 6.18-1.9 7.7-1.9 1.63 0 2.42 1.18 3.34 5.65M191.9 669.7l.66.6c-3.16 4.33-4.32 5.26-6.5 5.26-1.17 0-2.2-.74-2.2-2.5 0-.47.1-1.08.75-3.5l2.06-7.52c.37-1.44.65-3.1.65-3.67 0-.84-.4-1.35-1.1-1.35-1.87 0-3.96 2.28-6.88 6.6-2.1 3.1-2.47 4.18-4.65 11.52h-3.5l4.47-16.26c.05-.23.1-.5.1-.8 0-.92-.65-1.2-3.02-1.24v-.75c3.76-.75 5.06-.94 7.52-1.45l.2.1-3.12 10.12c4.64-7.43 7.76-10.22 10.73-10.22 2 0 3.02 1.16 3.02 2.84 0 .82-.18 1.8-.46 2.77l-2.6 9.44c-.46 1.68-.65 2.47-.65 2.84 0 .42.2.84.75.84.65 0 1.5-.75 2.83-2.46.33-.38.65-.8.98-1.2"/><path d="M220 299c0 27.6-22.4 50-50 50s-50-22.4-50-50 22.4-50 50-50 50 22.4 50 50z" stroke="#000" stroke-width="2" fill="#fff"/><use xlink:href="#a" transform="matrix(1,0,0,1,125,254) translate(45 50.4)"/><path d="M139.6 278.15h60.8v41.7h-60.8z" fill="none"/><path d="M157.32 284.92l.8 3.74c4.6-7.03 7.02-9.4 9.9-9.4 1.6 0 2.7 1 2.7 2.44 0 1.38-.9 2.36-2.23 2.36-1.26 0-1.85-1.1-3.43-1.1-1.18 0-3.54 2.88-6.44 7.94 0 .46.14 1.38.53 2.95l2.1 8.8c.46 1.85 1.05 2.7 1.97 2.7.86 0 1.58-.65 3.1-2.62.58-.8.85-1.2 1.37-1.84l1 .58c-3.82 5.9-5.53 7.5-8.03 7.5-2.1 0-3.1-1.2-3.88-4.48l-1.9-7.82-5.8 7.82c-2.9 3.88-4.2 4.47-6.24 4.47s-3.28-1.05-3.28-2.76c0-1.3.92-2.36 2.23-2.36.6 0 1.26.27 2.1.73.67.4 1.33.6 1.72.6.72 0 1.97-1.26 3.35-3.23l5.4-7.63-1.85-8.13c-.92-3.95-1.38-4.47-3.02-4.47-.53 0-1.32.13-2.56.46l-1.2.33-.18-1.07.72-.26c4-1.45 6.18-1.9 7.7-1.9 1.63 0 2.42 1.18 3.34 5.65M192.65 302.8c0 8-2.93 16-10.5 16-7.95 0-10.5-8.65-10.5-16.27 0-8.22 3.2-15.8 10.7-15.8 6.07 0 10.3 6.55 10.3 16.08m-4.46.24c0-9.66-2.05-15.1-6.14-15.1-3.86 0-5.95 5.48-5.95 14.92 0 9.43 2.05 14.73 6.05 14.73 3.95 0 6.04-5.36 6.04-14.56"/><path d="M220 439c0 27.6-22.4 50-50 50s-50-22.4-50-50 22.4-50 50-50 50 22.4 50 50z" stroke="#000" stroke-width="2" fill="#fff"/><use xlink:href="#a" transform="matrix(1,0,0,1,125,394) translate(45 50.4)"/><path d="M139.6 418.15h60.8v41.05h-60.8z" fill="none"/><path d="M157.32 424.92l.8 3.74c4.6-7.03 7.02-9.4 9.9-9.4 1.6 0 2.7 1 2.7 2.44 0 1.38-.9 2.36-2.23 2.36-1.26 0-1.85-1.1-3.43-1.1-1.18 0-3.54 2.88-6.44 7.94 0 .46.14 1.38.53 2.95l2.1 8.8c.46 1.85 1.05 2.7 1.97 2.7.86 0 1.58-.65 3.1-2.62.58-.8.85-1.2 1.37-1.84l1 .58c-3.82 5.9-5.53 7.5-8.03 7.5-2.1 0-3.1-1.2-3.88-4.48l-1.9-7.82-5.8 7.82c-2.9 3.88-4.2 4.47-6.24 4.47s-3.28-1.05-3.28-2.76c0-1.3.92-2.36 2.23-2.36.6 0 1.26.27 2.1.73.67.4 1.33.6 1.72.6.72 0 1.97-1.26 3.35-3.23l5.4-7.63-1.85-8.13c-.92-3.95-1.38-4.47-3.02-4.47-.53 0-1.32.13-2.56.46l-1.2.33-.18-1.07.72-.26c4-1.45 6.18-1.9 7.7-1.9 1.63 0 2.42 1.18 3.34 5.65M188.84 458.14h-12.82v-.7c3.43-.18 4.4-1.15 4.4-3.7v-20.88c0-1.58-.4-2.27-1.38-2.27-.47 0-1.26.22-2.1.55l-1.25.46v-.64l8.3-4.23.43.14v27.74c0 2 .93 2.85 4.4 2.85v.7"/><path d="M153.2 491.5h33.6v75.2h-33.6z" fill="none"/><path d="M174.16 523.06c0 2.23-1.65 4.2-4.14 4.2-2.5 0-4.2-1.64-4.2-4.2 0-2.5 2.1-4.14 4.2-4.14s4.14 1.7 4.14 4.14m0 19.12c0 2.23-1.65 4.2-4.14 4.2-2.5 0-4.2-1.64-4.2-4.2 0-2.5 2.1-4.14 4.2-4.14s4.14 1.7 4.14 4.14m0 19.2c0 2.22-1.65 4.2-4.14 4.2-2.5 0-4.2-1.65-4.2-4.2 0-2.5 2.1-4.15 4.2-4.15s4.14 1.7 4.14 4.14"/><path d="M760.5 120h139v106h-139z" fill="none"/><use xlink:href="#b" transform="matrix(1,0,0,1,765.5,125) translate(8.490885416666664 41.771701388888886)"/><use xlink:href="#c" transform="matrix(1,0,0,1,765.5,125) translate(17.82573784722222 72.8828125)"/><path d="M440.5 120h139v106h-139z" fill="none"/><use xlink:href="#d" transform="matrix(1,0,0,1,445.5,125) translate(8.490885416666664 41.771701388888886)"/><use xlink:href="#e" transform="matrix(1,0,0,1,445.5,125) translate(17.82573784722222 72.8828125)"/><path d="M100 120h139v106H100z" fill="none"/><use xlink:href="#f" transform="matrix(1,0,0,1,105,125) translate(17.82573784722222 41.771701388888886)"/><use xlink:href="#c" transform="matrix(1,0,0,1,105,125) translate(17.82573784722222 72.8828125)"/><path d="M560 376c0 27.6-22.4 50-50 50s-50-22.4-50-50 22.4-50 50-50 50 22.4 50 50z" stroke="#c92d39" stroke-width="4" fill="#ddd"/><use xlink:href="#g" transform="matrix(1,0,0,1,465,331) translate(45 50.4)"/><path d="M467.08 353h39.84v46h-39.84z" fill="#ddd"/><path d="M504.37 385.23l-2.3 13.03H469.6l17.08-22.22-15.98-22.3h32.54v10.93h-1.3c-.93-5.88-2.58-8.05-8.37-8.05h-13.94l12.63 17.03-14.64 18.9h18.04c4.88 0 6.44-2.96 7.4-7.32h1.3"/><path d="M511 426V326M517.5 388.5h20M535.5 363.5v25M534 365.25h20" stroke="#000" stroke-width="4" fill="none"/><path d="M558 528c0 27.6-22.4 50-50 50s-50-22.4-50-50 22.4-50 50-50 50 22.4 50 50z" stroke="#c92d39" stroke-width="4" fill="#ddd"/><use xlink:href="#g" transform="matrix(1,0,0,1,463,483) translate(45 50.4)"/><path d="M465.08 505h39.84v46h-39.84z" fill="#ddd"/><path d="M502.37 537.23l-2.3 13.03H467.6l17.08-22.22-15.98-22.3h32.54v10.93h-1.3c-.93-5.88-2.58-8.05-8.37-8.05h-13.94l12.63 17.03-14.64 18.9h18.04c4.88 0 6.44-2.96 7.4-7.32h1.3"/><path d="M509 578V478M515.5 540.5h20M533.5 515.5v25M532 517.25h20M220 299l240 77" stroke="#000" stroke-width="4" fill="none"/><path d="M232.17 307.77L220 299l15-.06z"/><path d="M233.23 311l-13.35-9.62.12-2.38-.07-2 17.82-.07zm-7.07-10.02l4.94 3.56 1.15-3.6zM460.08 378.12l-.7-.22.62-1.9z"/><path d="M220 439l240-63" stroke="#000" stroke-width="4" fill="none"/><path d="M234.98 439.86L220 439l12.62-8.1z"/><path d="M237.6 442.02L219.9 441l.1-2-.08-2.32 13.94-8.96zm-11.34-4.66l6.08.35-.95-3.64zM460 376l-.5-1.93.6-.17z"/><path d="M220 649l238-121" stroke="#000" stroke-width="4" fill="none"/><path d="M234.82 646.67L220 649l10.62-10.6z"/><path d="M237.85 648.2l-17.95 2.84.1-2.04-.1-2.73 11.25-11.23zm-12.08-2.13l6.02-.95-1.72-3.36zM458 528l-.9-1.78 1-.52z"/><path d="M220 299l238 229" stroke="#000" stroke-width="4" fill="none"/><path d="M233.5 305.55l-6.43 6.68L220 299z"/><path d="M236.84 304.95L226.6 315.6l-6.8-12.72.2-3.88-.08-2.26zm-9.3 3.9l2.6-2.7-5.48-2.66zM458.1 530.87l-1.5-1.43L458 528z"/><path d="M220 439l238 89" stroke="#000" stroke-width="4" fill="none"/><path d="M235 439.66l-3.26 8.68L220 439z"/><path d="M237.82 437.78l-5.17 13.84-12.77-10.16.12-2.46-.07-2zm-7 7.28l1.33-3.53-6.1-.26zM458.08 530.16l-.78-.3.7-1.86z"/><path d="M220 649l240-273" stroke="#000" stroke-width="4" fill="none"/><path d="M232.9 641.35L220 649l5.94-13.77z"/><path d="M236.3 641.66l-16.42 9.74.12-2.4-.13-3.6-.1-.9 5.42-12.6zm-12.03 2.48l5.24-3.1-2.82-2.5zM460 376l-1.5-1.32 1.66-1.9z"/><path d="M880 449c0 27.6-22.4 50-50 50s-50-22.4-50-50 22.4-50 50-50 50 22.4 50 50z" stroke="#c92d39" stroke-width="4" fill="#fff"/><use xlink:href="#a" transform="matrix(1,0,0,1,785,404) translate(45 50.4)"/><path d="M802.62 428.24h60.6V473h-60.6z" fill="none"/><path d="M820.14 446.12l1.38 7.23c5.58-9.27 8-14 8-16.9 0-.9-.45-1.3-1.7-2.1-1.3-.85-1.7-1.5-1.7-2.56 0-1.45 1.1-2.44 2.62-2.44 1.98 0 3.42 1.65 3.42 3.62 0 3.74-3.15 10.97-8.6 20.04-6.84 11.3-13.87 18.86-17.62 18.86-1.97 0-3.35-1.12-3.35-2.82 0-1.45 1.1-2.63 2.55-2.63 2.3 0 2.3 1.84 4 1.84.87 0 1.65-.53 3.17-2.17 1.18-1.25 4.14-5.13 4.66-5.98.4-.8.66-1.58.66-2.3 0-2.63-3.62-17.35-5.4-21.82-1.24-3.22-2.42-4.2-5.05-4.2-.73 0-1.32.06-2.05.26v-1.12c.73-.13 1.45-.26 2.1-.4 1.32-.26 3.5-.65 7.04-1.18h.25c1 0 4.47 10.9 5.6 16.76M851.66 468.24h-12.83v-.7c3.44-.18 4.42-1.16 4.42-3.7v-20.88c0-1.58-.42-2.27-1.4-2.27-.46 0-1.25.22-2.1.54l-1.24.47v-.64l8.33-4.23.4.14v27.74c0 2 .94 2.84 4.43 2.84v.7"/><path d="M1100 423.67h180v54.66h-180z" fill="none"/><use xlink:href="#h" transform="matrix(1,0,0,1,1105,428.66666666666663) translate(12.98828125 34.4921875)"/><path d="M880 449l220 2" stroke="#c92d39" stroke-width="6" fill="none"/><path d="M894.22 453.76L880 449l14.3-4.5z" fill="#c92d39"/><path d="M897.2 457.92l-17.36-5.8.16-3.12-.1-3.1 17.44-5.5zm-7.5-8.83l1.56.5v-1zM1100 454h-.03l.03-3z" fill="#c92d39"/><path d="M880 590c0 27.6-22.4 50-50 50s-50-22.4-50-50 22.4-50 50-50 50 22.4 50 50z" stroke="#c92d39" stroke-width="4" fill="#fff"/><use xlink:href="#a" transform="matrix(1,0,0,1,785,545) translate(45 50.4)"/><path d="M802.62 569.24h60.6V614h-60.6z" fill="none"/><path d="M820.14 587.12l1.38 7.23c5.58-9.27 8-14 8-16.9 0-.9-.45-1.3-1.7-2.1-1.3-.85-1.7-1.5-1.7-2.56 0-1.45 1.1-2.44 2.62-2.44 1.98 0 3.42 1.65 3.42 3.62 0 3.74-3.15 10.97-8.6 20.04-6.84 11.3-13.87 18.86-17.62 18.86-1.97 0-3.35-1.12-3.35-2.82 0-1.45 1.1-2.63 2.55-2.63 2.3 0 2.3 1.84 4 1.84.87 0 1.65-.53 3.17-2.17 1.18-1.25 4.14-5.13 4.66-5.98.4-.8.66-1.58.66-2.3 0-2.63-3.62-17.35-5.4-21.82-1.24-3.22-2.42-4.2-5.05-4.2-.73 0-1.32.06-2.05.26v-1.12c.73-.13 1.45-.26 2.1-.4 1.32-.26 3.5-.65 7.04-1.18h.25c1 0 4.47 10.9 5.6 16.76M855.38 602.88l-2.5 6.36H834.7v-.56l8.27-8.78c4.37-4.6 6.04-8.13 6.04-12.08 0-4.23-2.5-6.55-6.45-6.55-3.35 0-4.97 1.48-6.83 6.04l-.98-.22c.98-5.44 3.95-9.25 9.67-9.25 5.26 0 8.6 3.58 8.6 8.18 0 3.68-1.8 7.16-5.94 11.53l-7.67 8.18h10.86c1.96 0 2.93-.5 4.46-3.1"/><path d="M880 590l220-139" stroke="#c92d39" stroke-width="6" fill="none"/><path d="M894.54 586.3L880 590l9.58-11.54z" fill="#c92d39"/><path d="M899.28 588.2l-19.44 4.94.16-3.14-.13-3.6-.1-.82 10.15-12.2zm-11.07-3.4l1.6-.4-.55-.85zM1100 451l-1.6-2.54 1.6-1z" fill="#c92d39"/><path d="M883 299c0 27.6-22.4 50-50 50s-50-22.4-50-50 22.4-50 50-50 50 22.4 50 50z" stroke="#c92d39" stroke-width="4" fill="#fff"/><use xlink:href="#a" transform="matrix(1,0,0,1,788,254) translate(45 50.4)"/><path d="M805.62 278.24h60.6V323h-60.6z" fill="none"/><path d="M823.14 296.12l1.38 7.23c5.58-9.27 8-14 8-16.9 0-.9-.45-1.3-1.7-2.1-1.3-.85-1.7-1.5-1.7-2.56 0-1.45 1.1-2.44 2.62-2.44 1.98 0 3.42 1.65 3.42 3.62 0 3.74-3.15 10.97-8.6 20.04-6.84 11.3-13.87 18.86-17.62 18.86-1.97 0-3.35-1.12-3.35-2.82 0-1.45 1.1-2.63 2.55-2.63 2.3 0 2.3 1.84 4 1.84.87 0 1.65-.53 3.17-2.17 1.18-1.25 4.14-5.13 4.66-5.98.4-.8.66-1.58.66-2.3 0-2.63-3.62-17.35-5.4-21.82-1.24-3.22-2.42-4.2-5.05-4.2-.73 0-1.32.06-2.05.26v-1.12c.73-.13 1.45-.26 2.1-.4 1.32-.26 3.5-.65 7.04-1.18h.25c1 0 4.47 10.9 5.6 16.76M858.47 302.9c0 8-2.93 16-10.5 16-7.95 0-10.5-8.65-10.5-16.27 0-8.23 3.2-15.8 10.68-15.8 6.1 0 10.32 6.55 10.32 16.08m-4.46.24c0-9.67-2.04-15.1-6.13-15.1-3.85 0-5.94 5.48-5.94 14.9 0 9.45 2.04 14.74 6.04 14.74 3.95 0 6.04-5.34 6.04-14.54"/><path d="M883 299l217 152" stroke="#c92d39" stroke-width="6" fill="none"/><path d="M897.34 303.4l-5.3 7.58L883 299z" fill="#c92d39"/><path d="M902.17 301.73l-10.06 14.35-9.33-12.4.23-4.68-.1-3.17zm-10.23 4.15l.58-.83-1.57-.48zM1100 454.66l-1.72-1.2L1100 451z" fill="#c92d39"/><path d="M560 376l223-77" stroke="#c92d39" stroke-width="6" fill="none"/><path d="M575 375.73l-15 .27 11.97-9.04z" fill="#c92d39"/><path d="M579.18 378.65l-19.33.35.15-3-.13-3.6v-.06l13.6-10.26zm-10-5.82l1.63-.03-.32-.96zM783 299l-.98-2.84 1.14-.4z" fill="#c92d39"/><path d="M560 376l220 73" stroke="#c92d39" stroke-width="6" fill="none"/><path d="M575 376.1l-2.92 8.8L560 376z" fill="#c92d39"/><path d="M579.15 373.12l-5.52 16.64-13.8-10.17.17-3.6-.1-3zm-8.62 6.9l.32-.95h-1.64zM780.1 452.2l-1.04-.35.94-2.85z" fill="#c92d39"/><path d="M560 376l219.33 219.33" stroke="#c92d39" stroke-width="6" fill="none"/><path d="M573.37 382.8l-6.56 6.57L560 376z" fill="#c92d39"/><path d="M578.4 382L566 394.4l-6.38-12.53.13-.82.25-5.05-.12-3.43zm-10.8 2.32l.72-.7-1.46-.76zM780.7 598.22l-1.37 1.35-2.12-2.12 3.03-3.02z" fill="#c92d39"/><path d="M558 528l222 62" stroke="#c92d39" stroke-width="6" fill="none"/><path d="M570.5 536.3L558 528l15-.63z" fill="#c92d39"/><path d="M572.27 541.1l-14.44-9.6.17-3.5-.1-3 19.1-.8zm-4.92-10.5l1.36.92.3-.98zM780.1 593.15l-.9-.26.8-2.9z" fill="#c92d39"/><path d="M558 528l222-79" stroke="#c92d39" stroke-width="6" fill="none"/><path d="M573 527.58l-15 .42 11.9-9.15z" fill="#c92d39"/><path d="M577.2 530.47l-19.35.54.15-3-.13-3.6v-.08l13.46-10.37zm-10.05-5.72l1.63-.05-.34-.95zM780 449l-1-2.83 1.16-.4z" fill="#c92d39"/><path d="M558 528l224.26-224.26" stroke="#c92d39" stroke-width="6" fill="none"/><path d="M571.37 521.2L558 528l6.8-13.37z" fill="#c92d39"/><path d="M576.4 522l-18.57 9.45.17-3.45-.13-3.6-.27-2.23 6.4-12.58zm-11.54-.86l1.46-.75-.7-.72zM783.05 300.28l.08 2.3.28 2.3-3.26-3.26 2.12-2.12z" fill="#c92d39"/><defs><path d="M-.9 1.25H.9v1.32H-.9z" id="a"/><path d="M616-1102c361 0 521 202 521 560 0 354-171 562-527 562C259 20 92-192 92-542c0-351 169-560 524-560zm-9 930c200-2 236-165 236-370 0-199-27-367-223-367-195 0-233 146-233 367 0 129 18 223 55 282s92 88 165 88" id="i"/><path d="M471 20c-247 0-336-169-336-415v-687h281v607c4 148 31 285 172 285 152 0 207-150 207-312v-580h281c4 359-9 736 8 1082H816c-7-63-11-146-12-215h-5C736-76 644 20 471 20" id="j"/><path d="M711 13c-250 0-386-99-385-349l2-556H161v-190h181l88-282h176v282h385v190H606v530c-10 130 45 186 174 184 91-2 176-11 255-27v186C933-1 833 13 711 13" id="k"/><path d="M427-171c3 195 2 397 2 596H148V-846c1-83-4-168-8-236h272c10 49 14 118 15 176h4c59-114 151-197 316-197 291 0 385 259 385 560 0 243-65 433-220 521-50 28-109 42-176 42-162-2-253-78-309-191zm69-661c-91 113-92 463-1 586 46 62 145 101 225 54 96-57 118-191 119-351 0-123-18-215-53-276-46-82-128-115-220-74-25 12-48 33-70 61" id="l"/><g id="b"><use transform="matrix(0.015190972222222222,0,0,0.015190972222222222,0,0)" xlink:href="#i"/><use transform="matrix(0.015190972222222222,0,0,0.015190972222222222,18.66970486111111,0)" xlink:href="#j"/><use transform="matrix(0.015190972222222222,0,0,0.015190972222222222,37.33940972222222,0)" xlink:href="#k"/><use transform="matrix(0.015190972222222222,0,0,0.015190972222222222,56.00911458333333,0)" xlink:href="#l"/><use transform="matrix(0.015190972222222222,0,0,0.015190972222222222,74.67881944444444,0)" xlink:href="#j"/><use transform="matrix(0.015190972222222222,0,0,0.015190972222222222,93.34852430555556,0)" xlink:href="#k"/></g><path d="M794-190h353V0H118v-190h395v-1104H223v-190h571v1294" id="m"/><path d="M775-193C708-75 621 20 439 20 226 20 106-93 106-306c0-251 170-341 417-346l223-4c4-143-12-264-148-264-103 0-141 58-150 153l-293-14c37-219 194-321 455-321 263 0 418 130 417 390v392c1 84 5 161 89 160 21 0 42-2 62-6v152c-57 15-108 27-180 26-145 0-202-73-217-205h-6zm-256 17c168 0 234-139 227-325-166 4-347-25-347 173 0 94 33 152 120 152" id="n"/><path d="M143 212c82 12 185 12 233-31 50-45 83-117 110-192L38-1082h297c100 284 211 557 291 861 72-305 176-578 270-861h294L742 57c-80 192-156 368-417 368-60 0-131-4-182-13V212" id="o"/><path d="M1113-274C1038-96 884 20 626 20c-352 0-526-209-526-566 0-358 185-556 530-556 358 0 496 251 499 615H395c5 180 68 319 245 319 102 0 186-45 208-129zM857-663c-6-177-128-307-315-247-94 30-141 121-145 247h460" id="p"/><path d="M875-1102c70 0 148 7 206 17v237c-110-17-267-37-359 15-123 69-192 207-192 395V0H250c-10-367 32-789-52-1082h271c19 69 36 149 46 228h4c52-151 151-250 356-248" id="q"/><g id="c"><use transform="matrix(0.015190972222222222,0,0,0.015190972222222222,0,0)" xlink:href="#m"/><use transform="matrix(0.015190972222222222,0,0,0.015190972222222222,18.66970486111111,0)" xlink:href="#n"/><use transform="matrix(0.015190972222222222,0,0,0.015190972222222222,37.33940972222222,0)" xlink:href="#o"/><use transform="matrix(0.015190972222222222,0,0,0.015190972222222222,56.00911458333333,0)" xlink:href="#p"/><use transform="matrix(0.015190972222222222,0,0,0.015190972222222222,74.67881944444444,0)" xlink:href="#q"/></g><path d="M424-1484c-2 206 5 424-8 618h4c67-145 160-234 348-236 251-3 335 167 336 416V0H824v-621c0-150-23-276-173-270-163 7-227 142-227 312V0H143v-1484h281" id="r"/><path d="M794-190h353V0H118v-190h395v-702H223v-190h571v892zM513-1277v-207h281v207H513" id="s"/><path d="M802-909c-3-189-2-383-2-575h281v1248c-1 83 4 168 8 236H817c-9-50-14-117-15-176h-4C735-49 651 20 482 20 191 20 97-238 97-539c0-243 66-432 221-519 50-28 108-42 175-42 162 2 253 78 309 191zm-70 658c91-113 93-462 2-584-46-61-145-100-224-53-96 56-119 190-120 349 0 123 17 214 52 275 46 82 130 115 222 74 25-12 46-33 68-61" id="t"/><path d="M768-1103c247 0 336 167 336 416V0H824v-619c-3-164-24-273-171-273-164 0-229 142-229 312V0H143c-4-359 9-736-8-1082h268c7 63 12 146 13 215h4c67-145 160-236 348-236" id="u"/><g id="d"><use transform="matrix(0.015190972222222222,0,0,0.015190972222222222,0,0)" xlink:href="#r"/><use transform="matrix(0.015190972222222222,0,0,0.015190972222222222,18.66970486111111,0)" xlink:href="#s"/><use transform="matrix(0.015190972222222222,0,0,0.015190972222222222,37.33940972222222,0)" xlink:href="#t"/><use transform="matrix(0.015190972222222222,0,0,0.015190972222222222,56.00911458333333,0)" xlink:href="#t"/><use transform="matrix(0.015190972222222222,0,0,0.015190972222222222,74.67881944444444,0)" xlink:href="#p"/><use transform="matrix(0.015190972222222222,0,0,0.015190972222222222,93.34852430555556,0)" xlink:href="#u"/></g><g id="e"><use transform="matrix(0.015190972222222222,0,0,0.015190972222222222,0,0)" xlink:href="#m"/><use transform="matrix(0.015190972222222222,0,0,0.015190972222222222,18.66970486111111,0)" xlink:href="#n"/><use transform="matrix(0.015190972222222222,0,0,0.015190972222222222,37.33940972222222,0)" xlink:href="#o"/><use transform="matrix(0.015190972222222222,0,0,0.015190972222222222,56.00911458333333,0)" xlink:href="#p"/><use transform="matrix(0.015190972222222222,0,0,0.015190972222222222,74.67881944444444,0)" xlink:href="#q"/></g><g id="f"><use transform="matrix(0.015190972222222222,0,0,0.015190972222222222,0,0)" xlink:href="#s"/><use transform="matrix(0.015190972222222222,0,0,0.015190972222222222,18.66970486111111,0)" xlink:href="#u"/><use transform="matrix(0.015190972222222222,0,0,0.015190972222222222,37.33940972222222,0)" xlink:href="#l"/><use transform="matrix(0.015190972222222222,0,0,0.015190972222222222,56.00911458333333,0)" xlink:href="#j"/><use transform="matrix(0.015190972222222222,0,0,0.015190972222222222,74.67881944444444,0)" xlink:href="#k"/></g><path fill="#c92d39" d="M1113-274C1038-96 884 20 626 20c-352 0-526-209-526-566 0-358 185-556 530-556 358 0 496 251 499 615H395c5 180 68 319 245 319 102 0 186-45 208-129zM857-663c-6-177-128-307-315-247-94 30-141 121-145 247h460" id="v"/><path fill="#c92d39" d="M875-1102c70 0 148 7 206 17v237c-110-17-267-37-359 15-123 69-192 207-192 395V0H250c-10-367 32-789-52-1082h271c19 69 36 149 46 228h4c52-151 151-250 356-248" id="w"/><path fill="#c92d39" d="M616-1102c361 0 521 202 521 560 0 354-171 562-527 562C259 20 92-192 92-542c0-351 169-560 524-560zm-9 930c200-2 236-165 236-370 0-199-27-367-223-367-195 0-233 146-233 367 0 129 18 223 55 282s92 88 165 88" id="x"/><path fill="#c92d39" d="M622-916c-112 2-200 14-200 111 0 90 89 101 168 121 234 58 514 77 514 368C1104-4 751 54 434 5 267-21 161-112 121-270l247-37c24 111 113 145 252 141 114-3 226-12 226-124 0-101-103-113-192-134-225-54-490-76-490-351 0-247 201-328 458-328 245 0 413 88 457 292l-249 26c-16-98-92-133-208-131" id="y"/><g id="h"><use transform="matrix(0.01953125,0,0,0.01953125,0,0)" xlink:href="#v"/><use transform="matrix(0.01953125,0,0,0.01953125,24.00390625,0)" xlink:href="#w"/><use transform="matrix(0.01953125,0,0,0.01953125,48.0078125,0)" xlink:href="#w"/><use transform="matrix(0.01953125,0,0,0.01953125,72.01171875,0)" xlink:href="#x"/><use transform="matrix(0.01953125,0,0,0.01953125,96.015625,0)" xlink:href="#w"/><use transform="matrix(0.01953125,0,0,0.01953125,120.01953125,0)" xlink:href="#y"/></g></defs></g></svg>