<?xml version="1.0" encoding="UTF-8" standalone="no"?>
<svg width="301px" height="65px" viewBox="0 0 301 65" version="1.1" xmlns="http://www.w3.org/2000/svg" xmlns:xlink="http://www.w3.org/1999/xlink">
    <!-- Generator: Sketch 3.6.1 (26313) - http://www.bohemiancoding.com/sketch -->
    <title>bloomberg-logo</title>
    <desc>Created with Sketch.</desc>
    <defs></defs>
    <g id="Page-1" stroke="none" stroke-width="1" fill="none" fill-rule="evenodd">
        <path d="M7.897,12.813 L14.417,12.813 C20.376,12.813 23.002,14.696 23.002,18.521 C23.002,21.845 20.376,24.102 15.105,24.102 L7.897,24.102 L7.897,12.813 L7.897,12.813 Z M0,50.423 L15.98,50.423 C24.378,50.423 32.776,47.423 32.776,37.766 C32.776,32.058 28.774,27.676 23.197,27.042 L23.197,26.91 C27.76,25.543 30.907,22.22 30.907,17.204 C30.907,9.116 24.004,6.047 17.297,6.047 L0,6.047 L0,50.423 L0,50.423 Z M7.897,30.868 L15.479,30.868 C21.871,30.868 24.89,32.5 24.89,37.142 C24.89,42.963 19.236,43.657 15.164,43.657 L7.897,43.657 L7.897,30.868 L7.897,30.868 Z" id="Shape" stroke="#000000" fill="#FFFFFF"></path>
        <path d="M58.011,35.382 C58.011,30.681 61.335,26.36 66.852,26.36 C72.369,26.36 75.683,30.682 75.683,35.382 C75.683,40.082 72.369,44.405 66.852,44.405 C61.334,44.405 58.011,40.083 58.011,35.382 M50.488,35.382 C50.488,44.847 57.755,51.171 66.852,51.171 C75.938,51.171 83.216,44.848 83.216,35.382 C83.216,25.916 75.939,19.584 66.852,19.584 C57.755,19.583 50.488,25.917 50.488,35.382" id="Shape" stroke="#000000" fill="#FFFFFF"></path>
        <path d="M94.131,35.382 C94.131,30.681 97.455,26.36 102.972,26.36 C108.489,26.36 111.803,30.682 111.803,35.382 C111.803,40.082 108.489,44.405 102.972,44.405 C97.455,44.405 94.131,40.083 94.131,35.382 M86.608,35.382 C86.608,44.847 93.876,51.171 102.972,51.171 C112.058,51.171 119.336,44.848 119.336,35.382 C119.336,25.916 112.059,19.584 102.972,19.584 C93.875,19.583 86.608,25.917 86.608,35.382" id="Shape" stroke="#000000" fill="#FFFFFF"></path>
        <path d="M123.918,20.336 L131.067,20.336 L131.067,25.042 L131.185,25.042 C132.503,22.22 135.384,19.579 140.399,19.579 C145.041,19.579 148.247,21.393 149.81,25.16 C152.003,21.344 155.199,19.579 159.703,19.579 C167.727,19.579 170.551,25.292 170.551,32.501 L170.551,50.424 L163.028,50.424 L163.028,33.376 C163.028,29.619 161.907,26.359 157.452,26.359 C152.752,26.359 150.991,30.243 150.991,34.123 L150.991,50.423 L143.478,50.423 L143.478,32.5 C143.478,28.792 141.973,26.359 138.335,26.359 C133.388,26.359 131.441,29.983 131.441,34 L131.441,50.423 L123.918,50.423 L123.918,20.336 L123.918,20.336 Z" id="Shape" stroke="#000000" fill="#FFFFFF"></path>
        <path d="M201.597,35.382 C201.597,40.088 198.283,44.405 192.756,44.405 C187.238,44.405 183.915,40.088 183.915,35.382 C183.915,30.681 187.238,26.349 192.756,26.349 C198.283,26.349 201.597,30.681 201.597,35.382 L201.597,35.382 Z M176.648,50.423 L183.797,50.423 L183.797,45.913 L183.915,45.913 C186.117,49.537 190.061,51.17 194.269,51.17 C203.533,51.17 209.119,44.276 209.119,35.381 C209.119,26.481 203.16,19.583 194.575,19.583 C188.939,19.583 185.921,22.209 184.357,24.166 L184.17,24.166 L184.17,5 L176.647,5 L176.647,50.423 L176.648,50.423 Z" id="Shape" stroke="#000000" fill="#FFFFFF"></path>
        <path d="M220.045,32.373 C220.606,28.041 223.369,25.224 227.814,25.224 C232.515,25.224 235.396,27.983 235.465,32.373 L220.045,32.373 L220.045,32.373 Z M242.988,38.013 L242.988,35.948 C242.988,25.475 237.285,19.584 228.886,19.584 C219.78,19.584 212.522,25.917 212.522,35.382 C212.522,44.847 219.78,51.171 228.886,51.171 C233.636,51.171 238.1,49.48 241.601,45.162 L236.212,41.096 C234.334,43.403 231.885,45.162 228.128,45.162 C223.93,45.162 220.536,42.463 220.045,38.013 L242.988,38.013 L242.988,38.013 Z" id="Shape" stroke="#000000" fill="#FFFFFF"></path>
        <path d="M247.885,20.336 L255.408,20.336 L255.408,25.101 L255.536,25.101 C257.168,21.654 260.482,19.579 264.435,19.579 C265.379,19.579 266.254,19.771 267.129,20.026 L267.129,27.294 C265.88,26.984 264.681,26.733 263.49,26.733 C256.41,26.733 255.407,32.692 255.407,34.325 L255.407,50.424 L247.884,50.424 L247.884,20.336 L247.885,20.336 Z" id="Shape" stroke="#000000" fill="#FFFFFF"></path>
        <path d="M283.957,26.359 C289.405,26.359 292.856,29.983 292.856,35.199 C292.856,40.205 289.473,44.03 283.897,44.03 C278.823,44.03 275.056,40.082 275.056,35.317 C275.056,29.983 278.685,26.359 283.957,26.359 L283.957,26.359 Z M292.856,20.336 L292.856,24.85 L292.738,24.85 C290.536,21.211 286.583,19.579 282.384,19.579 C273.111,19.579 267.534,26.477 267.534,35.382 C267.534,43.898 273.493,50.797 282.512,50.797 C286.278,50.797 290.162,49.361 292.366,46.416 L292.473,46.416 L292.473,48.614 C292.473,54.563 290.231,58.704 282.954,58.704 C278.755,58.704 275.617,57.13 272.608,54.357 L268.104,60.512 C272.352,64.288 277.436,65.469 283.022,65.469 C294.745,65.469 300.005,58.566 300.005,47.728 L300.005,20.336 L292.856,20.336 L292.856,20.336 Z" id="Shape" stroke="#000000" fill="#FFFFFF"></path>
        <rect id="Rectangle-1" stroke="#000000" fill="#FFFFFF" x="38" y="5" width="7" height="45"></rect>
    </g>
</svg>