<?xml version="1.0" encoding="utf-8" standalone="no"?>
<!DOCTYPE svg PUBLIC "-//W3C//DTD SVG 1.1//EN"
  "http://www.w3.org/Graphics/SVG/1.1/DTD/svg11.dtd">
<!-- Created with matplotlib (http://matplotlib.org/) -->
<svg height="231pt" version="1.1" viewBox="0 0 231 231" width="231pt" xmlns="http://www.w3.org/2000/svg" xmlns:xlink="http://www.w3.org/1999/xlink">
 <defs>
  <style type="text/css">
*{stroke-linecap:butt;stroke-linejoin:round;}
  </style>
 </defs>
 <g id="figure_1">
  <g id="patch_1">
   <path d="M 0 231.84 
L 231.84 231.84 
L 231.84 0 
L 0 0 
z
" style="fill:#ffffff;"/>
  </g>
  <g id="axes_1">
   <g id="patch_2">
    <path clip-path="url(#p0c1600626b)" d="M 84.819512 115.92 
L 86.233171 122.988293 
L 84.819512 122.988293 
L 84.819512 172.466341 
L 84.819512 172.466341 
L 84.819512 122.988293 
L 83.405854 122.988293 
z
" style="stroke:#000000;stroke-linejoin:miter;"/>
   </g>
   <g id="patch_3">
    <path clip-path="url(#p0c1600626b)" d="M 127.229268 101.783415 
L 120.160976 103.197073 
L 120.160976 101.783415 
L 98.956098 101.783415 
L 98.956098 101.783415 
L 120.160976 101.783415 
L 120.160976 100.369756 
z
" style="stroke:#000000;stroke-linejoin:miter;"/>
   </g>
   <g id="patch_4">
    <path clip-path="url(#p0c1600626b)" d="M 76.977946 90.021065 
L 71.880927 84.924046 
L 73.057162 84.13989 
L 36.114737 28.726252 
L 36.114737 28.726252 
L 73.057162 84.13989 
L 74.233397 83.355733 
z
" style="stroke:#000000;stroke-linejoin:miter;"/>
   </g>
   <g id="patch_5">
    <path clip-path="url(#p0c1600626b)" d="M 73.510244 93.301463 
L 67.007415 90.191415 
L 67.85561 89.060488 
L 39.582439 67.85561 
L 39.582439 67.85561 
L 67.85561 89.060488 
L 68.703805 87.929561 
z
" style="stroke:#000000;stroke-linejoin:miter;"/>
   </g>
   <g id="patch_6">
    <path clip-path="url(#p0c1600626b)" d="M 70.682927 101.783415 
L 63.614634 103.197073 
L 63.614634 101.783415 
L 42.409756 101.783415 
L 42.409756 101.783415 
L 63.614634 101.783415 
L 63.614634 100.369756 
z
" style="stroke:#000000;stroke-linejoin:miter;"/>
   </g>
   <g id="patch_7">
    <path clip-path="url(#p0c1600626b)" d="M 73.510244 110.265366 
L 68.703805 115.637268 
L 67.85561 114.506341 
L 39.582439 135.71122 
L 39.582439 135.71122 
L 67.85561 114.506341 
L 67.007415 113.375415 
z
" style="stroke:#000000;stroke-linejoin:miter;"/>
   </g>
   <g id="patch_8">
    <path clip-path="url(#p0c1600626b)" d="M 76.977946 113.545765 
L 74.233397 120.211096 
L 73.057162 119.42694 
L 36.114737 174.840577 
L 36.114737 174.840577 
L 73.057162 119.42694 
L 71.880927 118.642783 
z
" style="stroke:#000000;stroke-linejoin:miter;"/>
   </g>
   <g id="patch_9">
    <path clip-path="url(#p0c1600626b)" d="M 190.070628 28.726252 
L 187.32608 35.391584 
L 186.149845 34.607427 
L 149.20742 90.021065 
L 149.20742 90.021065 
L 186.149845 34.607427 
L 184.97361 33.823271 
z
" style="stroke:#000000;stroke-linejoin:miter;"/>
   </g>
   <g id="patch_10">
    <path clip-path="url(#p0c1600626b)" d="M 186.602927 67.85561 
L 181.796488 73.227512 
L 180.948293 72.096585 
L 152.675122 93.301463 
L 152.675122 93.301463 
L 180.948293 72.096585 
L 180.100098 70.965659 
z
" style="stroke:#000000;stroke-linejoin:miter;"/>
   </g>
   <g id="patch_11">
    <path clip-path="url(#p0c1600626b)" d="M 183.77561 101.783415 
L 176.707317 103.197073 
L 176.707317 101.783415 
L 155.502439 101.783415 
L 155.502439 101.783415 
L 176.707317 101.783415 
L 176.707317 100.369756 
z
" style="stroke:#000000;stroke-linejoin:miter;"/>
   </g>
   <g id="patch_12">
    <path clip-path="url(#p0c1600626b)" d="M 186.602927 135.71122 
L 180.100098 132.601171 
L 180.948293 131.470244 
L 152.675122 110.265366 
L 152.675122 110.265366 
L 180.948293 131.470244 
L 181.796488 130.339317 
z
" style="stroke:#000000;stroke-linejoin:miter;"/>
   </g>
   <g id="patch_13">
    <path clip-path="url(#p0c1600626b)" d="M 190.070628 174.840577 
L 184.97361 169.743558 
L 186.149845 168.959402 
L 149.20742 113.545765 
L 149.20742 113.545765 
L 186.149845 168.959402 
L 187.32608 168.175245 
z
" style="stroke:#000000;stroke-linejoin:miter;"/>
   </g>
   <g id="patch_14">
    <path clip-path="url(#p0c1600626b)" d="M 84.819512 115.92 
C 88.568578 115.92 92.164597 114.43048 94.815588 111.77949 
C 97.466578 109.1285 98.956098 105.532481 98.956098 101.783415 
C 98.956098 98.034348 97.466578 94.438329 94.815588 91.787339 
C 92.164597 89.136349 88.568578 87.646829 84.819512 87.646829 
C 81.070446 87.646829 77.474427 89.136349 74.823437 91.787339 
C 72.172447 94.438329 70.682927 98.034348 70.682927 101.783415 
C 70.682927 105.532481 72.172447 109.1285 74.823437 111.77949 
C 77.474427 114.43048 81.070446 115.92 84.819512 115.92 
z
" style="fill:#b2b2b2;stroke:#000000;stroke-linejoin:miter;"/>
   </g>
   <g id="patch_15">
    <path clip-path="url(#p0c1600626b)" d="M 84.819512 115.92 
C 88.568578 115.92 92.164597 114.43048 94.815588 111.77949 
C 97.466578 109.1285 98.956098 105.532481 98.956098 101.783415 
C 98.956098 98.034348 97.466578 94.438329 94.815588 91.787339 
C 92.164597 89.136349 88.568578 87.646829 84.819512 87.646829 
C 81.070446 87.646829 77.474427 89.136349 74.823437 91.787339 
C 72.172447 94.438329 70.682927 98.034348 70.682927 101.783415 
C 70.682927 105.532481 72.172447 109.1285 74.823437 111.77949 
C 77.474427 114.43048 81.070446 115.92 84.819512 115.92 
z
" style="fill:none;stroke:#000000;stroke-linejoin:miter;"/>
   </g>
   <g id="patch_16">
    <path clip-path="url(#p0c1600626b)" d="M 141.365854 115.92 
C 145.11492 115.92 148.710939 114.43048 151.361929 111.77949 
C 154.012919 109.1285 155.502439 105.532481 155.502439 101.783415 
C 155.502439 98.034348 154.012919 94.438329 151.361929 91.787339 
C 148.710939 89.136349 145.11492 87.646829 141.365854 87.646829 
C 137.616787 87.646829 134.020768 89.136349 131.369778 91.787339 
C 128.718788 94.438329 127.229268 98.034348 127.229268 101.783415 
C 127.229268 105.532481 128.718788 109.1285 131.369778 111.77949 
C 134.020768 114.43048 137.616787 115.92 141.365854 115.92 
z
" style="fill:#b2b2b2;stroke:#000000;stroke-linejoin:miter;"/>
   </g>
   <g id="patch_17">
    <path clip-path="url(#p0c1600626b)" d="M 141.365854 115.92 
C 145.11492 115.92 148.710939 114.43048 151.361929 111.77949 
C 154.012919 109.1285 155.502439 105.532481 155.502439 101.783415 
C 155.502439 98.034348 154.012919 94.438329 151.361929 91.787339 
C 148.710939 89.136349 145.11492 87.646829 141.365854 87.646829 
C 137.616787 87.646829 134.020768 89.136349 131.369778 91.787339 
C 128.718788 94.438329 127.229268 98.034348 127.229268 101.783415 
C 127.229268 105.532481 128.718788 109.1285 131.369778 111.77949 
C 134.020768 114.43048 137.616787 115.92 141.365854 115.92 
z
" style="fill:none;stroke:#000000;stroke-linejoin:miter;"/>
   </g>
   <g id="patch_18">
    <path clip-path="url(#p0c1600626b)" d="M 84.819512 200.739512 
C 88.568578 200.739512 92.164597 199.249992 94.815588 196.599002 
C 97.466578 193.948012 98.956098 190.351993 98.956098 186.602927 
C 98.956098 182.853861 97.466578 179.257842 94.815588 176.606851 
C 92.164597 173.955861 88.568578 172.466341 84.819512 172.466341 
C 81.070446 172.466341 77.474427 173.955861 74.823437 176.606851 
C 72.172447 179.257842 70.682927 182.853861 70.682927 186.602927 
C 70.682927 190.351993 72.172447 193.948012 74.823437 196.599002 
C 77.474427 199.249992 81.070446 200.739512 84.819512 200.739512 
z
" style="fill:none;stroke:#000000;stroke-linejoin:miter;"/>
   </g>
   <g id="patch_19">
    <path clip-path="url(#p0c1600626b)" d="M 28.273171 31.100488 
C 32.022237 31.100488 35.618256 29.610968 38.269246 26.959978 
C 40.920236 24.308988 42.409756 20.712969 42.409756 16.963902 
C 42.409756 13.214836 40.920236 9.618817 38.269246 6.967827 
C 35.618256 4.316837 32.022237 2.827317 28.273171 2.827317 
C 24.524104 2.827317 20.928086 4.316837 18.277095 6.967827 
C 15.626105 9.618817 14.136585 13.214836 14.136585 16.963902 
C 14.136585 20.712969 15.626105 24.308988 18.277095 26.959978 
C 20.928086 29.610968 24.524104 31.100488 28.273171 31.100488 
z
" style="fill:none;stroke:#000000;stroke-linejoin:miter;"/>
   </g>
   <g id="patch_20">
    <path clip-path="url(#p0c1600626b)" d="M 28.273171 73.510244 
C 32.022237 73.510244 35.618256 72.020724 38.269246 69.369734 
C 40.920236 66.718744 42.409756 63.122725 42.409756 59.373659 
C 42.409756 55.624592 40.920236 52.028573 38.269246 49.377583 
C 35.618256 46.726593 32.022237 45.237073 28.273171 45.237073 
C 24.524104 45.237073 20.928086 46.726593 18.277095 49.377583 
C 15.626105 52.028573 14.136585 55.624592 14.136585 59.373659 
C 14.136585 63.122725 15.626105 66.718744 18.277095 69.369734 
C 20.928086 72.020724 24.524104 73.510244 28.273171 73.510244 
z
" style="fill:none;stroke:#000000;stroke-linejoin:miter;"/>
   </g>
   <g id="patch_21">
    <path clip-path="url(#p0c1600626b)" d="M 28.273171 115.92 
C 32.022237 115.92 35.618256 114.43048 38.269246 111.77949 
C 40.920236 109.1285 42.409756 105.532481 42.409756 101.783415 
C 42.409756 98.034348 40.920236 94.438329 38.269246 91.787339 
C 35.618256 89.136349 32.022237 87.646829 28.273171 87.646829 
C 24.524104 87.646829 20.928086 89.136349 18.277095 91.787339 
C 15.626105 94.438329 14.136585 98.034348 14.136585 101.783415 
C 14.136585 105.532481 15.626105 109.1285 18.277095 111.77949 
C 20.928086 114.43048 24.524104 115.92 28.273171 115.92 
z
" style="fill:none;stroke:#000000;stroke-linejoin:miter;"/>
   </g>
   <g id="patch_22">
    <path clip-path="url(#p0c1600626b)" d="M 28.273171 158.329756 
C 32.022237 158.329756 35.618256 156.840236 38.269246 154.189246 
C 40.920236 151.538256 42.409756 147.942237 42.409756 144.193171 
C 42.409756 140.444104 40.920236 136.848086 38.269246 134.197095 
C 35.618256 131.546105 32.022237 130.056585 28.273171 130.056585 
C 24.524104 130.056585 20.928086 131.546105 18.277095 134.197095 
C 15.626105 136.848086 14.136585 140.444104 14.136585 144.193171 
C 14.136585 147.942237 15.626105 151.538256 18.277095 154.189246 
C 20.928086 156.840236 24.524104 158.329756 28.273171 158.329756 
z
" style="fill:none;stroke:#000000;stroke-linejoin:miter;"/>
   </g>
   <g id="patch_23">
    <path clip-path="url(#p0c1600626b)" d="M 28.273171 200.739512 
C 32.022237 200.739512 35.618256 199.249992 38.269246 196.599002 
C 40.920236 193.948012 42.409756 190.351993 42.409756 186.602927 
C 42.409756 182.853861 40.920236 179.257842 38.269246 176.606851 
C 35.618256 173.955861 32.022237 172.466341 28.273171 172.466341 
C 24.524104 172.466341 20.928086 173.955861 18.277095 176.606851 
C 15.626105 179.257842 14.136585 182.853861 14.136585 186.602927 
C 14.136585 190.351993 15.626105 193.948012 18.277095 196.599002 
C 20.928086 199.249992 24.524104 200.739512 28.273171 200.739512 
z
" style="fill:none;stroke:#000000;stroke-linejoin:miter;"/>
   </g>
   <g id="patch_24">
    <path clip-path="url(#p0c1600626b)" d="M 197.912195 31.100488 
C 201.661261 31.100488 205.25728 29.610968 207.90827 26.959978 
C 210.559261 24.308988 212.04878 20.712969 212.04878 16.963902 
C 212.04878 13.214836 210.559261 9.618817 207.90827 6.967827 
C 205.25728 4.316837 201.661261 2.827317 197.912195 2.827317 
C 194.163129 2.827317 190.56711 4.316837 187.91612 6.967827 
C 185.26513 9.618817 183.77561 13.214836 183.77561 16.963902 
C 183.77561 20.712969 185.26513 24.308988 187.91612 26.959978 
C 190.56711 29.610968 194.163129 31.100488 197.912195 31.100488 
z
" style="fill:none;stroke:#000000;stroke-linejoin:miter;"/>
   </g>
   <g id="patch_25">
    <path clip-path="url(#p0c1600626b)" d="M 197.912195 73.510244 
C 201.661261 73.510244 205.25728 72.020724 207.90827 69.369734 
C 210.559261 66.718744 212.04878 63.122725 212.04878 59.373659 
C 212.04878 55.624592 210.559261 52.028573 207.90827 49.377583 
C 205.25728 46.726593 201.661261 45.237073 197.912195 45.237073 
C 194.163129 45.237073 190.56711 46.726593 187.91612 49.377583 
C 185.26513 52.028573 183.77561 55.624592 183.77561 59.373659 
C 183.77561 63.122725 185.26513 66.718744 187.91612 69.369734 
C 190.56711 72.020724 194.163129 73.510244 197.912195 73.510244 
z
" style="fill:none;stroke:#000000;stroke-linejoin:miter;"/>
   </g>
   <g id="patch_26">
    <path clip-path="url(#p0c1600626b)" d="M 197.912195 115.92 
C 201.661261 115.92 205.25728 114.43048 207.90827 111.77949 
C 210.559261 109.1285 212.04878 105.532481 212.04878 101.783415 
C 212.04878 98.034348 210.559261 94.438329 207.90827 91.787339 
C 205.25728 89.136349 201.661261 87.646829 197.912195 87.646829 
C 194.163129 87.646829 190.56711 89.136349 187.91612 91.787339 
C 185.26513 94.438329 183.77561 98.034348 183.77561 101.783415 
C 183.77561 105.532481 185.26513 109.1285 187.91612 111.77949 
C 190.56711 114.43048 194.163129 115.92 197.912195 115.92 
z
" style="fill:none;stroke:#000000;stroke-linejoin:miter;"/>
   </g>
   <g id="patch_27">
    <path clip-path="url(#p0c1600626b)" d="M 197.912195 158.329756 
C 201.661261 158.329756 205.25728 156.840236 207.90827 154.189246 
C 210.559261 151.538256 212.04878 147.942237 212.04878 144.193171 
C 212.04878 140.444104 210.559261 136.848086 207.90827 134.197095 
C 205.25728 131.546105 201.661261 130.056585 197.912195 130.056585 
C 194.163129 130.056585 190.56711 131.546105 187.91612 134.197095 
C 185.26513 136.848086 183.77561 140.444104 183.77561 144.193171 
C 183.77561 147.942237 185.26513 151.538256 187.91612 154.189246 
C 190.56711 156.840236 194.163129 158.329756 197.912195 158.329756 
z
" style="fill:none;stroke:#000000;stroke-linejoin:miter;"/>
   </g>
   <g id="patch_28">
    <path clip-path="url(#p0c1600626b)" d="M 197.912195 200.739512 
C 201.661261 200.739512 205.25728 199.249992 207.90827 196.599002 
C 210.559261 193.948012 212.04878 190.351993 212.04878 186.602927 
C 212.04878 182.853861 210.559261 179.257842 207.90827 176.606851 
C 205.25728 173.955861 201.661261 172.466341 197.912195 172.466341 
C 194.163129 172.466341 190.56711 173.955861 187.91612 176.606851 
C 185.26513 179.257842 183.77561 182.853861 183.77561 186.602927 
C 183.77561 190.351993 185.26513 193.948012 187.91612 196.599002 
C 190.56711 199.249992 194.163129 200.739512 197.912195 200.739512 
z
" style="fill:none;stroke:#000000;stroke-linejoin:miter;"/>
   </g>
   <g id="patch_29">
    <path clip-path="url(#p0c1600626b)" d="M 56.546341 59.373659 
C 60.295408 59.373659 63.891427 57.884139 66.542417 55.233149 
C 69.193407 52.582158 70.682927 48.986139 70.682927 45.237073 
C 70.682927 41.488007 69.193407 37.891988 66.542417 35.240998 
C 63.891427 32.590008 60.295408 31.100488 56.546341 31.100488 
C 52.797275 31.100488 49.201256 32.590008 46.550266 35.240998 
C 43.899276 37.891988 42.409756 41.488007 42.409756 45.237073 
C 42.409756 48.986139 43.899276 52.582158 46.550266 55.233149 
C 49.201256 57.884139 52.797275 59.373659 56.546341 59.373659 
z
" style="fill:none;"/>
   </g>
   <g id="patch_30">
    <path clip-path="url(#p0c1600626b)" d="M 56.546341 86.233171 
C 60.295408 86.233171 63.891427 84.743651 66.542417 82.092661 
C 69.193407 79.441671 70.682927 75.845652 70.682927 72.096585 
C 70.682927 68.347519 69.193407 64.7515 66.542417 62.10051 
C 63.891427 59.44952 60.295408 57.96 56.546341 57.96 
C 52.797275 57.96 49.201256 59.44952 46.550266 62.10051 
C 43.899276 64.7515 42.409756 68.347519 42.409756 72.096585 
C 42.409756 75.845652 43.899276 79.441671 46.550266 82.092661 
C 49.201256 84.743651 52.797275 86.233171 56.546341 86.233171 
z
" style="fill:none;"/>
   </g>
   <g id="patch_31">
    <path clip-path="url(#p0c1600626b)" d="M 56.546341 110.265366 
C 60.295408 110.265366 63.891427 108.775846 66.542417 106.124856 
C 69.193407 103.473866 70.682927 99.877847 70.682927 96.12878 
C 70.682927 92.379714 69.193407 88.783695 66.542417 86.132705 
C 63.891427 83.481715 60.295408 81.992195 56.546341 81.992195 
C 52.797275 81.992195 49.201256 83.481715 46.550266 86.132705 
C 43.899276 88.783695 42.409756 92.379714 42.409756 96.12878 
C 42.409756 99.877847 43.899276 103.473866 46.550266 106.124856 
C 49.201256 108.775846 52.797275 110.265366 56.546341 110.265366 
z
" style="fill:none;"/>
   </g>
   <g id="patch_32">
    <path clip-path="url(#p0c1600626b)" d="M 56.546341 128.58638 
C 60.295408 128.58638 63.891427 127.096861 66.542417 124.44587 
C 69.193407 121.79488 70.682927 118.198861 70.682927 114.449795 
C 70.682927 110.700729 69.193407 107.10471 66.542417 104.45372 
C 63.891427 101.80273 60.295408 100.31321 56.546341 100.31321 
C 52.797275 100.31321 49.201256 101.80273 46.550266 104.45372 
C 43.899276 107.10471 42.409756 110.700729 42.409756 114.449795 
C 42.409756 118.198861 43.899276 121.79488 46.550266 124.44587 
C 49.201256 127.096861 52.797275 128.58638 56.546341 128.58638 
z
" style="fill:none;"/>
   </g>
   <g id="patch_33">
    <path clip-path="url(#p0c1600626b)" d="M 56.546341 147.020488 
C 60.295408 147.020488 63.891427 145.530968 66.542417 142.879978 
C 69.193407 140.228988 70.682927 136.632969 70.682927 132.883902 
C 70.682927 129.134836 69.193407 125.538817 66.542417 122.887827 
C 63.891427 120.236837 60.295408 118.747317 56.546341 118.747317 
C 52.797275 118.747317 49.201256 120.236837 46.550266 122.887827 
C 43.899276 125.538817 42.409756 129.134836 42.409756 132.883902 
C 42.409756 136.632969 43.899276 140.228988 46.550266 142.879978 
C 49.201256 145.530968 52.797275 147.020488 56.546341 147.020488 
z
" style="fill:none;"/>
   </g>
   <g id="patch_34">
    <path clip-path="url(#p0c1600626b)" d="M 96.12878 172.466341 
C 99.877847 172.466341 103.473866 170.976822 106.124856 168.325831 
C 108.775846 165.674841 110.265366 162.078822 110.265366 158.329756 
C 110.265366 154.58069 108.775846 150.984671 106.124856 148.333681 
C 103.473866 145.682691 99.877847 144.193171 96.12878 144.193171 
C 92.379714 144.193171 88.783695 145.682691 86.132705 148.333681 
C 83.481715 150.984671 81.992195 154.58069 81.992195 158.329756 
C 81.992195 162.078822 83.481715 165.674841 86.132705 168.325831 
C 88.783695 170.976822 92.379714 172.466341 96.12878 172.466341 
z
" style="fill:none;"/>
   </g>
   <g id="patch_35">
    <path clip-path="url(#p0c1600626b)" d="M 5.654634 31.100488 
C 9.4037 31.100488 12.999719 29.610968 15.65071 26.959978 
C 18.3017 24.308988 19.79122 20.712969 19.79122 16.963902 
C 19.79122 13.214836 18.3017 9.618817 15.65071 6.967827 
C 12.999719 4.316837 9.4037 2.827317 5.654634 2.827317 
C 1.905568 2.827317 -1.690451 4.316837 -4.341441 6.967827 
C -6.992431 9.618817 -8.481951 13.214836 -8.481951 16.963902 
C -8.481951 20.712969 -6.992431 24.308988 -4.341441 26.959978 
C -1.690451 29.610968 1.905568 31.100488 5.654634 31.100488 
z
" style="fill:none;"/>
   </g>
   <g id="patch_36">
    <path clip-path="url(#p0c1600626b)" d="M 5.654634 73.510244 
C 9.4037 73.510244 12.999719 72.020724 15.65071 69.369734 
C 18.3017 66.718744 19.79122 63.122725 19.79122 59.373659 
C 19.79122 55.624592 18.3017 52.028573 15.65071 49.377583 
C 12.999719 46.726593 9.4037 45.237073 5.654634 45.237073 
C 1.905568 45.237073 -1.690451 46.726593 -4.341441 49.377583 
C -6.992431 52.028573 -8.481951 55.624592 -8.481951 59.373659 
C -8.481951 63.122725 -6.992431 66.718744 -4.341441 69.369734 
C -1.690451 72.020724 1.905568 73.510244 5.654634 73.510244 
z
" style="fill:none;"/>
   </g>
   <g id="patch_37">
    <path clip-path="url(#p0c1600626b)" d="M 5.654634 115.92 
C 9.4037 115.92 12.999719 114.43048 15.65071 111.77949 
C 18.3017 109.1285 19.79122 105.532481 19.79122 101.783415 
C 19.79122 98.034348 18.3017 94.438329 15.65071 91.787339 
C 12.999719 89.136349 9.4037 87.646829 5.654634 87.646829 
C 1.905568 87.646829 -1.690451 89.136349 -4.341441 91.787339 
C -6.992431 94.438329 -8.481951 98.034348 -8.481951 101.783415 
C -8.481951 105.532481 -6.992431 109.1285 -4.341441 111.77949 
C -1.690451 114.43048 1.905568 115.92 5.654634 115.92 
z
" style="fill:none;"/>
   </g>
   <g id="patch_38">
    <path clip-path="url(#p0c1600626b)" d="M 5.654634 158.329756 
C 9.4037 158.329756 12.999719 156.840236 15.65071 154.189246 
C 18.3017 151.538256 19.79122 147.942237 19.79122 144.193171 
C 19.79122 140.444104 18.3017 136.848086 15.65071 134.197095 
C 12.999719 131.546105 9.4037 130.056585 5.654634 130.056585 
C 1.905568 130.056585 -1.690451 131.546105 -4.341441 134.197095 
C -6.992431 136.848086 -8.481951 140.444104 -8.481951 144.193171 
C -8.481951 147.942237 -6.992431 151.538256 -4.341441 154.189246 
C -1.690451 156.840236 1.905568 158.329756 5.654634 158.329756 
z
" style="fill:none;"/>
   </g>
   <g id="patch_39">
    <path clip-path="url(#p0c1600626b)" d="M 5.654634 200.739512 
C 9.4037 200.739512 12.999719 199.249992 15.65071 196.599002 
C 18.3017 193.948012 19.79122 190.351993 19.79122 186.602927 
C 19.79122 182.853861 18.3017 179.257842 15.65071 176.606851 
C 12.999719 173.955861 9.4037 172.466341 5.654634 172.466341 
C 1.905568 172.466341 -1.690451 173.955861 -4.341441 176.606851 
C -6.992431 179.257842 -8.481951 182.853861 -8.481951 186.602927 
C -8.481951 190.351993 -6.992431 193.948012 -4.341441 196.599002 
C -1.690451 199.249992 1.905568 200.739512 5.654634 200.739512 
z
" style="fill:none;"/>
   </g>
   <g id="patch_40">
    <path clip-path="url(#p0c1600626b)" d="M 220.530732 31.100488 
C 224.279798 31.100488 227.875817 29.610968 230.526807 26.959978 
C 233.177797 24.308988 234.667317 20.712969 234.667317 16.963902 
C 234.667317 13.214836 233.177797 9.618817 230.526807 6.967827 
C 227.875817 4.316837 224.279798 2.827317 220.530732 2.827317 
C 216.781665 2.827317 213.185647 4.316837 210.534656 6.967827 
C 207.883666 9.618817 206.394146 13.214836 206.394146 16.963902 
C 206.394146 20.712969 207.883666 24.308988 210.534656 26.959978 
C 213.185647 29.610968 216.781665 31.100488 220.530732 31.100488 
z
" style="fill:none;"/>
   </g>
   <g id="patch_41">
    <path clip-path="url(#p0c1600626b)" d="M 220.530732 73.510244 
C 224.279798 73.510244 227.875817 72.020724 230.526807 69.369734 
C 233.177797 66.718744 234.667317 63.122725 234.667317 59.373659 
C 234.667317 55.624592 233.177797 52.028573 230.526807 49.377583 
C 227.875817 46.726593 224.279798 45.237073 220.530732 45.237073 
C 216.781665 45.237073 213.185647 46.726593 210.534656 49.377583 
C 207.883666 52.028573 206.394146 55.624592 206.394146 59.373659 
C 206.394146 63.122725 207.883666 66.718744 210.534656 69.369734 
C 213.185647 72.020724 216.781665 73.510244 220.530732 73.510244 
z
" style="fill:none;"/>
   </g>
   <g id="patch_42">
    <path clip-path="url(#p0c1600626b)" d="M 220.530732 115.92 
C 224.279798 115.92 227.875817 114.43048 230.526807 111.77949 
C 233.177797 109.1285 234.667317 105.532481 234.667317 101.783415 
C 234.667317 98.034348 233.177797 94.438329 230.526807 91.787339 
C 227.875817 89.136349 224.279798 87.646829 220.530732 87.646829 
C 216.781665 87.646829 213.185647 89.136349 210.534656 91.787339 
C 207.883666 94.438329 206.394146 98.034348 206.394146 101.783415 
C 206.394146 105.532481 207.883666 109.1285 210.534656 111.77949 
C 213.185647 114.43048 216.781665 115.92 220.530732 115.92 
z
" style="fill:none;"/>
   </g>
   <g id="patch_43">
    <path clip-path="url(#p0c1600626b)" d="M 220.530732 158.329756 
C 224.279798 158.329756 227.875817 156.840236 230.526807 154.189246 
C 233.177797 151.538256 234.667317 147.942237 234.667317 144.193171 
C 234.667317 140.444104 233.177797 136.848086 230.526807 134.197095 
C 227.875817 131.546105 224.279798 130.056585 220.530732 130.056585 
C 216.781665 130.056585 213.185647 131.546105 210.534656 134.197095 
C 207.883666 136.848086 206.394146 140.444104 206.394146 144.193171 
C 206.394146 147.942237 207.883666 151.538256 210.534656 154.189246 
C 213.185647 156.840236 216.781665 158.329756 220.530732 158.329756 
z
" style="fill:none;"/>
   </g>
   <g id="patch_44">
    <path clip-path="url(#p0c1600626b)" d="M 220.530732 200.739512 
C 224.279798 200.739512 227.875817 199.249992 230.526807 196.599002 
C 233.177797 193.948012 234.667317 190.351993 234.667317 186.602927 
C 234.667317 182.853861 233.177797 179.257842 230.526807 176.606851 
C 227.875817 173.955861 224.279798 172.466341 220.530732 172.466341 
C 216.781665 172.466341 213.185647 173.955861 210.534656 176.606851 
C 207.883666 179.257842 206.394146 182.853861 206.394146 186.602927 
C 206.394146 190.351993 207.883666 193.948012 210.534656 196.599002 
C 213.185647 199.249992 216.781665 200.739512 220.530732 200.739512 
z
" style="fill:none;"/>
   </g>
   <g id="patch_45">
    <path clip-path="url(#p0c1600626b)" d="M 28.273171 229.012683 
C 32.022237 229.012683 35.618256 227.523163 38.269246 224.872173 
C 40.920236 222.221183 42.409756 218.625164 42.409756 214.876098 
C 42.409756 211.127031 40.920236 207.531012 38.269246 204.880022 
C 35.618256 202.229032 32.022237 200.739512 28.273171 200.739512 
C 24.524104 200.739512 20.928086 202.229032 18.277095 204.880022 
C 15.626105 207.531012 14.136585 211.127031 14.136585 214.876098 
C 14.136585 218.625164 15.626105 222.221183 18.277095 224.872173 
C 20.928086 227.523163 24.524104 229.012683 28.273171 229.012683 
z
" style="fill:none;"/>
   </g>
   <g id="matplotlib.axis_1"/>
   <g id="matplotlib.axis_2"/>
   <g id="text_1">
    <!-- Σ -->
    <defs>
     <path d="M 21.140625 8.296875 
L 56.78125 8.296875 
L 56.78125 0 
L 9.8125 0 
L 9.8125 8.296875 
L 33.203125 38.765625 
L 9.8125 64.59375 
L 9.8125 72.90625 
L 55.90625 72.90625 
L 55.90625 64.59375 
L 21.140625 64.59375 
L 44.53125 38.96875 
z
" id="DejaVuSans-3a3"/>
    </defs>
    <g transform="translate(81.660137 104.54279)scale(0.1 -0.1)">
     <use xlink:href="#DejaVuSans-3a3"/>
    </g>
   </g>
   <g id="text_2">
    <!-- $f(Σ)$ -->
    <defs>
     <path d="M 47.796875 75.984375 
L 46.390625 68.5 
L 37.796875 68.5 
Q 32.90625 68.5 30.6875 66.578125 
Q 28.46875 64.65625 27.390625 59.515625 
L 26.421875 54.6875 
L 41.21875 54.6875 
L 39.890625 47.703125 
L 25.09375 47.703125 
L 15.828125 0 
L 6.78125 0 
L 16.109375 47.703125 
L 7.515625 47.703125 
L 8.796875 54.6875 
L 17.390625 54.6875 
L 18.109375 58.5 
Q 19.96875 68.171875 24.625 72.078125 
Q 29.296875 75.984375 39.3125 75.984375 
z
" id="DejaVuSans-Oblique-66"/>
     <path d="M 31 75.875 
Q 24.46875 64.65625 21.28125 53.65625 
Q 18.109375 42.671875 18.109375 31.390625 
Q 18.109375 20.125 21.3125 9.0625 
Q 24.515625 -2 31 -13.1875 
L 23.1875 -13.1875 
Q 15.875 -1.703125 12.234375 9.375 
Q 8.59375 20.453125 8.59375 31.390625 
Q 8.59375 42.28125 12.203125 53.3125 
Q 15.828125 64.359375 23.1875 75.875 
z
" id="DejaVuSans-28"/>
     <path d="M 8.015625 75.875 
L 15.828125 75.875 
Q 23.140625 64.359375 26.78125 53.3125 
Q 30.421875 42.28125 30.421875 31.390625 
Q 30.421875 20.453125 26.78125 9.375 
Q 23.140625 -1.703125 15.828125 -13.1875 
L 8.015625 -13.1875 
Q 14.5 -2 17.703125 9.0625 
Q 20.90625 20.125 20.90625 31.390625 
Q 20.90625 42.671875 17.703125 53.65625 
Q 14.5 64.65625 8.015625 75.875 
z
" id="DejaVuSans-29"/>
    </defs>
    <g transform="translate(132.515854 104.54279)scale(0.1 -0.1)">
     <use transform="translate(0 0.015625)" xlink:href="#DejaVuSans-Oblique-66"/>
     <use transform="translate(35.205078 0.015625)" xlink:href="#DejaVuSans-28"/>
     <use transform="translate(74.21875 0.015625)" xlink:href="#DejaVuSans-3a3"/>
     <use transform="translate(137.402344 0.015625)" xlink:href="#DejaVuSans-29"/>
    </g>
   </g>
   <g id="text_3">
    <!-- $b$ -->
    <defs>
     <path d="M 49.515625 33.40625 
Q 49.515625 40.484375 46.265625 44.484375 
Q 43.015625 48.484375 37.3125 48.484375 
Q 33.15625 48.484375 29.515625 46.453125 
Q 25.875 44.4375 23.1875 40.578125 
Q 20.359375 36.53125 18.71875 31.171875 
Q 17.09375 25.828125 17.09375 20.515625 
Q 17.09375 13.765625 20.28125 9.9375 
Q 23.484375 6.109375 29.109375 6.109375 
Q 33.34375 6.109375 36.953125 8.078125 
Q 40.578125 10.0625 43.3125 13.921875 
Q 46.09375 17.921875 47.796875 23.234375 
Q 49.515625 28.5625 49.515625 33.40625 
z
M 21.578125 46.390625 
Q 24.90625 50.875 29.90625 53.4375 
Q 34.90625 56 40.375 56 
Q 48.78125 56 53.734375 50.328125 
Q 58.6875 44.671875 58.6875 35.015625 
Q 58.6875 27.09375 55.78125 19.671875 
Q 52.875 12.25 47.515625 6.5 
Q 44 2.6875 39.40625 0.625 
Q 34.8125 -1.421875 29.78125 -1.421875 
Q 24.46875 -1.421875 20.5625 1.015625 
Q 16.65625 3.46875 14.203125 8.296875 
L 12.59375 0 
L 3.609375 0 
L 18.40625 75.984375 
L 27.390625 75.984375 
z
" id="DejaVuSans-Oblique-62"/>
    </defs>
    <g transform="translate(81.619512 189.362302)scale(0.1 -0.1)">
     <use transform="translate(0 0.015625)" xlink:href="#DejaVuSans-Oblique-62"/>
    </g>
   </g>
   <g id="text_4">
    <!-- 0 -->
    <defs>
     <path d="M 31.78125 66.40625 
Q 24.171875 66.40625 20.328125 58.90625 
Q 16.5 51.421875 16.5 36.375 
Q 16.5 21.390625 20.328125 13.890625 
Q 24.171875 6.390625 31.78125 6.390625 
Q 39.453125 6.390625 43.28125 13.890625 
Q 47.125 21.390625 47.125 36.375 
Q 47.125 51.421875 43.28125 58.90625 
Q 39.453125 66.40625 31.78125 66.40625 
z
M 31.78125 74.21875 
Q 44.046875 74.21875 50.515625 64.515625 
Q 56.984375 54.828125 56.984375 36.375 
Q 56.984375 17.96875 50.515625 8.265625 
Q 44.046875 -1.421875 31.78125 -1.421875 
Q 19.53125 -1.421875 13.0625 8.265625 
Q 6.59375 17.96875 6.59375 36.375 
Q 6.59375 54.828125 13.0625 64.515625 
Q 19.53125 74.21875 31.78125 74.21875 
z
" id="DejaVuSans-30"/>
    </defs>
    <g transform="translate(25.091921 19.723277)scale(0.1 -0.1)">
     <use xlink:href="#DejaVuSans-30"/>
    </g>
   </g>
   <g id="text_5">
    <!-- 1 -->
    <defs>
     <path d="M 12.40625 8.296875 
L 28.515625 8.296875 
L 28.515625 63.921875 
L 10.984375 60.40625 
L 10.984375 69.390625 
L 28.421875 72.90625 
L 38.28125 72.90625 
L 38.28125 8.296875 
L 54.390625 8.296875 
L 54.390625 0 
L 12.40625 0 
z
" id="DejaVuSans-31"/>
    </defs>
    <g transform="translate(25.091921 62.133034)scale(0.1 -0.1)">
     <use xlink:href="#DejaVuSans-31"/>
    </g>
   </g>
   <g id="text_6">
    <!-- 0 -->
    <g transform="translate(25.091921 104.54279)scale(0.1 -0.1)">
     <use xlink:href="#DejaVuSans-30"/>
    </g>
   </g>
   <g id="text_7">
    <!-- 0 -->
    <g transform="translate(25.091921 146.952546)scale(0.1 -0.1)">
     <use xlink:href="#DejaVuSans-30"/>
    </g>
   </g>
   <g id="text_8">
    <!-- 0 -->
    <g transform="translate(25.091921 189.362302)scale(0.1 -0.1)">
     <use xlink:href="#DejaVuSans-30"/>
    </g>
   </g>
   <g id="text_9">
    <!-- 1 -->
    <g transform="translate(194.730945 19.723277)scale(0.1 -0.1)">
     <use xlink:href="#DejaVuSans-31"/>
    </g>
   </g>
   <g id="text_10">
    <!-- 0 -->
    <g transform="translate(194.730945 62.133034)scale(0.1 -0.1)">
     <use xlink:href="#DejaVuSans-30"/>
    </g>
   </g>
   <g id="text_11">
    <!-- 0 -->
    <g transform="translate(194.730945 104.54279)scale(0.1 -0.1)">
     <use xlink:href="#DejaVuSans-30"/>
    </g>
   </g>
   <g id="text_12">
    <!-- 0 -->
    <g transform="translate(194.730945 146.952546)scale(0.1 -0.1)">
     <use xlink:href="#DejaVuSans-30"/>
    </g>
   </g>
   <g id="text_13">
    <!-- 0 -->
    <g transform="translate(194.730945 189.362302)scale(0.1 -0.1)">
     <use xlink:href="#DejaVuSans-30"/>
    </g>
   </g>
   <g id="text_14">
    <!-- $w_0$ -->
    <defs>
     <path d="M 8.5 54.6875 
L 17.390625 54.6875 
L 19.671875 10.6875 
L 40.09375 54.6875 
L 50.484375 54.6875 
L 53.515625 10.6875 
L 72.90625 54.6875 
L 81.890625 54.6875 
L 56.890625 0 
L 46.390625 0 
L 43.703125 45.3125 
L 22.796875 0 
L 12.203125 0 
z
" id="DejaVuSans-Oblique-77"/>
    </defs>
    <g transform="translate(51.131841 47.535633)scale(0.0833 -0.0833)">
     <use transform="translate(0 0.3125)" xlink:href="#DejaVuSans-Oblique-77"/>
     <use transform="translate(81.787109 -16.09375)scale(0.7)" xlink:href="#DejaVuSans-30"/>
    </g>
   </g>
   <g id="text_15">
    <!-- $w_1$ -->
    <g transform="translate(51.131841 74.395145)scale(0.0833 -0.0833)">
     <use transform="translate(0 0.3125)" xlink:href="#DejaVuSans-Oblique-77"/>
     <use transform="translate(81.787109 -16.09375)scale(0.7)" xlink:href="#DejaVuSans-31"/>
    </g>
   </g>
   <g id="text_16">
    <!-- $w_2$ -->
    <defs>
     <path d="M 19.1875 8.296875 
L 53.609375 8.296875 
L 53.609375 0 
L 7.328125 0 
L 7.328125 8.296875 
Q 12.9375 14.109375 22.625 23.890625 
Q 32.328125 33.6875 34.8125 36.53125 
Q 39.546875 41.84375 41.421875 45.53125 
Q 43.3125 49.21875 43.3125 52.78125 
Q 43.3125 58.59375 39.234375 62.25 
Q 35.15625 65.921875 28.609375 65.921875 
Q 23.96875 65.921875 18.8125 64.3125 
Q 13.671875 62.703125 7.8125 59.421875 
L 7.8125 69.390625 
Q 13.765625 71.78125 18.9375 73 
Q 24.125 74.21875 28.421875 74.21875 
Q 39.75 74.21875 46.484375 68.546875 
Q 53.21875 62.890625 53.21875 53.421875 
Q 53.21875 48.921875 51.53125 44.890625 
Q 49.859375 40.875 45.40625 35.40625 
Q 44.1875 33.984375 37.640625 27.21875 
Q 31.109375 20.453125 19.1875 8.296875 
z
" id="DejaVuSans-32"/>
    </defs>
    <g transform="translate(51.131841 98.42734)scale(0.0833 -0.0833)">
     <use transform="translate(0 0.3125)" xlink:href="#DejaVuSans-Oblique-77"/>
     <use transform="translate(81.787109 -16.09375)scale(0.7)" xlink:href="#DejaVuSans-32"/>
    </g>
   </g>
   <g id="text_17">
    <!-- $w_3$ -->
    <defs>
     <path d="M 40.578125 39.3125 
Q 47.65625 37.796875 51.625 33 
Q 55.609375 28.21875 55.609375 21.1875 
Q 55.609375 10.40625 48.1875 4.484375 
Q 40.765625 -1.421875 27.09375 -1.421875 
Q 22.515625 -1.421875 17.65625 -0.515625 
Q 12.796875 0.390625 7.625 2.203125 
L 7.625 11.71875 
Q 11.71875 9.328125 16.59375 8.109375 
Q 21.484375 6.890625 26.8125 6.890625 
Q 36.078125 6.890625 40.9375 10.546875 
Q 45.796875 14.203125 45.796875 21.1875 
Q 45.796875 27.640625 41.28125 31.265625 
Q 36.765625 34.90625 28.71875 34.90625 
L 20.21875 34.90625 
L 20.21875 43.015625 
L 29.109375 43.015625 
Q 36.375 43.015625 40.234375 45.921875 
Q 44.09375 48.828125 44.09375 54.296875 
Q 44.09375 59.90625 40.109375 62.90625 
Q 36.140625 65.921875 28.71875 65.921875 
Q 24.65625 65.921875 20.015625 65.03125 
Q 15.375 64.15625 9.8125 62.3125 
L 9.8125 71.09375 
Q 15.4375 72.65625 20.34375 73.4375 
Q 25.25 74.21875 29.59375 74.21875 
Q 40.828125 74.21875 47.359375 69.109375 
Q 53.90625 64.015625 53.90625 55.328125 
Q 53.90625 49.265625 50.4375 45.09375 
Q 46.96875 40.921875 40.578125 39.3125 
z
" id="DejaVuSans-33"/>
    </defs>
    <g transform="translate(51.131841 116.748354)scale(0.0833 -0.0833)">
     <use transform="translate(0 0.3125)" xlink:href="#DejaVuSans-Oblique-77"/>
     <use transform="translate(81.787109 -16.09375)scale(0.7)" xlink:href="#DejaVuSans-33"/>
    </g>
   </g>
   <g id="text_18">
    <!-- $w_4$ -->
    <defs>
     <path d="M 37.796875 64.3125 
L 12.890625 25.390625 
L 37.796875 25.390625 
z
M 35.203125 72.90625 
L 47.609375 72.90625 
L 47.609375 25.390625 
L 58.015625 25.390625 
L 58.015625 17.1875 
L 47.609375 17.1875 
L 47.609375 0 
L 37.796875 0 
L 37.796875 17.1875 
L 4.890625 17.1875 
L 4.890625 26.703125 
z
" id="DejaVuSans-34"/>
    </defs>
    <g transform="translate(51.131841 135.182462)scale(0.0833 -0.0833)">
     <use transform="translate(0 0.3125)" xlink:href="#DejaVuSans-Oblique-77"/>
     <use transform="translate(81.787109 -16.09375)scale(0.7)" xlink:href="#DejaVuSans-34"/>
    </g>
   </g>
   <g id="text_19">
    <!-- 1 -->
    <g transform="translate(93.478799 160.628315)scale(0.0833 -0.0833)">
     <use xlink:href="#DejaVuSans-31"/>
    </g>
   </g>
   <g id="text_20">
    <!-- a -->
    <defs>
     <path d="M 32.90625 24.609375 
Q 27.4375 24.609375 24.671875 22.75 
Q 21.921875 20.90625 21.921875 17.28125 
Q 21.921875 13.96875 24.140625 12.078125 
Q 26.375 10.203125 30.328125 10.203125 
Q 35.25 10.203125 38.625 13.734375 
Q 42 17.28125 42 22.609375 
L 42 24.609375 
z
M 59.625 31.203125 
L 59.625 0 
L 42 0 
L 42 8.109375 
Q 38.484375 3.125 34.078125 0.84375 
Q 29.6875 -1.421875 23.390625 -1.421875 
Q 14.890625 -1.421875 9.59375 3.53125 
Q 4.296875 8.5 4.296875 16.40625 
Q 4.296875 26.03125 10.90625 30.515625 
Q 17.53125 35.015625 31.6875 35.015625 
L 42 35.015625 
L 42 36.375 
Q 42 40.53125 38.71875 42.453125 
Q 35.453125 44.390625 28.515625 44.390625 
Q 22.90625 44.390625 18.0625 43.265625 
Q 13.234375 42.140625 9.078125 39.890625 
L 9.078125 53.21875 
Q 14.703125 54.59375 20.359375 55.296875 
Q 26.03125 56 31.6875 56 
Q 46.484375 56 53.046875 50.171875 
Q 59.625 44.34375 59.625 31.203125 
z
" id="DejaVuSans-Bold-61"/>
    </defs>
    <g style="fill:#0000ff;" transform="translate(2.280415 19.723277)scale(0.1 -0.1)">
     <use xlink:href="#DejaVuSans-Bold-61"/>
    </g>
   </g>
   <g id="text_21">
    <!-- b -->
    <defs>
     <path d="M 37.5 11.28125 
Q 43.109375 11.28125 46.0625 15.375 
Q 49.03125 19.484375 49.03125 27.296875 
Q 49.03125 35.109375 46.0625 39.203125 
Q 43.109375 43.3125 37.5 43.3125 
Q 31.890625 43.3125 28.875 39.1875 
Q 25.875 35.0625 25.875 27.296875 
Q 25.875 19.53125 28.875 15.40625 
Q 31.890625 11.28125 37.5 11.28125 
z
M 25.875 46.6875 
Q 29.5 51.46875 33.890625 53.734375 
Q 38.28125 56 44 56 
Q 54.109375 56 60.59375 47.96875 
Q 67.09375 39.9375 67.09375 27.296875 
Q 67.09375 14.65625 60.59375 6.609375 
Q 54.109375 -1.421875 44 -1.421875 
Q 38.28125 -1.421875 33.890625 0.84375 
Q 29.5 3.125 25.875 7.90625 
L 25.875 0 
L 8.40625 0 
L 8.40625 75.984375 
L 25.875 75.984375 
z
" id="DejaVuSans-Bold-62"/>
    </defs>
    <g style="fill:#ff0000;" transform="translate(2.075728 62.133034)scale(0.1 -0.1)">
     <use xlink:href="#DejaVuSans-Bold-62"/>
    </g>
   </g>
   <g id="text_22">
    <!-- c -->
    <defs>
     <path d="M 52.59375 52.984375 
L 52.59375 38.71875 
Q 49.03125 41.15625 45.4375 42.328125 
Q 41.84375 43.5 37.984375 43.5 
Q 30.671875 43.5 26.59375 39.234375 
Q 22.515625 34.96875 22.515625 27.296875 
Q 22.515625 19.625 26.59375 15.34375 
Q 30.671875 11.078125 37.984375 11.078125 
Q 42.09375 11.078125 45.78125 12.296875 
Q 49.46875 13.53125 52.59375 15.921875 
L 52.59375 1.609375 
Q 48.484375 0.09375 44.265625 -0.65625 
Q 40.046875 -1.421875 35.796875 -1.421875 
Q 21 -1.421875 12.640625 6.171875 
Q 4.296875 13.765625 4.296875 27.296875 
Q 4.296875 40.828125 12.640625 48.40625 
Q 21 56 35.796875 56 
Q 40.09375 56 44.265625 55.25 
Q 48.4375 54.5 52.59375 52.984375 
z
" id="DejaVuSans-Bold-63"/>
    </defs>
    <g style="fill:#0000ff;" transform="translate(2.690572 104.54279)scale(0.1 -0.1)">
     <use xlink:href="#DejaVuSans-Bold-63"/>
    </g>
   </g>
   <g id="text_23">
    <!-- d -->
    <defs>
     <path d="M 45.609375 46.6875 
L 45.609375 75.984375 
L 63.1875 75.984375 
L 63.1875 0 
L 45.609375 0 
L 45.609375 7.90625 
Q 42 3.078125 37.640625 0.828125 
Q 33.296875 -1.421875 27.59375 -1.421875 
Q 17.484375 -1.421875 10.984375 6.609375 
Q 4.5 14.65625 4.5 27.296875 
Q 4.5 39.9375 10.984375 47.96875 
Q 17.484375 56 27.59375 56 
Q 33.25 56 37.625 53.734375 
Q 42 51.46875 45.609375 46.6875 
z
M 34.078125 11.28125 
Q 39.703125 11.28125 42.65625 15.375 
Q 45.609375 19.484375 45.609375 27.296875 
Q 45.609375 35.109375 42.65625 39.203125 
Q 39.703125 43.3125 34.078125 43.3125 
Q 28.515625 43.3125 25.5625 39.203125 
Q 22.609375 35.109375 22.609375 27.296875 
Q 22.609375 19.484375 25.5625 15.375 
Q 28.515625 11.28125 34.078125 11.28125 
z
" id="DejaVuSans-Bold-64"/>
    </defs>
    <g style="fill:#0000ff;" transform="translate(2.075728 146.952546)scale(0.1 -0.1)">
     <use xlink:href="#DejaVuSans-Bold-64"/>
    </g>
   </g>
   <g id="text_24">
    <!-- e -->
    <defs>
     <path d="M 62.984375 27.484375 
L 62.984375 22.515625 
L 22.125 22.515625 
Q 22.75 16.359375 26.5625 13.28125 
Q 30.375 10.203125 37.203125 10.203125 
Q 42.71875 10.203125 48.5 11.84375 
Q 54.296875 13.484375 60.40625 16.796875 
L 60.40625 3.328125 
Q 54.203125 0.984375 48 -0.21875 
Q 41.796875 -1.421875 35.59375 -1.421875 
Q 20.75 -1.421875 12.515625 6.125 
Q 4.296875 13.671875 4.296875 27.296875 
Q 4.296875 40.671875 12.375 48.328125 
Q 20.453125 56 34.625 56 
Q 47.515625 56 55.25 48.234375 
Q 62.984375 40.484375 62.984375 27.484375 
z
M 45.015625 33.296875 
Q 45.015625 38.28125 42.109375 41.328125 
Q 39.203125 44.390625 34.515625 44.390625 
Q 29.4375 44.390625 26.265625 41.53125 
Q 23.09375 38.671875 22.3125 33.296875 
z
" id="DejaVuSans-Bold-65"/>
    </defs>
    <g style="fill:#0000ff;" transform="translate(2.263228 189.362302)scale(0.1 -0.1)">
     <use xlink:href="#DejaVuSans-Bold-65"/>
    </g>
   </g>
   <g id="text_25">
    <!-- a -->
    <g style="fill:#ff0000;" transform="translate(217.156513 19.723277)scale(0.1 -0.1)">
     <use xlink:href="#DejaVuSans-Bold-61"/>
    </g>
   </g>
   <g id="text_26">
    <!-- b -->
    <g style="fill:#0000ff;" transform="translate(216.951825 62.133034)scale(0.1 -0.1)">
     <use xlink:href="#DejaVuSans-Bold-62"/>
    </g>
   </g>
   <g id="text_27">
    <!-- c -->
    <g style="fill:#0000ff;" transform="translate(217.566669 104.54279)scale(0.1 -0.1)">
     <use xlink:href="#DejaVuSans-Bold-63"/>
    </g>
   </g>
   <g id="text_28">
    <!-- d -->
    <g style="fill:#0000ff;" transform="translate(216.951825 146.952546)scale(0.1 -0.1)">
     <use xlink:href="#DejaVuSans-Bold-64"/>
    </g>
   </g>
   <g id="text_29">
    <!-- e -->
    <g style="fill:#0000ff;" transform="translate(217.139325 189.362302)scale(0.1 -0.1)">
     <use xlink:href="#DejaVuSans-Bold-65"/>
    </g>
   </g>
   <g id="text_30">
    <!-- ...etc. -->
    <defs>
     <path d="M 10.203125 18.890625 
L 27.78125 18.890625 
L 27.78125 0 
L 10.203125 0 
z
" id="DejaVuSans-Bold-2e"/>
     <path d="M 27.484375 70.21875 
L 27.484375 54.6875 
L 45.515625 54.6875 
L 45.515625 42.1875 
L 27.484375 42.1875 
L 27.484375 19 
Q 27.484375 15.1875 29 13.84375 
Q 30.515625 12.5 35.015625 12.5 
L 44 12.5 
L 44 0 
L 29 0 
Q 18.65625 0 14.328125 4.3125 
Q 10.015625 8.640625 10.015625 19 
L 10.015625 42.1875 
L 1.3125 42.1875 
L 1.3125 54.6875 
L 10.015625 54.6875 
L 10.015625 70.21875 
z
" id="DejaVuSans-Bold-74"/>
    </defs>
    <g transform="translate(14.660129 217.174657)scale(0.0833 -0.0833)">
     <use xlink:href="#DejaVuSans-Bold-2e"/>
     <use x="37.988281" xlink:href="#DejaVuSans-Bold-2e"/>
     <use x="75.976562" xlink:href="#DejaVuSans-Bold-2e"/>
     <use x="113.964844" xlink:href="#DejaVuSans-Bold-65"/>
     <use x="181.787109" xlink:href="#DejaVuSans-Bold-74"/>
     <use x="229.589844" xlink:href="#DejaVuSans-Bold-63"/>
     <use x="288.867188" xlink:href="#DejaVuSans-Bold-2e"/>
    </g>
   </g>
  </g>
 </g>
 <defs>
  <clipPath id="p0c1600626b">
   <rect height="231.84" width="231.84" x="0" y="0"/>
  </clipPath>
 </defs>
</svg>
