<?xml version="1.0" encoding="utf-8" standalone="no"?>
<!DOCTYPE svg PUBLIC "-//W3C//DTD SVG 1.1//EN"
  "http://www.w3.org/Graphics/SVG/1.1/DTD/svg11.dtd">
<!-- Created with matplotlib (http://matplotlib.org/) -->
<svg height="231pt" version="1.1" viewBox="0 0 322 231" width="322pt" xmlns="http://www.w3.org/2000/svg" xmlns:xlink="http://www.w3.org/1999/xlink">
 <defs>
  <style type="text/css">
*{stroke-linecap:butt;stroke-linejoin:round;}
  </style>
 </defs>
 <g id="figure_1">
  <g id="patch_1">
   <path d="M 0 231.84 
L 322.56 231.84 
L 322.56 0 
L 0 0 
z
" style="fill:#ffffff;"/>
  </g>
  <g id="axes_1">
   <g id="patch_2">
    <path clip-path="url(#p6589085bb9)" d="M 84.884211 115.92 
L 86.298947 122.988293 
L 84.884211 122.988293 
L 84.884211 172.466341 
L 84.884211 172.466341 
L 84.884211 122.988293 
L 83.469474 122.988293 
z
" style="stroke:#000000;stroke-linejoin:miter;"/>
   </g>
   <g id="patch_3">
    <path clip-path="url(#p6589085bb9)" d="M 127.326316 101.783415 
L 120.252632 103.197073 
L 120.252632 101.783415 
L 99.031579 101.783415 
L 99.031579 101.783415 
L 120.252632 101.783415 
L 120.252632 100.369756 
z
" style="stroke:#000000;stroke-linejoin:miter;"/>
   </g>
   <g id="patch_4">
    <path clip-path="url(#p6589085bb9)" d="M 77.036662 90.021065 
L 71.935756 84.924046 
L 73.112888 84.13989 
L 36.142285 28.726252 
L 36.142285 28.726252 
L 73.112888 84.13989 
L 74.290021 83.355733 
z
" style="stroke:#000000;stroke-linejoin:miter;"/>
   </g>
   <g id="patch_5">
    <path clip-path="url(#p6589085bb9)" d="M 73.566316 93.301463 
L 67.058526 90.191415 
L 67.907368 89.060488 
L 39.612632 67.85561 
L 39.612632 67.85561 
L 67.907368 89.060488 
L 68.756211 87.929561 
z
" style="stroke:#000000;stroke-linejoin:miter;"/>
   </g>
   <g id="patch_6">
    <path clip-path="url(#p6589085bb9)" d="M 70.736842 101.783415 
L 63.663158 103.197073 
L 63.663158 101.783415 
L 42.442105 101.783415 
L 42.442105 101.783415 
L 63.663158 101.783415 
L 63.663158 100.369756 
z
" style="stroke:#000000;stroke-linejoin:miter;"/>
   </g>
   <g id="patch_7">
    <path clip-path="url(#p6589085bb9)" d="M 73.566316 110.265366 
L 68.756211 115.637268 
L 67.907368 114.506341 
L 39.612632 135.71122 
L 39.612632 135.71122 
L 67.907368 114.506341 
L 67.058526 113.375415 
z
" style="stroke:#000000;stroke-linejoin:miter;"/>
   </g>
   <g id="patch_8">
    <path clip-path="url(#p6589085bb9)" d="M 77.036662 113.545765 
L 74.290021 120.211096 
L 73.112888 119.42694 
L 36.142285 174.840577 
L 36.142285 174.840577 
L 73.112888 119.42694 
L 71.935756 118.642783 
z
" style="stroke:#000000;stroke-linejoin:miter;"/>
   </g>
   <g id="patch_9">
    <path clip-path="url(#p6589085bb9)" d="M 190.21561 28.726252 
L 187.468968 35.391584 
L 186.291836 34.607427 
L 149.321232 90.021065 
L 149.321232 90.021065 
L 186.291836 34.607427 
L 185.114704 33.823271 
z
" style="stroke:#000000;stroke-linejoin:miter;"/>
   </g>
   <g id="patch_10">
    <path clip-path="url(#p6589085bb9)" d="M 186.745263 67.85561 
L 181.935158 73.227512 
L 181.086316 72.096585 
L 152.791579 93.301463 
L 152.791579 93.301463 
L 181.086316 72.096585 
L 180.237474 70.965659 
z
" style="stroke:#000000;stroke-linejoin:miter;"/>
   </g>
   <g id="patch_11">
    <path clip-path="url(#p6589085bb9)" d="M 183.915789 101.783415 
L 176.842105 103.197073 
L 176.842105 101.783415 
L 155.621053 101.783415 
L 155.621053 101.783415 
L 176.842105 101.783415 
L 176.842105 100.369756 
z
" style="stroke:#000000;stroke-linejoin:miter;"/>
   </g>
   <g id="patch_12">
    <path clip-path="url(#p6589085bb9)" d="M 186.745263 135.71122 
L 180.237474 132.601171 
L 181.086316 131.470244 
L 152.791579 110.265366 
L 152.791579 110.265366 
L 181.086316 131.470244 
L 181.935158 130.339317 
z
" style="stroke:#000000;stroke-linejoin:miter;"/>
   </g>
   <g id="patch_13">
    <path clip-path="url(#p6589085bb9)" d="M 190.21561 174.840577 
L 185.114704 169.743558 
L 186.291836 168.959402 
L 149.321232 113.545765 
L 149.321232 113.545765 
L 186.291836 168.959402 
L 187.468968 168.175245 
z
" style="stroke:#000000;stroke-linejoin:miter;"/>
   </g>
   <g id="patch_14">
    <path clip-path="url(#p6589085bb9)" d="M 84.884211 115.92 
C 88.636136 115.92 92.234898 114.43048 94.887911 111.77949 
C 97.540923 109.1285 99.031579 105.532481 99.031579 101.783415 
C 99.031579 98.034348 97.540923 94.438329 94.887911 91.787339 
C 92.234898 89.136349 88.636136 87.646829 84.884211 87.646829 
C 81.132285 87.646829 77.533523 89.136349 74.88051 91.787339 
C 72.227498 94.438329 70.736842 98.034348 70.736842 101.783415 
C 70.736842 105.532481 72.227498 109.1285 74.88051 111.77949 
C 77.533523 114.43048 81.132285 115.92 84.884211 115.92 
z
" style="fill:#b2b2b2;stroke:#000000;stroke-linejoin:miter;"/>
   </g>
   <g id="patch_15">
    <path clip-path="url(#p6589085bb9)" d="M 84.884211 115.92 
C 88.636136 115.92 92.234898 114.43048 94.887911 111.77949 
C 97.540923 109.1285 99.031579 105.532481 99.031579 101.783415 
C 99.031579 98.034348 97.540923 94.438329 94.887911 91.787339 
C 92.234898 89.136349 88.636136 87.646829 84.884211 87.646829 
C 81.132285 87.646829 77.533523 89.136349 74.88051 91.787339 
C 72.227498 94.438329 70.736842 98.034348 70.736842 101.783415 
C 70.736842 105.532481 72.227498 109.1285 74.88051 111.77949 
C 77.533523 114.43048 81.132285 115.92 84.884211 115.92 
z
" style="fill:none;stroke:#000000;stroke-linejoin:miter;"/>
   </g>
   <g id="patch_16">
    <path clip-path="url(#p6589085bb9)" d="M 141.473684 115.92 
C 145.22561 115.92 148.824372 114.43048 151.477384 111.77949 
C 154.130397 109.1285 155.621053 105.532481 155.621053 101.783415 
C 155.621053 98.034348 154.130397 94.438329 151.477384 91.787339 
C 148.824372 89.136349 145.22561 87.646829 141.473684 87.646829 
C 137.721758 87.646829 134.122996 89.136349 131.469984 91.787339 
C 128.816972 94.438329 127.326316 98.034348 127.326316 101.783415 
C 127.326316 105.532481 128.816972 109.1285 131.469984 111.77949 
C 134.122996 114.43048 137.721758 115.92 141.473684 115.92 
z
" style="fill:#b2b2b2;stroke:#000000;stroke-linejoin:miter;"/>
   </g>
   <g id="patch_17">
    <path clip-path="url(#p6589085bb9)" d="M 141.473684 115.92 
C 145.22561 115.92 148.824372 114.43048 151.477384 111.77949 
C 154.130397 109.1285 155.621053 105.532481 155.621053 101.783415 
C 155.621053 98.034348 154.130397 94.438329 151.477384 91.787339 
C 148.824372 89.136349 145.22561 87.646829 141.473684 87.646829 
C 137.721758 87.646829 134.122996 89.136349 131.469984 91.787339 
C 128.816972 94.438329 127.326316 98.034348 127.326316 101.783415 
C 127.326316 105.532481 128.816972 109.1285 131.469984 111.77949 
C 134.122996 114.43048 137.721758 115.92 141.473684 115.92 
z
" style="fill:none;stroke:#000000;stroke-linejoin:miter;"/>
   </g>
   <g id="patch_18">
    <path clip-path="url(#p6589085bb9)" d="M 84.884211 200.739512 
C 88.636136 200.739512 92.234898 199.249992 94.887911 196.599002 
C 97.540923 193.948012 99.031579 190.351993 99.031579 186.602927 
C 99.031579 182.853861 97.540923 179.257842 94.887911 176.606851 
C 92.234898 173.955861 88.636136 172.466341 84.884211 172.466341 
C 81.132285 172.466341 77.533523 173.955861 74.88051 176.606851 
C 72.227498 179.257842 70.736842 182.853861 70.736842 186.602927 
C 70.736842 190.351993 72.227498 193.948012 74.88051 196.599002 
C 77.533523 199.249992 81.132285 200.739512 84.884211 200.739512 
z
" style="fill:none;stroke:#000000;stroke-linejoin:miter;"/>
   </g>
   <g id="patch_19">
    <path clip-path="url(#p6589085bb9)" d="M 277.288421 115.92 
C 281.040347 115.92 284.639109 114.43048 287.292121 111.77949 
C 289.945133 109.1285 291.435789 105.532481 291.435789 101.783415 
C 291.435789 98.034348 289.945133 94.438329 287.292121 91.787339 
C 284.639109 89.136349 281.040347 87.646829 277.288421 87.646829 
C 273.536495 87.646829 269.937733 89.136349 267.284721 91.787339 
C 264.631709 94.438329 263.141053 98.034348 263.141053 101.783415 
C 263.141053 105.532481 264.631709 109.1285 267.284721 111.77949 
C 269.937733 114.43048 273.536495 115.92 277.288421 115.92 
z
" style="fill:none;"/>
   </g>
   <g id="patch_20">
    <path clip-path="url(#p6589085bb9)" d="M 28.294737 31.100488 
C 32.046663 31.100488 35.645425 29.610968 38.298437 26.959978 
C 40.951449 24.308988 42.442105 20.712969 42.442105 16.963902 
C 42.442105 13.214836 40.951449 9.618817 38.298437 6.967827 
C 35.645425 4.316837 32.046663 2.827317 28.294737 2.827317 
C 24.542811 2.827317 20.944049 4.316837 18.291037 6.967827 
C 15.638024 9.618817 14.147368 13.214836 14.147368 16.963902 
C 14.147368 20.712969 15.638024 24.308988 18.291037 26.959978 
C 20.944049 29.610968 24.542811 31.100488 28.294737 31.100488 
z
" style="fill:none;stroke:#000000;stroke-linejoin:miter;"/>
   </g>
   <g id="patch_21">
    <path clip-path="url(#p6589085bb9)" d="M 28.294737 73.510244 
C 32.046663 73.510244 35.645425 72.020724 38.298437 69.369734 
C 40.951449 66.718744 42.442105 63.122725 42.442105 59.373659 
C 42.442105 55.624592 40.951449 52.028573 38.298437 49.377583 
C 35.645425 46.726593 32.046663 45.237073 28.294737 45.237073 
C 24.542811 45.237073 20.944049 46.726593 18.291037 49.377583 
C 15.638024 52.028573 14.147368 55.624592 14.147368 59.373659 
C 14.147368 63.122725 15.638024 66.718744 18.291037 69.369734 
C 20.944049 72.020724 24.542811 73.510244 28.294737 73.510244 
z
" style="fill:none;stroke:#000000;stroke-linejoin:miter;"/>
   </g>
   <g id="patch_22">
    <path clip-path="url(#p6589085bb9)" d="M 28.294737 115.92 
C 32.046663 115.92 35.645425 114.43048 38.298437 111.77949 
C 40.951449 109.1285 42.442105 105.532481 42.442105 101.783415 
C 42.442105 98.034348 40.951449 94.438329 38.298437 91.787339 
C 35.645425 89.136349 32.046663 87.646829 28.294737 87.646829 
C 24.542811 87.646829 20.944049 89.136349 18.291037 91.787339 
C 15.638024 94.438329 14.147368 98.034348 14.147368 101.783415 
C 14.147368 105.532481 15.638024 109.1285 18.291037 111.77949 
C 20.944049 114.43048 24.542811 115.92 28.294737 115.92 
z
" style="fill:none;stroke:#000000;stroke-linejoin:miter;"/>
   </g>
   <g id="patch_23">
    <path clip-path="url(#p6589085bb9)" d="M 28.294737 158.329756 
C 32.046663 158.329756 35.645425 156.840236 38.298437 154.189246 
C 40.951449 151.538256 42.442105 147.942237 42.442105 144.193171 
C 42.442105 140.444104 40.951449 136.848086 38.298437 134.197095 
C 35.645425 131.546105 32.046663 130.056585 28.294737 130.056585 
C 24.542811 130.056585 20.944049 131.546105 18.291037 134.197095 
C 15.638024 136.848086 14.147368 140.444104 14.147368 144.193171 
C 14.147368 147.942237 15.638024 151.538256 18.291037 154.189246 
C 20.944049 156.840236 24.542811 158.329756 28.294737 158.329756 
z
" style="fill:none;stroke:#000000;stroke-linejoin:miter;"/>
   </g>
   <g id="patch_24">
    <path clip-path="url(#p6589085bb9)" d="M 28.294737 200.739512 
C 32.046663 200.739512 35.645425 199.249992 38.298437 196.599002 
C 40.951449 193.948012 42.442105 190.351993 42.442105 186.602927 
C 42.442105 182.853861 40.951449 179.257842 38.298437 176.606851 
C 35.645425 173.955861 32.046663 172.466341 28.294737 172.466341 
C 24.542811 172.466341 20.944049 173.955861 18.291037 176.606851 
C 15.638024 179.257842 14.147368 182.853861 14.147368 186.602927 
C 14.147368 190.351993 15.638024 193.948012 18.291037 196.599002 
C 20.944049 199.249992 24.542811 200.739512 28.294737 200.739512 
z
" style="fill:none;stroke:#000000;stroke-linejoin:miter;"/>
   </g>
   <g id="patch_25">
    <path clip-path="url(#p6589085bb9)" d="M 198.063158 31.100488 
C 201.815084 31.100488 205.413846 29.610968 208.066858 26.959978 
C 210.71987 24.308988 212.210526 20.712969 212.210526 16.963902 
C 212.210526 13.214836 210.71987 9.618817 208.066858 6.967827 
C 205.413846 4.316837 201.815084 2.827317 198.063158 2.827317 
C 194.311232 2.827317 190.71247 4.316837 188.059458 6.967827 
C 185.406445 9.618817 183.915789 13.214836 183.915789 16.963902 
C 183.915789 20.712969 185.406445 24.308988 188.059458 26.959978 
C 190.71247 29.610968 194.311232 31.100488 198.063158 31.100488 
z
" style="fill:none;stroke:#000000;stroke-linejoin:miter;"/>
   </g>
   <g id="patch_26">
    <path clip-path="url(#p6589085bb9)" d="M 198.063158 73.510244 
C 201.815084 73.510244 205.413846 72.020724 208.066858 69.369734 
C 210.71987 66.718744 212.210526 63.122725 212.210526 59.373659 
C 212.210526 55.624592 210.71987 52.028573 208.066858 49.377583 
C 205.413846 46.726593 201.815084 45.237073 198.063158 45.237073 
C 194.311232 45.237073 190.71247 46.726593 188.059458 49.377583 
C 185.406445 52.028573 183.915789 55.624592 183.915789 59.373659 
C 183.915789 63.122725 185.406445 66.718744 188.059458 69.369734 
C 190.71247 72.020724 194.311232 73.510244 198.063158 73.510244 
z
" style="fill:none;stroke:#000000;stroke-linejoin:miter;"/>
   </g>
   <g id="patch_27">
    <path clip-path="url(#p6589085bb9)" d="M 198.063158 115.92 
C 201.815084 115.92 205.413846 114.43048 208.066858 111.77949 
C 210.71987 109.1285 212.210526 105.532481 212.210526 101.783415 
C 212.210526 98.034348 210.71987 94.438329 208.066858 91.787339 
C 205.413846 89.136349 201.815084 87.646829 198.063158 87.646829 
C 194.311232 87.646829 190.71247 89.136349 188.059458 91.787339 
C 185.406445 94.438329 183.915789 98.034348 183.915789 101.783415 
C 183.915789 105.532481 185.406445 109.1285 188.059458 111.77949 
C 190.71247 114.43048 194.311232 115.92 198.063158 115.92 
z
" style="fill:none;stroke:#000000;stroke-linejoin:miter;"/>
   </g>
   <g id="patch_28">
    <path clip-path="url(#p6589085bb9)" d="M 198.063158 158.329756 
C 201.815084 158.329756 205.413846 156.840236 208.066858 154.189246 
C 210.71987 151.538256 212.210526 147.942237 212.210526 144.193171 
C 212.210526 140.444104 210.71987 136.848086 208.066858 134.197095 
C 205.413846 131.546105 201.815084 130.056585 198.063158 130.056585 
C 194.311232 130.056585 190.71247 131.546105 188.059458 134.197095 
C 185.406445 136.848086 183.915789 140.444104 183.915789 144.193171 
C 183.915789 147.942237 185.406445 151.538256 188.059458 154.189246 
C 190.71247 156.840236 194.311232 158.329756 198.063158 158.329756 
z
" style="fill:none;stroke:#000000;stroke-linejoin:miter;"/>
   </g>
   <g id="patch_29">
    <path clip-path="url(#p6589085bb9)" d="M 198.063158 200.739512 
C 201.815084 200.739512 205.413846 199.249992 208.066858 196.599002 
C 210.71987 193.948012 212.210526 190.351993 212.210526 186.602927 
C 212.210526 182.853861 210.71987 179.257842 208.066858 176.606851 
C 205.413846 173.955861 201.815084 172.466341 198.063158 172.466341 
C 194.311232 172.466341 190.71247 173.955861 188.059458 176.606851 
C 185.406445 179.257842 183.915789 182.853861 183.915789 186.602927 
C 183.915789 190.351993 185.406445 193.948012 188.059458 196.599002 
C 190.71247 199.249992 194.311232 200.739512 198.063158 200.739512 
z
" style="fill:none;stroke:#000000;stroke-linejoin:miter;"/>
   </g>
   <g id="patch_30">
    <path clip-path="url(#p6589085bb9)" d="M 56.589474 59.373659 
C 60.3414 59.373659 63.940162 57.884139 66.593174 55.233149 
C 69.246186 52.582158 70.736842 48.986139 70.736842 45.237073 
C 70.736842 41.488007 69.246186 37.891988 66.593174 35.240998 
C 63.940162 32.590008 60.3414 31.100488 56.589474 31.100488 
C 52.837548 31.100488 49.238786 32.590008 46.585774 35.240998 
C 43.932761 37.891988 42.442105 41.488007 42.442105 45.237073 
C 42.442105 48.986139 43.932761 52.582158 46.585774 55.233149 
C 49.238786 57.884139 52.837548 59.373659 56.589474 59.373659 
z
" style="fill:none;"/>
   </g>
   <g id="patch_31">
    <path clip-path="url(#p6589085bb9)" d="M 56.589474 86.233171 
C 60.3414 86.233171 63.940162 84.743651 66.593174 82.092661 
C 69.246186 79.441671 70.736842 75.845652 70.736842 72.096585 
C 70.736842 68.347519 69.246186 64.7515 66.593174 62.10051 
C 63.940162 59.44952 60.3414 57.96 56.589474 57.96 
C 52.837548 57.96 49.238786 59.44952 46.585774 62.10051 
C 43.932761 64.7515 42.442105 68.347519 42.442105 72.096585 
C 42.442105 75.845652 43.932761 79.441671 46.585774 82.092661 
C 49.238786 84.743651 52.837548 86.233171 56.589474 86.233171 
z
" style="fill:none;"/>
   </g>
   <g id="patch_32">
    <path clip-path="url(#p6589085bb9)" d="M 56.589474 110.265366 
C 60.3414 110.265366 63.940162 108.775846 66.593174 106.124856 
C 69.246186 103.473866 70.736842 99.877847 70.736842 96.12878 
C 70.736842 92.379714 69.246186 88.783695 66.593174 86.132705 
C 63.940162 83.481715 60.3414 81.992195 56.589474 81.992195 
C 52.837548 81.992195 49.238786 83.481715 46.585774 86.132705 
C 43.932761 88.783695 42.442105 92.379714 42.442105 96.12878 
C 42.442105 99.877847 43.932761 103.473866 46.585774 106.124856 
C 49.238786 108.775846 52.837548 110.265366 56.589474 110.265366 
z
" style="fill:none;"/>
   </g>
   <g id="patch_33">
    <path clip-path="url(#p6589085bb9)" d="M 56.589474 128.58638 
C 60.3414 128.58638 63.940162 127.096861 66.593174 124.44587 
C 69.246186 121.79488 70.736842 118.198861 70.736842 114.449795 
C 70.736842 110.700729 69.246186 107.10471 66.593174 104.45372 
C 63.940162 101.80273 60.3414 100.31321 56.589474 100.31321 
C 52.837548 100.31321 49.238786 101.80273 46.585774 104.45372 
C 43.932761 107.10471 42.442105 110.700729 42.442105 114.449795 
C 42.442105 118.198861 43.932761 121.79488 46.585774 124.44587 
C 49.238786 127.096861 52.837548 128.58638 56.589474 128.58638 
z
" style="fill:none;"/>
   </g>
   <g id="patch_34">
    <path clip-path="url(#p6589085bb9)" d="M 56.589474 147.020488 
C 60.3414 147.020488 63.940162 145.530968 66.593174 142.879978 
C 69.246186 140.228988 70.736842 136.632969 70.736842 132.883902 
C 70.736842 129.134836 69.246186 125.538817 66.593174 122.887827 
C 63.940162 120.236837 60.3414 118.747317 56.589474 118.747317 
C 52.837548 118.747317 49.238786 120.236837 46.585774 122.887827 
C 43.932761 125.538817 42.442105 129.134836 42.442105 132.883902 
C 42.442105 136.632969 43.932761 140.228988 46.585774 142.879978 
C 49.238786 145.530968 52.837548 147.020488 56.589474 147.020488 
z
" style="fill:none;"/>
   </g>
   <g id="patch_35">
    <path clip-path="url(#p6589085bb9)" d="M 96.202105 172.466341 
C 99.954031 172.466341 103.552793 170.976822 106.205805 168.325831 
C 108.858818 165.674841 110.349474 162.078822 110.349474 158.329756 
C 110.349474 154.58069 108.858818 150.984671 106.205805 148.333681 
C 103.552793 145.682691 99.954031 144.193171 96.202105 144.193171 
C 92.450179 144.193171 88.851417 145.682691 86.198405 148.333681 
C 83.545393 150.984671 82.054737 154.58069 82.054737 158.329756 
C 82.054737 162.078822 83.545393 165.674841 86.198405 168.325831 
C 88.851417 170.976822 92.450179 172.466341 96.202105 172.466341 
z
" style="fill:none;"/>
   </g>
   <g id="patch_36">
    <path clip-path="url(#p6589085bb9)" d="M 5.658947 31.100488 
C 9.410873 31.100488 13.009635 29.610968 15.662648 26.959978 
C 18.31566 24.308988 19.806316 20.712969 19.806316 16.963902 
C 19.806316 13.214836 18.31566 9.618817 15.662648 6.967827 
C 13.009635 4.316837 9.410873 2.827317 5.658947 2.827317 
C 1.907021 2.827317 -1.69174 4.316837 -4.344753 6.967827 
C -6.997765 9.618817 -8.488421 13.214836 -8.488421 16.963902 
C -8.488421 20.712969 -6.997765 24.308988 -4.344753 26.959978 
C -1.69174 29.610968 1.907021 31.100488 5.658947 31.100488 
z
" style="fill:none;"/>
   </g>
   <g id="patch_37">
    <path clip-path="url(#p6589085bb9)" d="M 5.658947 73.510244 
C 9.410873 73.510244 13.009635 72.020724 15.662648 69.369734 
C 18.31566 66.718744 19.806316 63.122725 19.806316 59.373659 
C 19.806316 55.624592 18.31566 52.028573 15.662648 49.377583 
C 13.009635 46.726593 9.410873 45.237073 5.658947 45.237073 
C 1.907021 45.237073 -1.69174 46.726593 -4.344753 49.377583 
C -6.997765 52.028573 -8.488421 55.624592 -8.488421 59.373659 
C -8.488421 63.122725 -6.997765 66.718744 -4.344753 69.369734 
C -1.69174 72.020724 1.907021 73.510244 5.658947 73.510244 
z
" style="fill:none;"/>
   </g>
   <g id="patch_38">
    <path clip-path="url(#p6589085bb9)" d="M 5.658947 115.92 
C 9.410873 115.92 13.009635 114.43048 15.662648 111.77949 
C 18.31566 109.1285 19.806316 105.532481 19.806316 101.783415 
C 19.806316 98.034348 18.31566 94.438329 15.662648 91.787339 
C 13.009635 89.136349 9.410873 87.646829 5.658947 87.646829 
C 1.907021 87.646829 -1.69174 89.136349 -4.344753 91.787339 
C -6.997765 94.438329 -8.488421 98.034348 -8.488421 101.783415 
C -8.488421 105.532481 -6.997765 109.1285 -4.344753 111.77949 
C -1.69174 114.43048 1.907021 115.92 5.658947 115.92 
z
" style="fill:none;"/>
   </g>
   <g id="patch_39">
    <path clip-path="url(#p6589085bb9)" d="M 5.658947 158.329756 
C 9.410873 158.329756 13.009635 156.840236 15.662648 154.189246 
C 18.31566 151.538256 19.806316 147.942237 19.806316 144.193171 
C 19.806316 140.444104 18.31566 136.848086 15.662648 134.197095 
C 13.009635 131.546105 9.410873 130.056585 5.658947 130.056585 
C 1.907021 130.056585 -1.69174 131.546105 -4.344753 134.197095 
C -6.997765 136.848086 -8.488421 140.444104 -8.488421 144.193171 
C -8.488421 147.942237 -6.997765 151.538256 -4.344753 154.189246 
C -1.69174 156.840236 1.907021 158.329756 5.658947 158.329756 
z
" style="fill:none;"/>
   </g>
   <g id="patch_40">
    <path clip-path="url(#p6589085bb9)" d="M 5.658947 200.739512 
C 9.410873 200.739512 13.009635 199.249992 15.662648 196.599002 
C 18.31566 193.948012 19.806316 190.351993 19.806316 186.602927 
C 19.806316 182.853861 18.31566 179.257842 15.662648 176.606851 
C 13.009635 173.955861 9.410873 172.466341 5.658947 172.466341 
C 1.907021 172.466341 -1.69174 173.955861 -4.344753 176.606851 
C -6.997765 179.257842 -8.488421 182.853861 -8.488421 186.602927 
C -8.488421 190.351993 -6.997765 193.948012 -4.344753 196.599002 
C -1.69174 199.249992 1.907021 200.739512 5.658947 200.739512 
z
" style="fill:none;"/>
   </g>
   <g id="patch_41">
    <path clip-path="url(#p6589085bb9)" d="M 220.698947 31.100488 
C 224.450873 31.100488 228.049635 29.610968 230.702648 26.959978 
C 233.35566 24.308988 234.846316 20.712969 234.846316 16.963902 
C 234.846316 13.214836 233.35566 9.618817 230.702648 6.967827 
C 228.049635 4.316837 224.450873 2.827317 220.698947 2.827317 
C 216.947021 2.827317 213.34826 4.316837 210.695247 6.967827 
C 208.042235 9.618817 206.551579 13.214836 206.551579 16.963902 
C 206.551579 20.712969 208.042235 24.308988 210.695247 26.959978 
C 213.34826 29.610968 216.947021 31.100488 220.698947 31.100488 
z
" style="fill:none;"/>
   </g>
   <g id="patch_42">
    <path clip-path="url(#p6589085bb9)" d="M 220.698947 73.510244 
C 224.450873 73.510244 228.049635 72.020724 230.702648 69.369734 
C 233.35566 66.718744 234.846316 63.122725 234.846316 59.373659 
C 234.846316 55.624592 233.35566 52.028573 230.702648 49.377583 
C 228.049635 46.726593 224.450873 45.237073 220.698947 45.237073 
C 216.947021 45.237073 213.34826 46.726593 210.695247 49.377583 
C 208.042235 52.028573 206.551579 55.624592 206.551579 59.373659 
C 206.551579 63.122725 208.042235 66.718744 210.695247 69.369734 
C 213.34826 72.020724 216.947021 73.510244 220.698947 73.510244 
z
" style="fill:none;"/>
   </g>
   <g id="patch_43">
    <path clip-path="url(#p6589085bb9)" d="M 220.698947 115.92 
C 224.450873 115.92 228.049635 114.43048 230.702648 111.77949 
C 233.35566 109.1285 234.846316 105.532481 234.846316 101.783415 
C 234.846316 98.034348 233.35566 94.438329 230.702648 91.787339 
C 228.049635 89.136349 224.450873 87.646829 220.698947 87.646829 
C 216.947021 87.646829 213.34826 89.136349 210.695247 91.787339 
C 208.042235 94.438329 206.551579 98.034348 206.551579 101.783415 
C 206.551579 105.532481 208.042235 109.1285 210.695247 111.77949 
C 213.34826 114.43048 216.947021 115.92 220.698947 115.92 
z
" style="fill:none;"/>
   </g>
   <g id="patch_44">
    <path clip-path="url(#p6589085bb9)" d="M 220.698947 158.329756 
C 224.450873 158.329756 228.049635 156.840236 230.702648 154.189246 
C 233.35566 151.538256 234.846316 147.942237 234.846316 144.193171 
C 234.846316 140.444104 233.35566 136.848086 230.702648 134.197095 
C 228.049635 131.546105 224.450873 130.056585 220.698947 130.056585 
C 216.947021 130.056585 213.34826 131.546105 210.695247 134.197095 
C 208.042235 136.848086 206.551579 140.444104 206.551579 144.193171 
C 206.551579 147.942237 208.042235 151.538256 210.695247 154.189246 
C 213.34826 156.840236 216.947021 158.329756 220.698947 158.329756 
z
" style="fill:none;"/>
   </g>
   <g id="patch_45">
    <path clip-path="url(#p6589085bb9)" d="M 220.698947 200.739512 
C 224.450873 200.739512 228.049635 199.249992 230.702648 196.599002 
C 233.35566 193.948012 234.846316 190.351993 234.846316 186.602927 
C 234.846316 182.853861 233.35566 179.257842 230.702648 176.606851 
C 228.049635 173.955861 224.450873 172.466341 220.698947 172.466341 
C 216.947021 172.466341 213.34826 173.955861 210.695247 176.606851 
C 208.042235 179.257842 206.551579 182.853861 206.551579 186.602927 
C 206.551579 190.351993 208.042235 193.948012 210.695247 196.599002 
C 213.34826 199.249992 216.947021 200.739512 220.698947 200.739512 
z
" style="fill:none;"/>
   </g>
   <g id="patch_46">
    <path clip-path="url(#p6589085bb9)" d="M 28.294737 229.012683 
C 32.046663 229.012683 35.645425 227.523163 38.298437 224.872173 
C 40.951449 222.221183 42.442105 218.625164 42.442105 214.876098 
C 42.442105 211.127031 40.951449 207.531012 38.298437 204.880022 
C 35.645425 202.229032 32.046663 200.739512 28.294737 200.739512 
C 24.542811 200.739512 20.944049 202.229032 18.291037 204.880022 
C 15.638024 207.531012 14.147368 211.127031 14.147368 214.876098 
C 14.147368 218.625164 15.638024 222.221183 18.291037 224.872173 
C 20.944049 227.523163 24.542811 229.012683 28.294737 229.012683 
z
" style="fill:none;"/>
   </g>
   <g id="matplotlib.axis_1"/>
   <g id="matplotlib.axis_2"/>
   <g id="text_1">
    <!-- Σ -->
    <defs>
     <path d="M 21.140625 8.296875 
L 56.78125 8.296875 
L 56.78125 0 
L 9.8125 0 
L 9.8125 8.296875 
L 33.203125 38.765625 
L 9.8125 64.59375 
L 9.8125 72.90625 
L 55.90625 72.90625 
L 55.90625 64.59375 
L 21.140625 64.59375 
L 44.53125 38.96875 
z
" id="DejaVuSans-3a3"/>
    </defs>
    <g transform="translate(81.724836 104.54279)scale(0.1 -0.1)">
     <use xlink:href="#DejaVuSans-3a3"/>
    </g>
   </g>
   <g id="text_2">
    <!-- $f(Σ)$ -->
    <defs>
     <path d="M 47.796875 75.984375 
L 46.390625 68.5 
L 37.796875 68.5 
Q 32.90625 68.5 30.6875 66.578125 
Q 28.46875 64.65625 27.390625 59.515625 
L 26.421875 54.6875 
L 41.21875 54.6875 
L 39.890625 47.703125 
L 25.09375 47.703125 
L 15.828125 0 
L 6.78125 0 
L 16.109375 47.703125 
L 7.515625 47.703125 
L 8.796875 54.6875 
L 17.390625 54.6875 
L 18.109375 58.5 
Q 19.96875 68.171875 24.625 72.078125 
Q 29.296875 75.984375 39.3125 75.984375 
z
" id="DejaVuSans-Oblique-66"/>
     <path d="M 31 75.875 
Q 24.46875 64.65625 21.28125 53.65625 
Q 18.109375 42.671875 18.109375 31.390625 
Q 18.109375 20.125 21.3125 9.0625 
Q 24.515625 -2 31 -13.1875 
L 23.1875 -13.1875 
Q 15.875 -1.703125 12.234375 9.375 
Q 8.59375 20.453125 8.59375 31.390625 
Q 8.59375 42.28125 12.203125 53.3125 
Q 15.828125 64.359375 23.1875 75.875 
z
" id="DejaVuSans-28"/>
     <path d="M 8.015625 75.875 
L 15.828125 75.875 
Q 23.140625 64.359375 26.78125 53.3125 
Q 30.421875 42.28125 30.421875 31.390625 
Q 30.421875 20.453125 26.78125 9.375 
Q 23.140625 -1.703125 15.828125 -13.1875 
L 8.015625 -13.1875 
Q 14.5 -2 17.703125 9.0625 
Q 20.90625 20.125 20.90625 31.390625 
Q 20.90625 42.671875 17.703125 53.65625 
Q 14.5 64.65625 8.015625 75.875 
z
" id="DejaVuSans-29"/>
    </defs>
    <g transform="translate(132.623684 104.54279)scale(0.1 -0.1)">
     <use transform="translate(0 0.015625)" xlink:href="#DejaVuSans-Oblique-66"/>
     <use transform="translate(35.205078 0.015625)" xlink:href="#DejaVuSans-28"/>
     <use transform="translate(74.21875 0.015625)" xlink:href="#DejaVuSans-3a3"/>
     <use transform="translate(137.402344 0.015625)" xlink:href="#DejaVuSans-29"/>
    </g>
   </g>
   <g id="text_3">
    <!-- $b$ -->
    <defs>
     <path d="M 49.515625 33.40625 
Q 49.515625 40.484375 46.265625 44.484375 
Q 43.015625 48.484375 37.3125 48.484375 
Q 33.15625 48.484375 29.515625 46.453125 
Q 25.875 44.4375 23.1875 40.578125 
Q 20.359375 36.53125 18.71875 31.171875 
Q 17.09375 25.828125 17.09375 20.515625 
Q 17.09375 13.765625 20.28125 9.9375 
Q 23.484375 6.109375 29.109375 6.109375 
Q 33.34375 6.109375 36.953125 8.078125 
Q 40.578125 10.0625 43.3125 13.921875 
Q 46.09375 17.921875 47.796875 23.234375 
Q 49.515625 28.5625 49.515625 33.40625 
z
M 21.578125 46.390625 
Q 24.90625 50.875 29.90625 53.4375 
Q 34.90625 56 40.375 56 
Q 48.78125 56 53.734375 50.328125 
Q 58.6875 44.671875 58.6875 35.015625 
Q 58.6875 27.09375 55.78125 19.671875 
Q 52.875 12.25 47.515625 6.5 
Q 44 2.6875 39.40625 0.625 
Q 34.8125 -1.421875 29.78125 -1.421875 
Q 24.46875 -1.421875 20.5625 1.015625 
Q 16.65625 3.46875 14.203125 8.296875 
L 12.59375 0 
L 3.609375 0 
L 18.40625 75.984375 
L 27.390625 75.984375 
z
" id="DejaVuSans-Oblique-62"/>
    </defs>
    <g transform="translate(81.684211 189.362302)scale(0.1 -0.1)">
     <use transform="translate(0 0.015625)" xlink:href="#DejaVuSans-Oblique-62"/>
    </g>
   </g>
   <g id="text_4">
    <!-- next character -->
    <defs>
     <path d="M 63.375 33.296875 
L 63.375 0 
L 45.796875 0 
L 45.796875 5.421875 
L 45.796875 25.484375 
Q 45.796875 32.5625 45.484375 35.25 
Q 45.171875 37.9375 44.390625 39.203125 
Q 43.359375 40.921875 41.59375 41.875 
Q 39.84375 42.828125 37.59375 42.828125 
Q 32.125 42.828125 29 38.59375 
Q 25.875 34.375 25.875 26.90625 
L 25.875 0 
L 8.40625 0 
L 8.40625 54.6875 
L 25.875 54.6875 
L 25.875 46.6875 
Q 29.828125 51.46875 34.265625 53.734375 
Q 38.71875 56 44.09375 56 
Q 53.5625 56 58.46875 50.1875 
Q 63.375 44.390625 63.375 33.296875 
z
" id="DejaVuSans-Bold-6e"/>
     <path d="M 62.984375 27.484375 
L 62.984375 22.515625 
L 22.125 22.515625 
Q 22.75 16.359375 26.5625 13.28125 
Q 30.375 10.203125 37.203125 10.203125 
Q 42.71875 10.203125 48.5 11.84375 
Q 54.296875 13.484375 60.40625 16.796875 
L 60.40625 3.328125 
Q 54.203125 0.984375 48 -0.21875 
Q 41.796875 -1.421875 35.59375 -1.421875 
Q 20.75 -1.421875 12.515625 6.125 
Q 4.296875 13.671875 4.296875 27.296875 
Q 4.296875 40.671875 12.375 48.328125 
Q 20.453125 56 34.625 56 
Q 47.515625 56 55.25 48.234375 
Q 62.984375 40.484375 62.984375 27.484375 
z
M 45.015625 33.296875 
Q 45.015625 38.28125 42.109375 41.328125 
Q 39.203125 44.390625 34.515625 44.390625 
Q 29.4375 44.390625 26.265625 41.53125 
Q 23.09375 38.671875 22.3125 33.296875 
z
" id="DejaVuSans-Bold-65"/>
     <path d="M 22.21875 27.984375 
L 2.484375 54.6875 
L 21 54.6875 
L 32.171875 38.484375 
L 43.5 54.6875 
L 62.015625 54.6875 
L 42.28125 28.078125 
L 62.984375 0 
L 44.484375 0 
L 32.171875 17.28125 
L 20.015625 0 
L 1.515625 0 
z
" id="DejaVuSans-Bold-78"/>
     <path d="M 27.484375 70.21875 
L 27.484375 54.6875 
L 45.515625 54.6875 
L 45.515625 42.1875 
L 27.484375 42.1875 
L 27.484375 19 
Q 27.484375 15.1875 29 13.84375 
Q 30.515625 12.5 35.015625 12.5 
L 44 12.5 
L 44 0 
L 29 0 
Q 18.65625 0 14.328125 4.3125 
Q 10.015625 8.640625 10.015625 19 
L 10.015625 42.1875 
L 1.3125 42.1875 
L 1.3125 54.6875 
L 10.015625 54.6875 
L 10.015625 70.21875 
z
" id="DejaVuSans-Bold-74"/>
     <path id="DejaVuSans-Bold-20"/>
     <path d="M 52.59375 52.984375 
L 52.59375 38.71875 
Q 49.03125 41.15625 45.4375 42.328125 
Q 41.84375 43.5 37.984375 43.5 
Q 30.671875 43.5 26.59375 39.234375 
Q 22.515625 34.96875 22.515625 27.296875 
Q 22.515625 19.625 26.59375 15.34375 
Q 30.671875 11.078125 37.984375 11.078125 
Q 42.09375 11.078125 45.78125 12.296875 
Q 49.46875 13.53125 52.59375 15.921875 
L 52.59375 1.609375 
Q 48.484375 0.09375 44.265625 -0.65625 
Q 40.046875 -1.421875 35.796875 -1.421875 
Q 21 -1.421875 12.640625 6.171875 
Q 4.296875 13.765625 4.296875 27.296875 
Q 4.296875 40.828125 12.640625 48.40625 
Q 21 56 35.796875 56 
Q 40.09375 56 44.265625 55.25 
Q 48.4375 54.5 52.59375 52.984375 
z
" id="DejaVuSans-Bold-63"/>
     <path d="M 63.375 33.296875 
L 63.375 0 
L 45.796875 0 
L 45.796875 5.421875 
L 45.796875 25.390625 
Q 45.796875 32.5625 45.484375 35.25 
Q 45.171875 37.9375 44.390625 39.203125 
Q 43.359375 40.921875 41.59375 41.875 
Q 39.84375 42.828125 37.59375 42.828125 
Q 32.125 42.828125 29 38.59375 
Q 25.875 34.375 25.875 26.90625 
L 25.875 0 
L 8.40625 0 
L 8.40625 75.984375 
L 25.875 75.984375 
L 25.875 46.6875 
Q 29.828125 51.46875 34.265625 53.734375 
Q 38.71875 56 44.09375 56 
Q 53.5625 56 58.46875 50.1875 
Q 63.375 44.390625 63.375 33.296875 
z
" id="DejaVuSans-Bold-68"/>
     <path d="M 32.90625 24.609375 
Q 27.4375 24.609375 24.671875 22.75 
Q 21.921875 20.90625 21.921875 17.28125 
Q 21.921875 13.96875 24.140625 12.078125 
Q 26.375 10.203125 30.328125 10.203125 
Q 35.25 10.203125 38.625 13.734375 
Q 42 17.28125 42 22.609375 
L 42 24.609375 
z
M 59.625 31.203125 
L 59.625 0 
L 42 0 
L 42 8.109375 
Q 38.484375 3.125 34.078125 0.84375 
Q 29.6875 -1.421875 23.390625 -1.421875 
Q 14.890625 -1.421875 9.59375 3.53125 
Q 4.296875 8.5 4.296875 16.40625 
Q 4.296875 26.03125 10.90625 30.515625 
Q 17.53125 35.015625 31.6875 35.015625 
L 42 35.015625 
L 42 36.375 
Q 42 40.53125 38.71875 42.453125 
Q 35.453125 44.390625 28.515625 44.390625 
Q 22.90625 44.390625 18.0625 43.265625 
Q 13.234375 42.140625 9.078125 39.890625 
L 9.078125 53.21875 
Q 14.703125 54.59375 20.359375 55.296875 
Q 26.03125 56 31.6875 56 
Q 46.484375 56 53.046875 50.171875 
Q 59.625 44.34375 59.625 31.203125 
z
" id="DejaVuSans-Bold-61"/>
     <path d="M 49.03125 39.796875 
Q 46.734375 40.875 44.453125 41.375 
Q 42.1875 41.890625 39.890625 41.890625 
Q 33.15625 41.890625 29.515625 37.5625 
Q 25.875 33.25 25.875 25.203125 
L 25.875 0 
L 8.40625 0 
L 8.40625 54.6875 
L 25.875 54.6875 
L 25.875 45.703125 
Q 29.25 51.078125 33.609375 53.53125 
Q 37.984375 56 44.09375 56 
Q 44.96875 56 45.984375 55.921875 
Q 47.015625 55.859375 48.96875 55.609375 
z
" id="DejaVuSans-Bold-72"/>
    </defs>
    <g style="fill:#ff0000;" transform="translate(236.033734 104.54279)scale(0.1 -0.1)">
     <use xlink:href="#DejaVuSans-Bold-6e"/>
     <use x="71.191406" xlink:href="#DejaVuSans-Bold-65"/>
     <use x="139.013672" xlink:href="#DejaVuSans-Bold-78"/>
     <use x="203.515625" xlink:href="#DejaVuSans-Bold-74"/>
     <use x="251.318359" xlink:href="#DejaVuSans-Bold-20"/>
     <use x="286.132812" xlink:href="#DejaVuSans-Bold-63"/>
     <use x="345.410156" xlink:href="#DejaVuSans-Bold-68"/>
     <use x="416.601562" xlink:href="#DejaVuSans-Bold-61"/>
     <use x="484.082031" xlink:href="#DejaVuSans-Bold-72"/>
     <use x="533.398438" xlink:href="#DejaVuSans-Bold-61"/>
     <use x="600.878906" xlink:href="#DejaVuSans-Bold-63"/>
     <use x="660.15625" xlink:href="#DejaVuSans-Bold-74"/>
     <use x="707.958984" xlink:href="#DejaVuSans-Bold-65"/>
     <use x="775.78125" xlink:href="#DejaVuSans-Bold-72"/>
    </g>
   </g>
   <g id="text_5">
    <!-- $x_0$ -->
    <defs>
     <path d="M 60.015625 54.6875 
L 34.90625 27.875 
L 50.296875 0 
L 39.984375 0 
L 28.421875 21.6875 
L 8.296875 0 
L -2.59375 0 
L 24.3125 28.8125 
L 10.015625 54.6875 
L 20.3125 54.6875 
L 30.8125 34.90625 
L 49.125 54.6875 
z
" id="DejaVuSans-Oblique-78"/>
     <path d="M 31.78125 66.40625 
Q 24.171875 66.40625 20.328125 58.90625 
Q 16.5 51.421875 16.5 36.375 
Q 16.5 21.390625 20.328125 13.890625 
Q 24.171875 6.390625 31.78125 6.390625 
Q 39.453125 6.390625 43.28125 13.890625 
Q 47.125 21.390625 47.125 36.375 
Q 47.125 51.421875 43.28125 58.90625 
Q 39.453125 66.40625 31.78125 66.40625 
z
M 31.78125 74.21875 
Q 44.046875 74.21875 50.515625 64.515625 
Q 56.984375 54.828125 56.984375 36.375 
Q 56.984375 17.96875 50.515625 8.265625 
Q 44.046875 -1.421875 31.78125 -1.421875 
Q 19.53125 -1.421875 13.0625 8.265625 
Q 6.59375 17.96875 6.59375 36.375 
Q 6.59375 54.828125 13.0625 64.515625 
Q 19.53125 74.21875 31.78125 74.21875 
z
" id="DejaVuSans-30"/>
    </defs>
    <g transform="translate(22.944737 19.723277)scale(0.1 -0.1)">
     <use transform="translate(0 0.3125)" xlink:href="#DejaVuSans-Oblique-78"/>
     <use transform="translate(59.179688 -16.09375)scale(0.7)" xlink:href="#DejaVuSans-30"/>
    </g>
   </g>
   <g id="text_6">
    <!-- $x_1$ -->
    <defs>
     <path d="M 12.40625 8.296875 
L 28.515625 8.296875 
L 28.515625 63.921875 
L 10.984375 60.40625 
L 10.984375 69.390625 
L 28.421875 72.90625 
L 38.28125 72.90625 
L 38.28125 8.296875 
L 54.390625 8.296875 
L 54.390625 0 
L 12.40625 0 
z
" id="DejaVuSans-31"/>
    </defs>
    <g transform="translate(22.944737 62.133034)scale(0.1 -0.1)">
     <use transform="translate(0 0.3125)" xlink:href="#DejaVuSans-Oblique-78"/>
     <use transform="translate(59.179688 -16.09375)scale(0.7)" xlink:href="#DejaVuSans-31"/>
    </g>
   </g>
   <g id="text_7">
    <!-- $x_2$ -->
    <defs>
     <path d="M 19.1875 8.296875 
L 53.609375 8.296875 
L 53.609375 0 
L 7.328125 0 
L 7.328125 8.296875 
Q 12.9375 14.109375 22.625 23.890625 
Q 32.328125 33.6875 34.8125 36.53125 
Q 39.546875 41.84375 41.421875 45.53125 
Q 43.3125 49.21875 43.3125 52.78125 
Q 43.3125 58.59375 39.234375 62.25 
Q 35.15625 65.921875 28.609375 65.921875 
Q 23.96875 65.921875 18.8125 64.3125 
Q 13.671875 62.703125 7.8125 59.421875 
L 7.8125 69.390625 
Q 13.765625 71.78125 18.9375 73 
Q 24.125 74.21875 28.421875 74.21875 
Q 39.75 74.21875 46.484375 68.546875 
Q 53.21875 62.890625 53.21875 53.421875 
Q 53.21875 48.921875 51.53125 44.890625 
Q 49.859375 40.875 45.40625 35.40625 
Q 44.1875 33.984375 37.640625 27.21875 
Q 31.109375 20.453125 19.1875 8.296875 
z
" id="DejaVuSans-32"/>
    </defs>
    <g transform="translate(22.944737 104.54279)scale(0.1 -0.1)">
     <use transform="translate(0 0.3125)" xlink:href="#DejaVuSans-Oblique-78"/>
     <use transform="translate(59.179688 -16.09375)scale(0.7)" xlink:href="#DejaVuSans-32"/>
    </g>
   </g>
   <g id="text_8">
    <!-- $x_3$ -->
    <defs>
     <path d="M 40.578125 39.3125 
Q 47.65625 37.796875 51.625 33 
Q 55.609375 28.21875 55.609375 21.1875 
Q 55.609375 10.40625 48.1875 4.484375 
Q 40.765625 -1.421875 27.09375 -1.421875 
Q 22.515625 -1.421875 17.65625 -0.515625 
Q 12.796875 0.390625 7.625 2.203125 
L 7.625 11.71875 
Q 11.71875 9.328125 16.59375 8.109375 
Q 21.484375 6.890625 26.8125 6.890625 
Q 36.078125 6.890625 40.9375 10.546875 
Q 45.796875 14.203125 45.796875 21.1875 
Q 45.796875 27.640625 41.28125 31.265625 
Q 36.765625 34.90625 28.71875 34.90625 
L 20.21875 34.90625 
L 20.21875 43.015625 
L 29.109375 43.015625 
Q 36.375 43.015625 40.234375 45.921875 
Q 44.09375 48.828125 44.09375 54.296875 
Q 44.09375 59.90625 40.109375 62.90625 
Q 36.140625 65.921875 28.71875 65.921875 
Q 24.65625 65.921875 20.015625 65.03125 
Q 15.375 64.15625 9.8125 62.3125 
L 9.8125 71.09375 
Q 15.4375 72.65625 20.34375 73.4375 
Q 25.25 74.21875 29.59375 74.21875 
Q 40.828125 74.21875 47.359375 69.109375 
Q 53.90625 64.015625 53.90625 55.328125 
Q 53.90625 49.265625 50.4375 45.09375 
Q 46.96875 40.921875 40.578125 39.3125 
z
" id="DejaVuSans-33"/>
    </defs>
    <g transform="translate(22.944737 146.952546)scale(0.1 -0.1)">
     <use transform="translate(0 0.3125)" xlink:href="#DejaVuSans-Oblique-78"/>
     <use transform="translate(59.179688 -16.09375)scale(0.7)" xlink:href="#DejaVuSans-33"/>
    </g>
   </g>
   <g id="text_9">
    <!-- $x_4$ -->
    <defs>
     <path d="M 37.796875 64.3125 
L 12.890625 25.390625 
L 37.796875 25.390625 
z
M 35.203125 72.90625 
L 47.609375 72.90625 
L 47.609375 25.390625 
L 58.015625 25.390625 
L 58.015625 17.1875 
L 47.609375 17.1875 
L 47.609375 0 
L 37.796875 0 
L 37.796875 17.1875 
L 4.890625 17.1875 
L 4.890625 26.703125 
z
" id="DejaVuSans-34"/>
    </defs>
    <g transform="translate(22.944737 189.362302)scale(0.1 -0.1)">
     <use transform="translate(0 0.3125)" xlink:href="#DejaVuSans-Oblique-78"/>
     <use transform="translate(59.179688 -16.09375)scale(0.7)" xlink:href="#DejaVuSans-34"/>
    </g>
   </g>
   <g id="text_10">
    <!-- $y_0$ -->
    <defs>
     <path d="M 24.8125 -5.078125 
Q 18.5625 -15.578125 14.625 -18.1875 
Q 10.6875 -20.796875 4.59375 -20.796875 
L -2.484375 -20.796875 
L -0.984375 -13.28125 
L 4.203125 -13.28125 
Q 7.953125 -13.28125 10.59375 -11.234375 
Q 13.234375 -9.1875 16.5 -3.21875 
L 19.28125 2 
L 7.171875 54.6875 
L 16.703125 54.6875 
L 25.78125 12.796875 
L 50.875 54.6875 
L 60.296875 54.6875 
z
" id="DejaVuSans-Oblique-79"/>
    </defs>
    <g transform="translate(192.713158 19.702965)scale(0.1 -0.1)">
     <use transform="translate(0 0.3125)" xlink:href="#DejaVuSans-Oblique-79"/>
     <use transform="translate(59.179688 -16.09375)scale(0.7)" xlink:href="#DejaVuSans-30"/>
    </g>
   </g>
   <g id="text_11">
    <!-- $y_1$ -->
    <g transform="translate(192.713158 62.112721)scale(0.1 -0.1)">
     <use transform="translate(0 0.3125)" xlink:href="#DejaVuSans-Oblique-79"/>
     <use transform="translate(59.179688 -16.09375)scale(0.7)" xlink:href="#DejaVuSans-31"/>
    </g>
   </g>
   <g id="text_12">
    <!-- $y_2$ -->
    <g transform="translate(192.713158 104.522477)scale(0.1 -0.1)">
     <use transform="translate(0 0.3125)" xlink:href="#DejaVuSans-Oblique-79"/>
     <use transform="translate(59.179688 -16.09375)scale(0.7)" xlink:href="#DejaVuSans-32"/>
    </g>
   </g>
   <g id="text_13">
    <!-- $y_3$ -->
    <g transform="translate(192.713158 146.932233)scale(0.1 -0.1)">
     <use transform="translate(0 0.3125)" xlink:href="#DejaVuSans-Oblique-79"/>
     <use transform="translate(59.179688 -16.09375)scale(0.7)" xlink:href="#DejaVuSans-33"/>
    </g>
   </g>
   <g id="text_14">
    <!-- $y_4$ -->
    <g transform="translate(192.713158 189.341989)scale(0.1 -0.1)">
     <use transform="translate(0 0.3125)" xlink:href="#DejaVuSans-Oblique-79"/>
     <use transform="translate(59.179688 -16.09375)scale(0.7)" xlink:href="#DejaVuSans-34"/>
    </g>
   </g>
   <g id="text_15">
    <!-- $w_0$ -->
    <defs>
     <path d="M 8.5 54.6875 
L 17.390625 54.6875 
L 19.671875 10.6875 
L 40.09375 54.6875 
L 50.484375 54.6875 
L 53.515625 10.6875 
L 72.90625 54.6875 
L 81.890625 54.6875 
L 56.890625 0 
L 46.390625 0 
L 43.703125 45.3125 
L 22.796875 0 
L 12.203125 0 
z
" id="DejaVuSans-Oblique-77"/>
    </defs>
    <g transform="translate(51.174974 47.535633)scale(0.0833 -0.0833)">
     <use transform="translate(0 0.3125)" xlink:href="#DejaVuSans-Oblique-77"/>
     <use transform="translate(81.787109 -16.09375)scale(0.7)" xlink:href="#DejaVuSans-30"/>
    </g>
   </g>
   <g id="text_16">
    <!-- $w_1$ -->
    <g transform="translate(51.174974 74.395145)scale(0.0833 -0.0833)">
     <use transform="translate(0 0.3125)" xlink:href="#DejaVuSans-Oblique-77"/>
     <use transform="translate(81.787109 -16.09375)scale(0.7)" xlink:href="#DejaVuSans-31"/>
    </g>
   </g>
   <g id="text_17">
    <!-- $w_2$ -->
    <g transform="translate(51.174974 98.42734)scale(0.0833 -0.0833)">
     <use transform="translate(0 0.3125)" xlink:href="#DejaVuSans-Oblique-77"/>
     <use transform="translate(81.787109 -16.09375)scale(0.7)" xlink:href="#DejaVuSans-32"/>
    </g>
   </g>
   <g id="text_18">
    <!-- $w_3$ -->
    <g transform="translate(51.174974 116.748354)scale(0.0833 -0.0833)">
     <use transform="translate(0 0.3125)" xlink:href="#DejaVuSans-Oblique-77"/>
     <use transform="translate(81.787109 -16.09375)scale(0.7)" xlink:href="#DejaVuSans-33"/>
    </g>
   </g>
   <g id="text_19">
    <!-- $w_4$ -->
    <g transform="translate(51.174974 135.182462)scale(0.0833 -0.0833)">
     <use transform="translate(0 0.3125)" xlink:href="#DejaVuSans-Oblique-77"/>
     <use transform="translate(81.787109 -16.09375)scale(0.7)" xlink:href="#DejaVuSans-34"/>
    </g>
   </g>
   <g id="text_20">
    <!-- 1 -->
    <g transform="translate(93.552124 160.628315)scale(0.0833 -0.0833)">
     <use xlink:href="#DejaVuSans-31"/>
    </g>
   </g>
   <g id="text_21">
    <!-- a -->
    <g style="fill:#0000ff;" transform="translate(2.284729 19.723277)scale(0.1 -0.1)">
     <use xlink:href="#DejaVuSans-Bold-61"/>
    </g>
   </g>
   <g id="text_22">
    <!-- b -->
    <defs>
     <path d="M 37.5 11.28125 
Q 43.109375 11.28125 46.0625 15.375 
Q 49.03125 19.484375 49.03125 27.296875 
Q 49.03125 35.109375 46.0625 39.203125 
Q 43.109375 43.3125 37.5 43.3125 
Q 31.890625 43.3125 28.875 39.1875 
Q 25.875 35.0625 25.875 27.296875 
Q 25.875 19.53125 28.875 15.40625 
Q 31.890625 11.28125 37.5 11.28125 
z
M 25.875 46.6875 
Q 29.5 51.46875 33.890625 53.734375 
Q 38.28125 56 44 56 
Q 54.109375 56 60.59375 47.96875 
Q 67.09375 39.9375 67.09375 27.296875 
Q 67.09375 14.65625 60.59375 6.609375 
Q 54.109375 -1.421875 44 -1.421875 
Q 38.28125 -1.421875 33.890625 0.84375 
Q 29.5 3.125 25.875 7.90625 
L 25.875 0 
L 8.40625 0 
L 8.40625 75.984375 
L 25.875 75.984375 
z
" id="DejaVuSans-Bold-62"/>
    </defs>
    <g style="fill:#0000ff;" transform="translate(2.080041 62.133034)scale(0.1 -0.1)">
     <use xlink:href="#DejaVuSans-Bold-62"/>
    </g>
   </g>
   <g id="text_23">
    <!-- c -->
    <g style="fill:#0000ff;" transform="translate(2.694885 104.54279)scale(0.1 -0.1)">
     <use xlink:href="#DejaVuSans-Bold-63"/>
    </g>
   </g>
   <g id="text_24">
    <!-- d -->
    <defs>
     <path d="M 45.609375 46.6875 
L 45.609375 75.984375 
L 63.1875 75.984375 
L 63.1875 0 
L 45.609375 0 
L 45.609375 7.90625 
Q 42 3.078125 37.640625 0.828125 
Q 33.296875 -1.421875 27.59375 -1.421875 
Q 17.484375 -1.421875 10.984375 6.609375 
Q 4.5 14.65625 4.5 27.296875 
Q 4.5 39.9375 10.984375 47.96875 
Q 17.484375 56 27.59375 56 
Q 33.25 56 37.625 53.734375 
Q 42 51.46875 45.609375 46.6875 
z
M 34.078125 11.28125 
Q 39.703125 11.28125 42.65625 15.375 
Q 45.609375 19.484375 45.609375 27.296875 
Q 45.609375 35.109375 42.65625 39.203125 
Q 39.703125 43.3125 34.078125 43.3125 
Q 28.515625 43.3125 25.5625 39.203125 
Q 22.609375 35.109375 22.609375 27.296875 
Q 22.609375 19.484375 25.5625 15.375 
Q 28.515625 11.28125 34.078125 11.28125 
z
" id="DejaVuSans-Bold-64"/>
    </defs>
    <g style="fill:#0000ff;" transform="translate(2.080041 146.952546)scale(0.1 -0.1)">
     <use xlink:href="#DejaVuSans-Bold-64"/>
    </g>
   </g>
   <g id="text_25">
    <!-- e -->
    <g style="fill:#0000ff;" transform="translate(2.267541 189.362302)scale(0.1 -0.1)">
     <use xlink:href="#DejaVuSans-Bold-65"/>
    </g>
   </g>
   <g id="text_26">
    <!-- a -->
    <g style="fill:#0000ff;" transform="translate(217.324729 19.723277)scale(0.1 -0.1)">
     <use xlink:href="#DejaVuSans-Bold-61"/>
    </g>
   </g>
   <g id="text_27">
    <!-- b -->
    <g style="fill:#0000ff;" transform="translate(217.120041 62.133034)scale(0.1 -0.1)">
     <use xlink:href="#DejaVuSans-Bold-62"/>
    </g>
   </g>
   <g id="text_28">
    <!-- c -->
    <g style="fill:#0000ff;" transform="translate(217.734885 104.54279)scale(0.1 -0.1)">
     <use xlink:href="#DejaVuSans-Bold-63"/>
    </g>
   </g>
   <g id="text_29">
    <!-- d -->
    <g style="fill:#0000ff;" transform="translate(217.120041 146.952546)scale(0.1 -0.1)">
     <use xlink:href="#DejaVuSans-Bold-64"/>
    </g>
   </g>
   <g id="text_30">
    <!-- e -->
    <g style="fill:#0000ff;" transform="translate(217.307541 189.362302)scale(0.1 -0.1)">
     <use xlink:href="#DejaVuSans-Bold-65"/>
    </g>
   </g>
   <g id="text_31">
    <!-- ...etc. -->
    <defs>
     <path d="M 10.203125 18.890625 
L 27.78125 18.890625 
L 27.78125 0 
L 10.203125 0 
z
" id="DejaVuSans-Bold-2e"/>
    </defs>
    <g transform="translate(14.681695 217.174657)scale(0.0833 -0.0833)">
     <use xlink:href="#DejaVuSans-Bold-2e"/>
     <use x="37.988281" xlink:href="#DejaVuSans-Bold-2e"/>
     <use x="75.976562" xlink:href="#DejaVuSans-Bold-2e"/>
     <use x="113.964844" xlink:href="#DejaVuSans-Bold-65"/>
     <use x="181.787109" xlink:href="#DejaVuSans-Bold-74"/>
     <use x="229.589844" xlink:href="#DejaVuSans-Bold-63"/>
     <use x="288.867188" xlink:href="#DejaVuSans-Bold-2e"/>
    </g>
   </g>
  </g>
 </g>
 <defs>
  <clipPath id="p6589085bb9">
   <rect height="231.84" width="322.56" x="0" y="0"/>
  </clipPath>
 </defs>
</svg>
