<svg xmlns="http://www.w3.org/2000/svg" xmlns:xlink="http://www.w3.org/1999/xlink" width="1100" height="619"><g transform="translate(-240 -120)"><path d="M380 669c0 27.6-22.4 50-50 50s-50-22.4-50-50 22.4-50 50-50 50 22.4 50 50z" stroke="#000" stroke-width="2" fill="#fff"/><use xlink:href="#a" transform="matrix(1,0,0,1,285,624) translate(45 50.4)"/><path d="M299.6 655.15h60.8v41.47h-60.8z" fill="none"/><path d="M317.32 661.92l.8 3.74c4.6-7.03 7.02-9.4 9.9-9.4 1.6 0 2.7 1 2.7 2.44 0 1.38-.9 2.36-2.23 2.36-1.26 0-1.85-1.1-3.43-1.1-1.18 0-3.54 2.88-6.44 7.94 0 .46.14 1.38.53 2.95l2.1 8.8c.46 1.85 1.05 2.7 1.97 2.7.86 0 1.58-.65 3.1-2.62.58-.8.85-1.2 1.37-1.84l1 .58c-3.82 5.9-5.53 7.5-8.03 7.5-2.1 0-3.1-1.2-3.88-4.48l-1.9-7.82-5.8 7.82c-2.9 3.88-4.2 4.47-6.24 4.47s-3.28-1.05-3.28-2.76c0-1.3.92-2.36 2.23-2.36.6 0 1.26.27 2.1.73.67.4 1.33.6 1.72.6.72 0 1.97-1.26 3.35-3.23l5.4-7.63-1.85-8.13c-.92-3.95-1.38-4.47-3.02-4.47-.53 0-1.32.13-2.56.46l-1.2.33-.18-1.07.72-.26c4-1.45 6.18-1.9 7.7-1.9 1.63 0 2.42 1.18 3.34 5.65M351.9 689.7l.66.6c-3.16 4.33-4.32 5.26-6.5 5.26-1.17 0-2.2-.74-2.2-2.5 0-.47.1-1.08.75-3.5l2.06-7.52c.37-1.44.65-3.1.65-3.67 0-.84-.4-1.35-1.1-1.35-1.87 0-3.96 2.28-6.88 6.6-2.1 3.1-2.47 4.18-4.65 11.52h-3.5l4.47-16.26c.05-.23.1-.5.1-.8 0-.92-.65-1.2-3.02-1.24v-.75c3.76-.75 5.06-.94 7.52-1.45l.2.1-3.12 10.12c4.64-7.43 7.76-10.22 10.73-10.22 2 0 3.02 1.16 3.02 2.84 0 .82-.18 1.8-.46 2.77l-2.6 9.44c-.46 1.68-.65 2.47-.65 2.84 0 .42.2.84.75.84.65 0 1.5-.75 2.83-2.46.33-.38.65-.8.98-1.2"/><path d="M380 319c0 27.6-22.4 50-50 50s-50-22.4-50-50 22.4-50 50-50 50 22.4 50 50z" stroke="#000" stroke-width="2" fill="#fff"/><use xlink:href="#a" transform="matrix(1,0,0,1,285,274) translate(45 50.4)"/><path d="M299.6 298.15h60.8v41.7h-60.8z" fill="none"/><path d="M317.32 304.92l.8 3.74c4.6-7.03 7.02-9.4 9.9-9.4 1.6 0 2.7 1 2.7 2.44 0 1.38-.9 2.36-2.23 2.36-1.26 0-1.85-1.1-3.43-1.1-1.18 0-3.54 2.88-6.44 7.94 0 .46.14 1.38.53 2.95l2.1 8.8c.46 1.85 1.05 2.7 1.97 2.7.86 0 1.58-.65 3.1-2.62.58-.8.85-1.2 1.37-1.84l1 .58c-3.82 5.9-5.53 7.5-8.03 7.5-2.1 0-3.1-1.2-3.88-4.48l-1.9-7.82-5.8 7.82c-2.9 3.88-4.2 4.47-6.24 4.47s-3.28-1.05-3.28-2.76c0-1.3.92-2.36 2.23-2.36.6 0 1.26.27 2.1.73.67.4 1.33.6 1.72.6.72 0 1.97-1.26 3.35-3.23l5.4-7.63-1.85-8.13c-.92-3.95-1.38-4.47-3.02-4.47-.53 0-1.32.13-2.56.46l-1.2.33-.18-1.07.72-.26c4-1.45 6.18-1.9 7.7-1.9 1.63 0 2.42 1.18 3.34 5.65M352.65 322.8c0 8-2.93 16-10.5 16-7.95 0-10.5-8.65-10.5-16.27 0-8.22 3.2-15.8 10.7-15.8 6.07 0 10.3 6.55 10.3 16.08m-4.46.24c0-9.66-2.05-15.1-6.14-15.1-3.86 0-5.95 5.48-5.95 14.92 0 9.43 2.05 14.73 6.05 14.73 3.95 0 6.04-5.36 6.04-14.56"/><path d="M380 459c0 27.6-22.4 50-50 50s-50-22.4-50-50 22.4-50 50-50 50 22.4 50 50z" stroke="#000" stroke-width="2" fill="#fff"/><use xlink:href="#a" transform="matrix(1,0,0,1,285,414) translate(45 50.4)"/><path d="M299.6 438.15h60.8v41.05h-60.8z" fill="none"/><path d="M317.32 444.92l.8 3.74c4.6-7.03 7.02-9.4 9.9-9.4 1.6 0 2.7 1 2.7 2.44 0 1.38-.9 2.36-2.23 2.36-1.26 0-1.85-1.1-3.43-1.1-1.18 0-3.54 2.88-6.44 7.94 0 .46.14 1.38.53 2.95l2.1 8.8c.46 1.85 1.05 2.7 1.97 2.7.86 0 1.58-.65 3.1-2.62.58-.8.85-1.2 1.37-1.84l1 .58c-3.82 5.9-5.53 7.5-8.03 7.5-2.1 0-3.1-1.2-3.88-4.48l-1.9-7.82-5.8 7.82c-2.9 3.88-4.2 4.47-6.24 4.47s-3.28-1.05-3.28-2.76c0-1.3.92-2.36 2.23-2.36.6 0 1.26.27 2.1.73.67.4 1.33.6 1.72.6.72 0 1.97-1.26 3.35-3.23l5.4-7.63-1.85-8.13c-.92-3.95-1.38-4.47-3.02-4.47-.53 0-1.32.13-2.56.46l-1.2.33-.18-1.07.72-.26c4-1.45 6.18-1.9 7.7-1.9 1.63 0 2.42 1.18 3.34 5.65M348.84 478.14h-12.82v-.7c3.43-.18 4.4-1.15 4.4-3.7v-20.88c0-1.58-.4-2.27-1.38-2.27-.47 0-1.26.22-2.1.55l-1.25.46v-.64l8.3-4.23.43.14v27.74c0 2 .93 2.85 4.4 2.85v.7"/><path d="M313.2 511.5h33.6v75.2h-33.6z" fill="none"/><path d="M334.16 543.06c0 2.23-1.65 4.2-4.14 4.2-2.5 0-4.2-1.64-4.2-4.2 0-2.5 2.1-4.14 4.2-4.14s4.14 1.7 4.14 4.14m0 19.12c0 2.23-1.65 4.2-4.14 4.2-2.5 0-4.2-1.64-4.2-4.2 0-2.5 2.1-4.14 4.2-4.14s4.14 1.7 4.14 4.14m0 19.2c0 2.22-1.65 4.2-4.14 4.2-2.5 0-4.2-1.65-4.2-4.2 0-2.5 2.1-4.15 4.2-4.15s4.14 1.7 4.14 4.14"/><path d="M920.5 140h139v106h-139z" fill="none"/><use xlink:href="#b" transform="matrix(1,0,0,1,925.5,145) translate(8.490885416666664 41.771701388888886)"/><use xlink:href="#c" transform="matrix(1,0,0,1,925.5,145) translate(17.82573784722222 72.8828125)"/><path d="M600.5 140h139v106h-139z" fill="none"/><use xlink:href="#d" transform="matrix(1,0,0,1,605.5,145) translate(8.490885416666664 41.771701388888886)"/><use xlink:href="#e" transform="matrix(1,0,0,1,605.5,145) translate(17.82573784722222 72.8828125)"/><path d="M260 140h139v106H260z" fill="none"/><use xlink:href="#f" transform="matrix(1,0,0,1,265,145) translate(17.82573784722222 41.771701388888886)"/><use xlink:href="#c" transform="matrix(1,0,0,1,265,145) translate(17.82573784722222 72.8828125)"/><path d="M720 396c0 27.6-22.4 50-50 50s-50-22.4-50-50 22.4-50 50-50 50 22.4 50 50z" stroke="#000" stroke-width="2" fill="#ddd"/><use xlink:href="#g" transform="matrix(1,0,0,1,625,351) translate(45 50.4)"/><path d="M627.08 373h39.84v46h-39.84z" fill="#ddd"/><path d="M664.37 405.23l-2.3 13.03H629.6l17.08-22.22-15.98-22.3h32.54v10.93h-1.3c-.93-5.88-2.58-8.05-8.37-8.05h-13.94l12.63 17.03-14.64 18.9h18.04c4.88 0 6.44-2.96 7.4-7.32h1.3"/><path d="M671 446V346M677.5 408.5h20M695.5 383.5v25M694 385.25h20" stroke="#000" stroke-width="4" fill="none"/><path d="M718 548c0 27.6-22.4 50-50 50s-50-22.4-50-50 22.4-50 50-50 50 22.4 50 50z" stroke="#000" stroke-width="2" fill="#ddd"/><use xlink:href="#g" transform="matrix(1,0,0,1,623,503) translate(45 50.4)"/><path d="M625.08 525h39.84v46h-39.84z" fill="#ddd"/><path d="M662.37 557.23l-2.3 13.03H627.6l17.08-22.22-15.98-22.3h32.54v10.93h-1.3c-.93-5.88-2.58-8.05-8.37-8.05h-13.94l12.63 17.03-14.64 18.9h18.04c4.88 0 6.44-2.96 7.4-7.32h1.3"/><path d="M669 598V498M675.5 560.5h20M693.5 535.5v25M692 537.25h20" stroke="#000" stroke-width="4" fill="none"/><path d="M1040 469c0 27.6-22.4 50-50 50s-50-22.4-50-50 22.4-50 50-50 50 22.4 50 50z" stroke="#000" stroke-width="2" fill="#fff"/><use xlink:href="#a" transform="matrix(1,0,0,1,945,424) translate(45 50.4)"/><path d="M973.6 448.15h30.76v44.75H973.6z" fill="none"/><path d="M991.12 466.02l1.38 7.23c5.6-9.26 8.02-14 8.02-16.9 0-.9-.46-1.3-1.7-2.1-1.32-.84-1.72-1.5-1.72-2.55 0-1.45 1.12-2.44 2.63-2.44 1.97 0 3.42 1.65 3.42 3.62 0 3.75-3.16 10.97-8.6 20.04-6.84 11.3-13.88 18.86-17.62 18.86-1.97 0-3.35-1.1-3.35-2.82 0-1.45 1.1-2.63 2.56-2.63 2.3 0 2.3 1.84 4 1.84.86 0 1.65-.53 3.16-2.17 1.2-1.25 4.14-5.13 4.67-5.98.4-.8.66-1.58.66-2.3 0-2.63-3.62-17.35-5.4-21.82-1.24-3.22-2.43-4.2-5.05-4.2-.73 0-1.32.06-2.04.26v-1.12c.72-.13 1.44-.26 2.1-.4 1.32-.26 3.48-.65 7.03-1.18h.27c.98 0 4.47 10.9 5.58 16.76"/><path d="M380 319l240 77" stroke="#000" stroke-width="4" fill="none"/><path d="M380.6 317.1l-.6 1.9-.08-2.12zM620 396l-15 .06 2.83-8.83z"/><path d="M620.12 393.62L620 396l.07 2-17.82.07 4.52-14.07zm-12.37.43l6.1-.03-4.95-3.56z"/><path d="M380 459l240-63" stroke="#000" stroke-width="4" fill="none"/><path d="M380.5 460.93l-.6.17.1-2.1zM620 396l-12.62 8.1-2.36-8.96z"/><path d="M620.1 394l-.1 2 .08 2.32-13.94 8.96-3.75-14.3zm-11.5 6.94l5.14-3.3-6.08-.35z"/><path d="M380 669l238-121" stroke="#000" stroke-width="4" fill="none"/><path d="M380.9 670.78l-1 .52.1-2.3zM607.38 558.6l-4.2-8.27L618 548z"/><path d="M618 548l.1 2.73-11.25 11.23-6.7-13.17 17.95-2.84zm-11.8 3.88l1.72 3.36 4.3-4.3z"/><path d="M380 319l238 229" stroke="#000" stroke-width="4" fill="none"/><path d="M381.4 317.56L380 319l-.1-2.87zM618 548l-13.5-6.55 6.43-6.68z"/><path d="M618.2 544.12L618 548l.08 2.26-16.92-8.2 10.24-10.66zm-10.34-3.27l5.48 2.66-2.87-5.36z"/><path d="M380 459l238 89" stroke="#000" stroke-width="4" fill="none"/><path d="M380.7 457.13L380 459l-.08-2.16zM618 548l-15-.66 3.26-8.68z"/><path d="M618.12 545.54L618 548l.07 2-17.9-.78 5.18-13.84zm-12.27-.07l6.1.26-4.78-3.8z"/><path d="M380 669l240-273" stroke="#000" stroke-width="4" fill="none"/><path d="M381.5 670.32l-1.66 1.9.16-3.22zM614.06 409.77l-6.96-6.12L620 396z"/><path d="M620 396l.13 3.6.1.9-5.42 12.6-11.1-9.76 16.42-9.74zm-9.5 7.97l2.82 2.5 2.4-5.6z"/><path d="M720 396l220 73" stroke="#000" stroke-width="4" fill="none"/><path d="M720.63 394.1L720 396l-.08-2.13zM940 469l-15-.1 2.92-8.8z"/><path d="M940.12 466.6L940 469l.07 2-17.83-.1 4.65-14.03zm-12.35.32l6.1.04-4.92-3.6z"/><path d="M718 548l222-79" stroke="#000" stroke-width="4" fill="none"/><path d="M718.67 549.88l-.78.28.1-2.16zM928.1 478.15l-3.1-8.73 15-.42z"/><path d="M940 469l.1 2.46-12.95 9.95-4.95-13.9 17.9-.5zm-12.2 2.34l1.28 3.55 4.82-3.73z"/><path d="M1140 441.67h180v54.66h-180z" fill="none"/><use xlink:href="#h" transform="matrix(1,0,0,1,1145,446.66666666666663) translate(12.98828125 34.4921875)"/><path d="M1040 469h100" stroke="#000" stroke-width="4" fill="none"/><path d="M1040 471h-.1l.1-2-.07-2h.07zM1140 469l-14.27 4.64v-9.28z"/><path d="M1140 466.9v4.2l-16.27 5.3v-14.8zm-12.27 3.98l5.8-1.88-5.8-1.88z"/><defs><path d="M-.9 1.25H.9v1.32H-.9z" id="a"/><path d="M616-1102c361 0 521 202 521 560 0 354-171 562-527 562C259 20 92-192 92-542c0-351 169-560 524-560zm-9 930c200-2 236-165 236-370 0-199-27-367-223-367-195 0-233 146-233 367 0 129 18 223 55 282s92 88 165 88" id="i"/><path d="M471 20c-247 0-336-169-336-415v-687h281v607c4 148 31 285 172 285 152 0 207-150 207-312v-580h281c4 359-9 736 8 1082H816c-7-63-11-146-12-215h-5C736-76 644 20 471 20" id="j"/><path d="M711 13c-250 0-386-99-385-349l2-556H161v-190h181l88-282h176v282h385v190H606v530c-10 130 45 186 174 184 91-2 176-11 255-27v186C933-1 833 13 711 13" id="k"/><path d="M427-171c3 195 2 397 2 596H148V-846c1-83-4-168-8-236h272c10 49 14 118 15 176h4c59-114 151-197 316-197 291 0 385 259 385 560 0 243-65 433-220 521-50 28-109 42-176 42-162-2-253-78-309-191zm69-661c-91 113-92 463-1 586 46 62 145 101 225 54 96-57 118-191 119-351 0-123-18-215-53-276-46-82-128-115-220-74-25 12-48 33-70 61" id="l"/><g id="b"><use transform="matrix(0.015190972222222222,0,0,0.015190972222222222,0,0)" xlink:href="#i"/><use transform="matrix(0.015190972222222222,0,0,0.015190972222222222,18.66970486111111,0)" xlink:href="#j"/><use transform="matrix(0.015190972222222222,0,0,0.015190972222222222,37.33940972222222,0)" xlink:href="#k"/><use transform="matrix(0.015190972222222222,0,0,0.015190972222222222,56.00911458333333,0)" xlink:href="#l"/><use transform="matrix(0.015190972222222222,0,0,0.015190972222222222,74.67881944444444,0)" xlink:href="#j"/><use transform="matrix(0.015190972222222222,0,0,0.015190972222222222,93.34852430555556,0)" xlink:href="#k"/></g><path d="M794-190h353V0H118v-190h395v-1104H223v-190h571v1294" id="m"/><path d="M775-193C708-75 621 20 439 20 226 20 106-93 106-306c0-251 170-341 417-346l223-4c4-143-12-264-148-264-103 0-141 58-150 153l-293-14c37-219 194-321 455-321 263 0 418 130 417 390v392c1 84 5 161 89 160 21 0 42-2 62-6v152c-57 15-108 27-180 26-145 0-202-73-217-205h-6zm-256 17c168 0 234-139 227-325-166 4-347-25-347 173 0 94 33 152 120 152" id="n"/><path d="M143 212c82 12 185 12 233-31 50-45 83-117 110-192L38-1082h297c100 284 211 557 291 861 72-305 176-578 270-861h294L742 57c-80 192-156 368-417 368-60 0-131-4-182-13V212" id="o"/><path d="M1113-274C1038-96 884 20 626 20c-352 0-526-209-526-566 0-358 185-556 530-556 358 0 496 251 499 615H395c5 180 68 319 245 319 102 0 186-45 208-129zM857-663c-6-177-128-307-315-247-94 30-141 121-145 247h460" id="p"/><path d="M875-1102c70 0 148 7 206 17v237c-110-17-267-37-359 15-123 69-192 207-192 395V0H250c-10-367 32-789-52-1082h271c19 69 36 149 46 228h4c52-151 151-250 356-248" id="q"/><g id="c"><use transform="matrix(0.015190972222222222,0,0,0.015190972222222222,0,0)" xlink:href="#m"/><use transform="matrix(0.015190972222222222,0,0,0.015190972222222222,18.66970486111111,0)" xlink:href="#n"/><use transform="matrix(0.015190972222222222,0,0,0.015190972222222222,37.33940972222222,0)" xlink:href="#o"/><use transform="matrix(0.015190972222222222,0,0,0.015190972222222222,56.00911458333333,0)" xlink:href="#p"/><use transform="matrix(0.015190972222222222,0,0,0.015190972222222222,74.67881944444444,0)" xlink:href="#q"/></g><path d="M424-1484c-2 206 5 424-8 618h4c67-145 160-234 348-236 251-3 335 167 336 416V0H824v-621c0-150-23-276-173-270-163 7-227 142-227 312V0H143v-1484h281" id="r"/><path d="M794-190h353V0H118v-190h395v-702H223v-190h571v892zM513-1277v-207h281v207H513" id="s"/><path d="M802-909c-3-189-2-383-2-575h281v1248c-1 83 4 168 8 236H817c-9-50-14-117-15-176h-4C735-49 651 20 482 20 191 20 97-238 97-539c0-243 66-432 221-519 50-28 108-42 175-42 162 2 253 78 309 191zm-70 658c91-113 93-462 2-584-46-61-145-100-224-53-96 56-119 190-120 349 0 123 17 214 52 275 46 82 130 115 222 74 25-12 46-33 68-61" id="t"/><path d="M768-1103c247 0 336 167 336 416V0H824v-619c-3-164-24-273-171-273-164 0-229 142-229 312V0H143c-4-359 9-736-8-1082h268c7 63 12 146 13 215h4c67-145 160-236 348-236" id="u"/><g id="d"><use transform="matrix(0.015190972222222222,0,0,0.015190972222222222,0,0)" xlink:href="#r"/><use transform="matrix(0.015190972222222222,0,0,0.015190972222222222,18.66970486111111,0)" xlink:href="#s"/><use transform="matrix(0.015190972222222222,0,0,0.015190972222222222,37.33940972222222,0)" xlink:href="#t"/><use transform="matrix(0.015190972222222222,0,0,0.015190972222222222,56.00911458333333,0)" xlink:href="#t"/><use transform="matrix(0.015190972222222222,0,0,0.015190972222222222,74.67881944444444,0)" xlink:href="#p"/><use transform="matrix(0.015190972222222222,0,0,0.015190972222222222,93.34852430555556,0)" xlink:href="#u"/></g><g id="e"><use transform="matrix(0.015190972222222222,0,0,0.015190972222222222,0,0)" xlink:href="#m"/><use transform="matrix(0.015190972222222222,0,0,0.015190972222222222,18.66970486111111,0)" xlink:href="#n"/><use transform="matrix(0.015190972222222222,0,0,0.015190972222222222,37.33940972222222,0)" xlink:href="#o"/><use transform="matrix(0.015190972222222222,0,0,0.015190972222222222,56.00911458333333,0)" xlink:href="#p"/><use transform="matrix(0.015190972222222222,0,0,0.015190972222222222,74.67881944444444,0)" xlink:href="#q"/></g><g id="f"><use transform="matrix(0.015190972222222222,0,0,0.015190972222222222,0,0)" xlink:href="#s"/><use transform="matrix(0.015190972222222222,0,0,0.015190972222222222,18.66970486111111,0)" xlink:href="#u"/><use transform="matrix(0.015190972222222222,0,0,0.015190972222222222,37.33940972222222,0)" xlink:href="#l"/><use transform="matrix(0.015190972222222222,0,0,0.015190972222222222,56.00911458333333,0)" xlink:href="#j"/><use transform="matrix(0.015190972222222222,0,0,0.015190972222222222,74.67881944444444,0)" xlink:href="#k"/></g><path d="M615-1102c343 0 484 203 482 560-1 347-147 562-488 562-336 0-475-219-479-562-4-349 156-560 485-560zm-8 989c240 0 301-180 301-429 0-245-55-427-290-427-236 0-299 181-299 427 0 243 61 429 288 429" id="v"/><path d="M528 20c-247 0-343-132-343-381v-721h180v686c-4 177 45 284 224 277 194-8 279-136 279-336v-627h181c3 360-6 732 6 1082H885c-4-54-7-126-8-185h-3C809-64 714 20 528 20" id="w"/><path d="M682 16c-209 0-323-80-324-285v-671H190v-142h170l58-282h120v282h432v142H538v652c2 114 60 155 182 155 106 0 209-16 297-34v137C921-4 806 16 682 16" id="x"/><path d="M698-1104c312 3 392 244 392 558 0 315-82 566-392 566-169 0-277-65-331-184h-5c8 188 2 394 4 589H185V-858c0-76-1-156-6-224h175c6 52 9 120 10 178h4c58-122 150-202 330-200zm-49 991c225 0 255-203 255-433 0-225-32-419-253-419-236 0-285 192-285 441 0 237 53 411 283 411" id="y"/><g id="h"><use transform="matrix(0.01953125,0,0,0.01953125,0,0)" xlink:href="#v"/><use transform="matrix(0.01953125,0,0,0.01953125,24.00390625,0)" xlink:href="#w"/><use transform="matrix(0.01953125,0,0,0.01953125,48.0078125,0)" xlink:href="#x"/><use transform="matrix(0.01953125,0,0,0.01953125,72.01171875,0)" xlink:href="#y"/><use transform="matrix(0.01953125,0,0,0.01953125,96.015625,0)" xlink:href="#w"/><use transform="matrix(0.01953125,0,0,0.01953125,120.01953125,0)" xlink:href="#x"/></g></defs></g></svg>