<svg width="1144pt" height="152pt" xmlns="http://www.w3.org/2000/svg" style="animation-delay: 0s; animation-direction: normal; animation-duration: 0s; animation-fill-mode: none; animation-iteration-count: 1; animation-name: none; animation-play-state: running; animation-timing-function: ease; background-attachment: scroll; background-blend-mode: normal; background-clip: border-box; background-color: rgba(0, 0, 0, 0); background-image: none; background-origin: padding-box; background-position: 0% 0%; background-repeat: repeat; background-size: auto; border-bottom-color: rgb(0, 0, 0); border-bottom-left-radius: 0px; border-bottom-right-radius: 0px; border-bottom-style: none; border-bottom-width: 0px; border-collapse: separate; border-image-outset: 0px; border-image-repeat: stretch; border-image-slice: 100%; border-image-source: none; border-image-width: 1; border-left-color: rgb(0, 0, 0); border-left-style: none; border-left-width: 0px; border-right-color: rgb(0, 0, 0); border-right-style: none; border-right-width: 0px; border-top-color: rgb(0, 0, 0); border-top-left-radius: 0px; border-top-right-radius: 0px; border-top-style: none; border-top-width: 0px; bottom: auto; box-shadow: none; box-sizing: content-box; break-after: auto; break-before: auto; break-inside: auto; caption-side: top; clear: none; clip: auto; color: rgb(0, 0, 0); content: ; cursor: auto; direction: ltr; display: inline; empty-cells: show; float: none; font-family: Times; font-kerning: auto; font-size: 16px; font-stretch: normal; font-style: normal; font-variant: normal; font-variant-ligatures: normal; font-variant-caps: normal; font-variant-numeric: normal; font-weight: normal; height: 202.656px; image-rendering: auto; isolation: auto; left: auto; letter-spacing: normal; line-height: normal; list-style-image: none; list-style-position: outside; list-style-type: disc; margin-bottom: 0px; margin-left: 0px; margin-right: 0px; margin-top: 0px; max-height: none; max-width: none; min-height: 0px; min-width: 0px; mix-blend-mode: normal; motion-offset: 0px; motion-path: none; motion-rotation: auto 0deg; object-fit: fill; object-position: 50% 50%; opacity: 1; orphans: 2; outline-color: rgb(0, 0, 0); outline-offset: 0px; outline-style: none; outline-width: 0px; overflow-wrap: normal; overflow-x: hidden; overflow-y: hidden; padding-bottom: 0px; padding-left: 0px; padding-right: 0px; padding-top: 0px; pointer-events: auto; position: static; resize: none; right: auto; speak: normal; table-layout: auto; tab-size: 8; text-align: start; text-align-last: auto; text-decoration: none; text-indent: 0px; text-rendering: auto; text-shadow: none; text-size-adjust: auto; text-overflow: clip; text-transform: none; top: auto; touch-action: auto; transition-delay: 0s; transition-duration: 0s; transition-property: all; transition-timing-function: ease; unicode-bidi: normal; vertical-align: baseline; visibility: visible; white-space: normal; widows: 2; width: 1525.33px; will-change: auto; word-break: normal; word-spacing: 0px; word-wrap: normal; z-index: auto; zoom: 1; -webkit-appearance: none; backface-visibility: visible; -webkit-background-clip: border-box; -webkit-background-origin: padding-box; -webkit-border-horizontal-spacing: 0px; -webkit-border-image: none; -webkit-border-vertical-spacing: 0px; -webkit-box-align: stretch; -webkit-box-decoration-break: slice; -webkit-box-direction: normal; -webkit-box-flex: 0; -webkit-box-flex-group: 1; -webkit-box-lines: single; -webkit-box-ordinal-group: 1; -webkit-box-orient: horizontal; -webkit-box-pack: start; -webkit-box-reflect: none; -webkit-clip-path: none; column-count: auto; column-gap: normal; column-rule-color: rgb(0, 0, 0); column-rule-style: none; column-rule-width: 0px; column-span: none; column-width: auto; align-content: stretch; align-items: stretch; align-self: stretch; flex-basis: auto; flex-grow: 0; flex-shrink: 1; flex-direction: row; flex-wrap: nowrap; justify-content: flex-start; -webkit-font-smoothing: auto; -webkit-highlight: none; -webkit-hyphenate-character: auto; -webkit-line-break: auto; -webkit-line-clamp: none; -webkit-locale: auto; -webkit-margin-before-collapse: collapse; -webkit-margin-after-collapse: collapse; -webkit-mask-box-image: none; -webkit-mask-box-image-outset: 0px; -webkit-mask-box-image-repeat: stretch; -webkit-mask-box-image-slice: 0 fill; -webkit-mask-box-image-source: none; -webkit-mask-box-image-width: auto; -webkit-mask-clip: border-box; -webkit-mask-composite: source-over; -webkit-mask-image: none; -webkit-mask-origin: border-box; -webkit-mask-position: 0% 0%; -webkit-mask-repeat: repeat; -webkit-mask-size: auto; order: 0; perspective: none; perspective-origin: 762.656px 101.328px; -webkit-print-color-adjust: economy; -webkit-rtl-ordering: logical; shape-outside: none; shape-image-threshold: 0; shape-margin: 0px; -webkit-tap-highlight-color: rgba(0, 0, 0, 0.4); -webkit-text-combine: none; -webkit-text-decorations-in-effect: none; -webkit-text-emphasis-color: rgb(0, 0, 0); -webkit-text-emphasis-position: over; -webkit-text-emphasis-style: none; -webkit-text-fill-color: rgb(0, 0, 0); -webkit-text-orientation: vertical-right; -webkit-text-security: none; -webkit-text-stroke-color: rgb(0, 0, 0); -webkit-text-stroke-width: 0px; transform: none; transform-origin: 762.656px 101.328px; transform-style: flat; -webkit-user-drag: auto; -webkit-user-modify: read-only; user-select: text; -webkit-writing-mode: horizontal-tb; -webkit-app-region: no-drag; buffered-rendering: auto; clip-path: none; clip-rule: nonzero; mask: none; filter: none; flood-color: rgb(0, 0, 0); flood-opacity: 1; lighting-color: rgb(255, 255, 255); stop-color: rgb(0, 0, 0); stop-opacity: 1; color-interpolation: sRGB; color-interpolation-filters: linearRGB; color-rendering: auto; fill: rgb(0, 0, 0); fill-opacity: 1; fill-rule: nonzero; marker-end: none; marker-mid: none; marker-start: none; mask-type: luminance; shape-rendering: auto; stroke: none; stroke-dasharray: none; stroke-dashoffset: 0px; stroke-linecap: butt; stroke-linejoin: miter; stroke-miterlimit: 4; stroke-opacity: 1; stroke-width: 1px; alignment-baseline: auto; baseline-shift: 0px; dominant-baseline: auto; text-anchor: start; writing-mode: horizontal-tb; vector-effect: none; paint-order: fill stroke markers; d: none; cx: 0px; cy: 0px; x: 0px; y: 0px; r: 0px; rx: auto; ry: auto;" version="1.1" xmlns:xlink="http://www.w3.org/1999/xlink"><style type="text/css"></style><svg xmlns="http://www.w3.org/2000/svg" viewBox="0.00 0.00 1144.00 152.00" xmlns:xlink="http://www.w3.org/1999/xlink">
<g id="graph1" class="graph" transform="scale(1 1) rotate(0) translate(4 148)">
<title>G</title>
<polygon fill="white" stroke="white" points="-4,5 -4,-148 1141,-148 1141,5 -4,5"/>
<!-- x0 -->
<g id="node1" class="node"><title>x0</title>
<ellipse fill="lightgrey" stroke="black" cx="27" cy="-126" rx="27" ry="18"/>
<text text-anchor="middle" x="27" y="-121.8" font-family="Times,serif" font-size="14.00">x0</text>
</g>
<!-- h10 -->
<g id="node4" class="node"><title>h10</title>
<ellipse fill="none" stroke="black" cx="146" cy="-126" rx="45.7848" ry="18"/>
<text text-anchor="middle" x="146" y="-121.8" font-family="Times,serif" font-size="14.00">ReLU(0)</text>
</g>
<!-- x0&#45;&gt;h10 -->
<g id="edge2" class="edge"><title>x0-&gt;h10</title>
<path fill="none" stroke="black" d="M54.2571,-126C64.7843,-126 77.3373,-126 89.6992,-126"/>
<polygon fill="black" stroke="black" points="89.9896,-129.5 99.9896,-126 89.9896,-122.5 89.9896,-129.5"/>
</g>
<!-- h1dot -->
<g id="node10" class="node"><title>h1dot</title>
<ellipse fill="none" stroke="black" cx="146" cy="-72" rx="27" ry="18"/>
<text text-anchor="middle" x="146" y="-67.8" font-family="Times,serif" font-size="14.00">...</text>
</g>
<!-- x0&#45;&gt;h1dot -->
<g id="edge4" class="edge"><title>x0-&gt;h1dot</title>
<path fill="none" stroke="black" d="M49.7326,-115.97C67.8745,-107.596 93.95,-95.5616 114.236,-86.1988"/>
<polygon fill="black" stroke="black" points="115.771,-89.3452 123.384,-81.9767 112.837,-82.9895 115.771,-89.3452"/>
</g>
<!-- h1499 -->
<g id="node16" class="node"><title>h1499</title>
<ellipse fill="none" stroke="black" cx="146" cy="-18" rx="55.5985" ry="18"/>
<text text-anchor="middle" x="146" y="-13.8" font-family="Times,serif" font-size="14.00">ReLU(499)</text>
</g>
<!-- x0&#45;&gt;h1499 -->
<g id="edge6" class="edge"><title>x0-&gt;h1499</title>
<path fill="none" stroke="black" d="M43.7791,-111.435C63.0569,-93.6398 95.9438,-63.2826 118.985,-42.0134"/>
<polygon fill="black" stroke="black" points="121.414,-44.5347 126.388,-35.1801 116.666,-39.3911 121.414,-44.5347"/>
</g>
<!-- xdot -->
<g id="node2" class="node"><title>xdot</title>
<ellipse fill="lightgrey" stroke="black" cx="27" cy="-72" rx="27" ry="18"/>
<text text-anchor="middle" x="27" y="-67.8" font-family="Times,serif" font-size="14.00">...</text>
</g>
<!-- xdot&#45;&gt;h10 -->
<g id="edge8" class="edge"><title>xdot-&gt;h10</title>
<path fill="none" stroke="black" d="M49.7326,-82.0304C65.562,-89.3363 87.4314,-99.4299 106.225,-108.104"/>
<polygon fill="black" stroke="black" points="104.897,-111.345 115.443,-112.358 107.83,-104.99 104.897,-111.345"/>
</g>
<!-- xdot&#45;&gt;h1dot -->
<g id="edge10" class="edge"><title>xdot-&gt;h1dot</title>
<path fill="none" stroke="black" d="M54.2571,-72C70.2142,-72 90.8259,-72 108.371,-72"/>
<polygon fill="black" stroke="black" points="108.831,-75.5001 118.831,-72 108.831,-68.5001 108.831,-75.5001"/>
</g>
<!-- xdot&#45;&gt;h1499 -->
<g id="edge12" class="edge"><title>xdot-&gt;h1499</title>
<path fill="none" stroke="black" d="M49.7326,-61.9696C64.927,-54.9568 85.6865,-45.3755 103.949,-36.9467"/>
<polygon fill="black" stroke="black" points="105.616,-40.0323 113.228,-32.6638 102.682,-33.6766 105.616,-40.0323"/>
</g>
<!-- x20 -->
<g id="node3" class="node"><title>x20</title>
<ellipse fill="lightgrey" stroke="black" cx="27" cy="-18" rx="27" ry="18"/>
<text text-anchor="middle" x="27" y="-13.8" font-family="Times,serif" font-size="14.00">x20</text>
</g>
<!-- x20&#45;&gt;h10 -->
<g id="edge14" class="edge"><title>x20-&gt;h10</title>
<path fill="none" stroke="black" d="M43.7791,-32.5654C63.2811,-50.5671 96.7105,-81.425 119.785,-102.725"/>
<polygon fill="black" stroke="black" points="117.456,-105.338 127.179,-109.549 122.204,-100.195 117.456,-105.338"/>
</g>
<!-- x20&#45;&gt;h1dot -->
<g id="edge16" class="edge"><title>x20-&gt;h1dot</title>
<path fill="none" stroke="black" d="M49.7326,-28.0304C67.8745,-36.4036 93.95,-48.4384 114.236,-57.8012"/>
<polygon fill="black" stroke="black" points="112.837,-61.0105 123.384,-62.0233 115.771,-54.6548 112.837,-61.0105"/>
</g>
<!-- x20&#45;&gt;h1499 -->
<g id="edge18" class="edge"><title>x20-&gt;h1499</title>
<path fill="none" stroke="black" d="M54.2571,-18C61.9914,-18 70.8192,-18 79.8614,-18"/>
<polygon fill="black" stroke="black" points="80.1145,-21.5001 90.1145,-18 80.1144,-14.5001 80.1145,-21.5001"/>
</g>
<!-- h20 -->
<g id="node5" class="node"><title>h20</title>
<ellipse fill="none" stroke="black" cx="294" cy="-126" rx="45.7848" ry="18"/>
<text text-anchor="middle" x="294" y="-121.8" font-family="Times,serif" font-size="14.00">ReLU(0)</text>
</g>
<!-- h10&#45;&gt;h20 -->
<g id="edge20" class="edge"><title>h10-&gt;h20</title>
<path fill="none" stroke="black" d="M191.996,-126C206.428,-126 222.581,-126 237.664,-126"/>
<polygon fill="black" stroke="black" points="237.901,-129.5 247.901,-126 237.901,-122.5 237.901,-129.5"/>
</g>
<!-- h2dot -->
<g id="node11" class="node"><title>h2dot</title>
<ellipse fill="none" stroke="black" cx="294" cy="-72" rx="27" ry="18"/>
<text text-anchor="middle" x="294" y="-67.8" font-family="Times,serif" font-size="14.00">...</text>
</g>
<!-- h10&#45;&gt;h2dot -->
<g id="edge22" class="edge"><title>h10-&gt;h2dot</title>
<path fill="none" stroke="black" d="M180.13,-113.747C204.129,-104.87 236.421,-92.9266 260.316,-84.0886"/>
<polygon fill="black" stroke="black" points="261.829,-87.2607 269.994,-80.509 259.401,-80.6953 261.829,-87.2607"/>
</g>
<!-- h2499 -->
<g id="node17" class="node"><title>h2499</title>
<ellipse fill="none" stroke="black" cx="294" cy="-18" rx="55.5985" ry="18"/>
<text text-anchor="middle" x="294" y="-13.8" font-family="Times,serif" font-size="14.00">ReLU(499)</text>
</g>
<!-- h10&#45;&gt;h2499 -->
<g id="edge24" class="edge"><title>h10-&gt;h2499</title>
<path fill="none" stroke="black" d="M168.543,-110.064C193.271,-91.772 234.028,-61.6234 262.126,-40.8385"/>
<polygon fill="black" stroke="black" points="264.45,-43.473 270.408,-34.7121 260.287,-37.8454 264.45,-43.473"/>
</g>
<!-- h30 -->
<g id="node6" class="node"><title>h30</title>
<ellipse fill="none" stroke="black" cx="442" cy="-126" rx="45.7848" ry="18"/>
<text text-anchor="middle" x="442" y="-121.8" font-family="Times,serif" font-size="14.00">ReLU(0)</text>
</g>
<!-- h20&#45;&gt;h30 -->
<g id="edge38" class="edge"><title>h20-&gt;h30</title>
<path fill="none" stroke="black" d="M339.996,-126C354.428,-126 370.581,-126 385.664,-126"/>
<polygon fill="black" stroke="black" points="385.901,-129.5 395.901,-126 385.901,-122.5 385.901,-129.5"/>
</g>
<!-- h3dot -->
<g id="node12" class="node"><title>h3dot</title>
<ellipse fill="none" stroke="black" cx="442" cy="-72" rx="27" ry="18"/>
<text text-anchor="middle" x="442" y="-67.8" font-family="Times,serif" font-size="14.00">...</text>
</g>
<!-- h20&#45;&gt;h3dot -->
<g id="edge40" class="edge"><title>h20-&gt;h3dot</title>
<path fill="none" stroke="black" d="M328.13,-113.747C352.129,-104.87 384.421,-92.9266 408.316,-84.0886"/>
<polygon fill="black" stroke="black" points="409.829,-87.2607 417.994,-80.509 407.401,-80.6953 409.829,-87.2607"/>
</g>
<!-- h3499 -->
<g id="node18" class="node"><title>h3499</title>
<ellipse fill="none" stroke="black" cx="442" cy="-18" rx="55.5985" ry="18"/>
<text text-anchor="middle" x="442" y="-13.8" font-family="Times,serif" font-size="14.00">ReLU(499)</text>
</g>
<!-- h20&#45;&gt;h3499 -->
<g id="edge42" class="edge"><title>h20-&gt;h3499</title>
<path fill="none" stroke="black" d="M316.543,-110.064C341.271,-91.772 382.028,-61.6234 410.126,-40.8385"/>
<polygon fill="black" stroke="black" points="412.45,-43.473 418.408,-34.7121 408.287,-37.8454 412.45,-43.473"/>
</g>
<!-- h40 -->
<g id="node7" class="node"><title>h40</title>
<ellipse fill="none" stroke="black" cx="590" cy="-126" rx="45.7848" ry="18"/>
<text text-anchor="middle" x="590" y="-121.8" font-family="Times,serif" font-size="14.00">ReLU(0)</text>
</g>
<!-- h30&#45;&gt;h40 -->
<g id="edge56" class="edge"><title>h30-&gt;h40</title>
<path fill="none" stroke="black" d="M487.996,-126C502.428,-126 518.581,-126 533.664,-126"/>
<polygon fill="black" stroke="black" points="533.901,-129.5 543.901,-126 533.901,-122.5 533.901,-129.5"/>
</g>
<!-- h4dot -->
<g id="node13" class="node"><title>h4dot</title>
<ellipse fill="none" stroke="black" cx="590" cy="-72" rx="27" ry="18"/>
<text text-anchor="middle" x="590" y="-67.8" font-family="Times,serif" font-size="14.00">...</text>
</g>
<!-- h30&#45;&gt;h4dot -->
<g id="edge58" class="edge"><title>h30-&gt;h4dot</title>
<path fill="none" stroke="black" d="M476.13,-113.747C500.129,-104.87 532.421,-92.9266 556.316,-84.0886"/>
<polygon fill="black" stroke="black" points="557.829,-87.2607 565.994,-80.509 555.401,-80.6953 557.829,-87.2607"/>
</g>
<!-- h4499 -->
<g id="node19" class="node"><title>h4499</title>
<ellipse fill="none" stroke="black" cx="590" cy="-18" rx="55.5985" ry="18"/>
<text text-anchor="middle" x="590" y="-13.8" font-family="Times,serif" font-size="14.00">ReLU(499)</text>
</g>
<!-- h30&#45;&gt;h4499 -->
<g id="edge60" class="edge"><title>h30-&gt;h4499</title>
<path fill="none" stroke="black" d="M464.543,-110.064C489.271,-91.772 530.028,-61.6234 558.126,-40.8385"/>
<polygon fill="black" stroke="black" points="560.45,-43.473 566.408,-34.7121 556.287,-37.8454 560.45,-43.473"/>
</g>
<!-- h50 -->
<g id="node8" class="node"><title>h50</title>
<ellipse fill="none" stroke="black" cx="738" cy="-126" rx="45.7848" ry="18"/>
<text text-anchor="middle" x="738" y="-121.8" font-family="Times,serif" font-size="14.00">ReLU(0)</text>
</g>
<!-- h40&#45;&gt;h50 -->
<g id="edge74" class="edge"><title>h40-&gt;h50</title>
<path fill="none" stroke="black" d="M635.996,-126C650.428,-126 666.581,-126 681.664,-126"/>
<polygon fill="black" stroke="black" points="681.901,-129.5 691.901,-126 681.901,-122.5 681.901,-129.5"/>
</g>
<!-- h5dot -->
<g id="node14" class="node"><title>h5dot</title>
<ellipse fill="none" stroke="black" cx="738" cy="-72" rx="27" ry="18"/>
<text text-anchor="middle" x="738" y="-67.8" font-family="Times,serif" font-size="14.00">...</text>
</g>
<!-- h40&#45;&gt;h5dot -->
<g id="edge76" class="edge"><title>h40-&gt;h5dot</title>
<path fill="none" stroke="black" d="M624.13,-113.747C648.129,-104.87 680.421,-92.9266 704.316,-84.0886"/>
<polygon fill="black" stroke="black" points="705.829,-87.2607 713.994,-80.509 703.401,-80.6953 705.829,-87.2607"/>
</g>
<!-- h5499 -->
<g id="node20" class="node"><title>h5499</title>
<ellipse fill="none" stroke="black" cx="738" cy="-18" rx="55.5985" ry="18"/>
<text text-anchor="middle" x="738" y="-13.8" font-family="Times,serif" font-size="14.00">ReLU(499)</text>
</g>
<!-- h40&#45;&gt;h5499 -->
<g id="edge78" class="edge"><title>h40-&gt;h5499</title>
<path fill="none" stroke="black" d="M612.543,-110.064C637.271,-91.772 678.028,-61.6234 706.126,-40.8385"/>
<polygon fill="black" stroke="black" points="708.45,-43.473 714.408,-34.7121 704.287,-37.8454 708.45,-43.473"/>
</g>
<!-- h60 -->
<g id="node9" class="node"><title>h60</title>
<ellipse fill="none" stroke="black" cx="886" cy="-126" rx="45.7848" ry="18"/>
<text text-anchor="middle" x="886" y="-121.8" font-family="Times,serif" font-size="14.00">ReLU(0)</text>
</g>
<!-- h50&#45;&gt;h60 -->
<g id="edge92" class="edge"><title>h50-&gt;h60</title>
<path fill="none" stroke="black" d="M783.996,-126C798.428,-126 814.581,-126 829.664,-126"/>
<polygon fill="black" stroke="black" points="829.901,-129.5 839.901,-126 829.901,-122.5 829.901,-129.5"/>
</g>
<!-- h6dot -->
<g id="node15" class="node"><title>h6dot</title>
<ellipse fill="none" stroke="black" cx="886" cy="-72" rx="27" ry="18"/>
<text text-anchor="middle" x="886" y="-67.8" font-family="Times,serif" font-size="14.00">...</text>
</g>
<!-- h50&#45;&gt;h6dot -->
<g id="edge94" class="edge"><title>h50-&gt;h6dot</title>
<path fill="none" stroke="black" d="M772.13,-113.747C796.129,-104.87 828.421,-92.9266 852.316,-84.0886"/>
<polygon fill="black" stroke="black" points="853.829,-87.2607 861.994,-80.509 851.401,-80.6953 853.829,-87.2607"/>
</g>
<!-- h6499 -->
<g id="node21" class="node"><title>h6499</title>
<ellipse fill="none" stroke="black" cx="886" cy="-18" rx="55.5985" ry="18"/>
<text text-anchor="middle" x="886" y="-13.8" font-family="Times,serif" font-size="14.00">ReLU(499)</text>
</g>
<!-- h50&#45;&gt;h6499 -->
<g id="edge96" class="edge"><title>h50-&gt;h6499</title>
<path fill="none" stroke="black" d="M760.543,-110.064C785.271,-91.772 826.028,-61.6234 854.126,-40.8385"/>
<polygon fill="black" stroke="black" points="856.45,-43.473 862.408,-34.7121 852.287,-37.8454 856.45,-43.473"/>
</g>
<!-- y -->
<g id="node22" class="node"><title>y</title>
<ellipse fill="#ff6a6a" stroke="#ff6a6a" cx="1005" cy="-72" rx="27" ry="18"/>
<text text-anchor="middle" x="1005" y="-67.8" font-family="Times,serif" font-size="14.00">y</text>
</g>
<!-- h60&#45;&gt;y -->
<g id="edge110" class="edge"><title>h60-&gt;y</title>
<path fill="none" stroke="black" d="M916.524,-112.374C933.774,-104.412 955.52,-94.3752 973.015,-86.3006"/>
<polygon fill="black" stroke="black" points="974.629,-89.4108 982.242,-82.0423 971.695,-83.0551 974.629,-89.4108"/>
</g>
<!-- h1dot&#45;&gt;h20 -->
<g id="edge26" class="edge"><title>h1dot-&gt;h20</title>
<path fill="none" stroke="black" d="M170.134,-80.5565C191.595,-88.494 224.069,-100.505 250.243,-110.186"/>
<polygon fill="black" stroke="black" points="249.336,-113.582 259.93,-113.768 251.765,-107.017 249.336,-113.582"/>
</g>
<!-- h1dot&#45;&gt;h2dot -->
<g id="edge28" class="edge"><title>h1dot-&gt;h2dot</title>
<path fill="none" stroke="black" d="M173.102,-72C196.314,-72 230.498,-72 256.432,-72"/>
<polygon fill="black" stroke="black" points="256.632,-75.5001 266.632,-72 256.632,-68.5001 256.632,-75.5001"/>
</g>
<!-- h1dot&#45;&gt;h2499 -->
<g id="edge30" class="edge"><title>h1dot-&gt;h2499</title>
<path fill="none" stroke="black" d="M170.134,-63.4435C190.739,-55.8225 221.497,-44.4462 247.083,-34.9828"/>
<polygon fill="black" stroke="black" points="248.44,-38.2131 256.604,-31.4614 246.011,-31.6477 248.44,-38.2131"/>
</g>
<!-- h2dot&#45;&gt;h30 -->
<g id="edge44" class="edge"><title>h2dot-&gt;h30</title>
<path fill="none" stroke="black" d="M318.134,-80.5565C339.595,-88.494 372.069,-100.505 398.243,-110.186"/>
<polygon fill="black" stroke="black" points="397.336,-113.582 407.93,-113.768 399.765,-107.017 397.336,-113.582"/>
</g>
<!-- h2dot&#45;&gt;h3dot -->
<g id="edge46" class="edge"><title>h2dot-&gt;h3dot</title>
<path fill="none" stroke="black" d="M321.102,-72C344.314,-72 378.498,-72 404.432,-72"/>
<polygon fill="black" stroke="black" points="404.632,-75.5001 414.632,-72 404.632,-68.5001 404.632,-75.5001"/>
</g>
<!-- h2dot&#45;&gt;h3499 -->
<g id="edge48" class="edge"><title>h2dot-&gt;h3499</title>
<path fill="none" stroke="black" d="M318.134,-63.4435C338.739,-55.8225 369.497,-44.4462 395.083,-34.9828"/>
<polygon fill="black" stroke="black" points="396.44,-38.2131 404.604,-31.4614 394.011,-31.6477 396.44,-38.2131"/>
</g>
<!-- h3dot&#45;&gt;h40 -->
<g id="edge62" class="edge"><title>h3dot-&gt;h40</title>
<path fill="none" stroke="black" d="M466.134,-80.5565C487.595,-88.494 520.069,-100.505 546.243,-110.186"/>
<polygon fill="black" stroke="black" points="545.336,-113.582 555.93,-113.768 547.765,-107.017 545.336,-113.582"/>
</g>
<!-- h3dot&#45;&gt;h4dot -->
<g id="edge64" class="edge"><title>h3dot-&gt;h4dot</title>
<path fill="none" stroke="black" d="M469.102,-72C492.314,-72 526.498,-72 552.432,-72"/>
<polygon fill="black" stroke="black" points="552.632,-75.5001 562.632,-72 552.632,-68.5001 552.632,-75.5001"/>
</g>
<!-- h3dot&#45;&gt;h4499 -->
<g id="edge66" class="edge"><title>h3dot-&gt;h4499</title>
<path fill="none" stroke="black" d="M466.134,-63.4435C486.739,-55.8225 517.497,-44.4462 543.083,-34.9828"/>
<polygon fill="black" stroke="black" points="544.44,-38.2131 552.604,-31.4614 542.011,-31.6477 544.44,-38.2131"/>
</g>
<!-- h4dot&#45;&gt;h50 -->
<g id="edge80" class="edge"><title>h4dot-&gt;h50</title>
<path fill="none" stroke="black" d="M614.134,-80.5565C635.595,-88.494 668.069,-100.505 694.243,-110.186"/>
<polygon fill="black" stroke="black" points="693.336,-113.582 703.93,-113.768 695.765,-107.017 693.336,-113.582"/>
</g>
<!-- h4dot&#45;&gt;h5dot -->
<g id="edge82" class="edge"><title>h4dot-&gt;h5dot</title>
<path fill="none" stroke="black" d="M617.102,-72C640.314,-72 674.498,-72 700.432,-72"/>
<polygon fill="black" stroke="black" points="700.632,-75.5001 710.632,-72 700.632,-68.5001 700.632,-75.5001"/>
</g>
<!-- h4dot&#45;&gt;h5499 -->
<g id="edge84" class="edge"><title>h4dot-&gt;h5499</title>
<path fill="none" stroke="black" d="M614.134,-63.4435C634.739,-55.8225 665.497,-44.4462 691.083,-34.9828"/>
<polygon fill="black" stroke="black" points="692.44,-38.2131 700.604,-31.4614 690.011,-31.6477 692.44,-38.2131"/>
</g>
<!-- h5dot&#45;&gt;h60 -->
<g id="edge98" class="edge"><title>h5dot-&gt;h60</title>
<path fill="none" stroke="black" d="M762.134,-80.5565C783.595,-88.494 816.069,-100.505 842.243,-110.186"/>
<polygon fill="black" stroke="black" points="841.336,-113.582 851.93,-113.768 843.765,-107.017 841.336,-113.582"/>
</g>
<!-- h5dot&#45;&gt;h6dot -->
<g id="edge100" class="edge"><title>h5dot-&gt;h6dot</title>
<path fill="none" stroke="black" d="M765.102,-72C788.314,-72 822.498,-72 848.432,-72"/>
<polygon fill="black" stroke="black" points="848.632,-75.5001 858.632,-72 848.632,-68.5001 848.632,-75.5001"/>
</g>
<!-- h5dot&#45;&gt;h6499 -->
<g id="edge102" class="edge"><title>h5dot-&gt;h6499</title>
<path fill="none" stroke="black" d="M762.134,-63.4435C782.739,-55.8225 813.497,-44.4462 839.083,-34.9828"/>
<polygon fill="black" stroke="black" points="840.44,-38.2131 848.604,-31.4614 838.011,-31.6477 840.44,-38.2131"/>
</g>
<!-- h6dot&#45;&gt;y -->
<g id="edge112" class="edge"><title>h6dot-&gt;y</title>
<path fill="none" stroke="black" d="M913.257,-72C929.214,-72 949.826,-72 967.371,-72"/>
<polygon fill="black" stroke="black" points="967.831,-75.5001 977.831,-72 967.831,-68.5001 967.831,-75.5001"/>
</g>
<!-- h1499&#45;&gt;h20 -->
<g id="edge32" class="edge"><title>h1499-&gt;h20</title>
<path fill="none" stroke="black" d="M169.174,-34.4029C194.332,-53.0129 235.479,-83.4499 263.371,-104.083"/>
<polygon fill="black" stroke="black" points="261.449,-107.014 271.57,-110.148 265.612,-101.387 261.449,-107.014"/>
</g>
<!-- h1499&#45;&gt;h2dot -->
<g id="edge34" class="edge"><title>h1499-&gt;h2dot</title>
<path fill="none" stroke="black" d="M183.465,-31.4872C207.009,-40.1951 237.384,-51.4296 260.173,-59.8584"/>
<polygon fill="black" stroke="black" points="259.152,-63.2124 269.745,-63.3988 261.58,-56.6471 259.152,-63.2124"/>
</g>
<!-- h1499&#45;&gt;h2499 -->
<g id="edge36" class="edge"><title>h1499-&gt;h2499</title>
<path fill="none" stroke="black" d="M201.78,-18C210.388,-18 219.356,-18 228.164,-18"/>
<polygon fill="black" stroke="black" points="228.398,-21.5001 238.398,-18 228.398,-14.5001 228.398,-21.5001"/>
</g>
<!-- h2499&#45;&gt;h30 -->
<g id="edge50" class="edge"><title>h2499-&gt;h30</title>
<path fill="none" stroke="black" d="M317.174,-34.4029C342.332,-53.0129 383.479,-83.4499 411.371,-104.083"/>
<polygon fill="black" stroke="black" points="409.449,-107.014 419.57,-110.148 413.612,-101.387 409.449,-107.014"/>
</g>
<!-- h2499&#45;&gt;h3dot -->
<g id="edge52" class="edge"><title>h2499-&gt;h3dot</title>
<path fill="none" stroke="black" d="M331.465,-31.4872C355.009,-40.1951 385.384,-51.4296 408.173,-59.8584"/>
<polygon fill="black" stroke="black" points="407.152,-63.2124 417.745,-63.3988 409.58,-56.6471 407.152,-63.2124"/>
</g>
<!-- h2499&#45;&gt;h3499 -->
<g id="edge54" class="edge"><title>h2499-&gt;h3499</title>
<path fill="none" stroke="black" d="M349.78,-18C358.388,-18 367.356,-18 376.164,-18"/>
<polygon fill="black" stroke="black" points="376.398,-21.5001 386.398,-18 376.398,-14.5001 376.398,-21.5001"/>
</g>
<!-- h3499&#45;&gt;h40 -->
<g id="edge68" class="edge"><title>h3499-&gt;h40</title>
<path fill="none" stroke="black" d="M465.174,-34.4029C490.332,-53.0129 531.479,-83.4499 559.371,-104.083"/>
<polygon fill="black" stroke="black" points="557.449,-107.014 567.57,-110.148 561.612,-101.387 557.449,-107.014"/>
</g>
<!-- h3499&#45;&gt;h4dot -->
<g id="edge70" class="edge"><title>h3499-&gt;h4dot</title>
<path fill="none" stroke="black" d="M479.465,-31.4872C503.009,-40.1951 533.384,-51.4296 556.173,-59.8584"/>
<polygon fill="black" stroke="black" points="555.152,-63.2124 565.745,-63.3988 557.58,-56.6471 555.152,-63.2124"/>
</g>
<!-- h3499&#45;&gt;h4499 -->
<g id="edge72" class="edge"><title>h3499-&gt;h4499</title>
<path fill="none" stroke="black" d="M497.78,-18C506.388,-18 515.356,-18 524.164,-18"/>
<polygon fill="black" stroke="black" points="524.398,-21.5001 534.398,-18 524.398,-14.5001 524.398,-21.5001"/>
</g>
<!-- h4499&#45;&gt;h50 -->
<g id="edge86" class="edge"><title>h4499-&gt;h50</title>
<path fill="none" stroke="black" d="M613.174,-34.4029C638.332,-53.0129 679.479,-83.4499 707.371,-104.083"/>
<polygon fill="black" stroke="black" points="705.449,-107.014 715.57,-110.148 709.612,-101.387 705.449,-107.014"/>
</g>
<!-- h4499&#45;&gt;h5dot -->
<g id="edge88" class="edge"><title>h4499-&gt;h5dot</title>
<path fill="none" stroke="black" d="M627.465,-31.4872C651.009,-40.1951 681.384,-51.4296 704.173,-59.8584"/>
<polygon fill="black" stroke="black" points="703.152,-63.2124 713.745,-63.3988 705.58,-56.6471 703.152,-63.2124"/>
</g>
<!-- h4499&#45;&gt;h5499 -->
<g id="edge90" class="edge"><title>h4499-&gt;h5499</title>
<path fill="none" stroke="black" d="M645.78,-18C654.388,-18 663.356,-18 672.164,-18"/>
<polygon fill="black" stroke="black" points="672.398,-21.5001 682.398,-18 672.398,-14.5001 672.398,-21.5001"/>
</g>
<!-- h5499&#45;&gt;h60 -->
<g id="edge104" class="edge"><title>h5499-&gt;h60</title>
<path fill="none" stroke="black" d="M761.174,-34.4029C786.332,-53.0129 827.479,-83.4499 855.371,-104.083"/>
<polygon fill="black" stroke="black" points="853.449,-107.014 863.57,-110.148 857.612,-101.387 853.449,-107.014"/>
</g>
<!-- h5499&#45;&gt;h6dot -->
<g id="edge106" class="edge"><title>h5499-&gt;h6dot</title>
<path fill="none" stroke="black" d="M775.465,-31.4872C799.009,-40.1951 829.384,-51.4296 852.173,-59.8584"/>
<polygon fill="black" stroke="black" points="851.152,-63.2124 861.745,-63.3988 853.58,-56.6471 851.152,-63.2124"/>
</g>
<!-- h5499&#45;&gt;h6499 -->
<g id="edge108" class="edge"><title>h5499-&gt;h6499</title>
<path fill="none" stroke="black" d="M793.78,-18C802.388,-18 811.356,-18 820.164,-18"/>
<polygon fill="black" stroke="black" points="820.398,-21.5001 830.398,-18 820.398,-14.5001 820.398,-21.5001"/>
</g>
<!-- h6499&#45;&gt;y -->
<g id="edge114" class="edge"><title>h6499-&gt;y</title>
<path fill="none" stroke="black" d="M918.662,-32.6132C935.521,-40.3941 956.176,-49.9273 972.942,-57.6657"/>
<polygon fill="black" stroke="black" points="971.761,-60.975 982.307,-61.9878 974.694,-54.6193 971.761,-60.975"/>
</g>
<!-- output -->
<g id="node23" class="node"><title>output</title>
<ellipse fill="none" stroke="black" stroke-width="0" cx="1102" cy="-72" rx="33.6305" ry="18"/>
<text text-anchor="middle" x="1102" y="-67.8" font-family="Times,serif" font-size="14.00">0 or 1</text>
</g>
<!-- y&#45;&gt;output -->
<g id="edge116" class="edge"><title>y-&gt;output</title>
<path fill="none" stroke="black" d="M1032.21,-72C1040.26,-72 1049.35,-72 1058.21,-72"/>
<polygon fill="black" stroke="black" points="1058.43,-75.5001 1068.43,-72 1058.43,-68.5001 1058.43,-75.5001"/>
</g>
</g>
</svg></svg>