<svg xmlns="http://www.w3.org/2000/svg" xmlns:xlink="http://www.w3.org/1999/xlink" width="983.49" height="746"><g transform="translate(-240 -120)"><path d="M720 738c0 27.6-22.4 50-50 50s-50-22.4-50-50 22.4-50 50-50 50 22.4 50 50z" stroke="#000" stroke-width="2" fill="#fff"/><use xlink:href="#a" transform="matrix(1,0,0,1,625,693) translate(45 50.4)"/><path d="M653.55 714.08h32.9v47.84h-32.9z" fill="none"/><path d="M664.27 741.02h.06c4.47-7.42 8.1-9.92 12.7-9.92 4.4 0 7.6 2.83 7.6 7.9 0 10.37-10.83 21.8-21.02 21.8-3.74 0-8.53-1.5-8.53-3.48v-.4l9.33-34.36c.4-1.58.6-2.5.6-3.1 0-1.44-.34-1.5-4.22-1.64v-1.1c4.4-.54 6.77-.93 10.06-1.52l.33.32-1.38 5.4m9.25 19.05c0-4-1.7-5.65-4.6-5.65-3.15 0-6.18 2.76-9 7.56-2.9 4.86-4.73 11.23-4.73 15.18 0 1.5.98 2.23 3.02 2.23 2.83 0 5.65-1.4 8.08-3.88 3.95-4.08 7.23-10.6 7.23-15.45"/><path d="M720 459c0 27.6-22.4 50-50 50s-50-22.4-50-50 22.4-50 50-50 50 22.4 50 50z" stroke="#000" stroke-width="2" fill="#ddd"/><use xlink:href="#a" transform="matrix(1,0,0,1,625,414) translate(45 50.4)"/><path d="M650.08 436h39.84v46h-39.84z" fill="#ddd"/><path d="M687.37 468.23l-2.3 13.03H652.6l17.08-22.22-15.98-22.3h32.54v10.93h-1.3c-.93-5.88-2.58-8.05-8.37-8.05h-13.94l12.63 17.03-14.64 18.9h18.04c4.88 0 6.44-2.96 7.4-7.32h1.3"/><path d="M380 669c0 27.6-22.4 50-50 50s-50-22.4-50-50 22.4-50 50-50 50 22.4 50 50z" stroke="#000" stroke-width="2" fill="#fff"/><use xlink:href="#b" transform="matrix(1,0,0,1,285,624) translate(45 50.4)"/><path d="M299.6 655.15h60.8v41.47h-60.8z" fill="none"/><path d="M317.32 661.92l.8 3.74c4.6-7.03 7.02-9.4 9.9-9.4 1.6 0 2.7 1 2.7 2.44 0 1.38-.9 2.36-2.23 2.36-1.26 0-1.85-1.1-3.43-1.1-1.18 0-3.54 2.88-6.44 7.94 0 .46.14 1.38.53 2.95l2.1 8.8c.46 1.85 1.05 2.7 1.97 2.7.86 0 1.58-.65 3.1-2.62.58-.8.85-1.2 1.37-1.84l1 .58c-3.82 5.9-5.53 7.5-8.03 7.5-2.1 0-3.1-1.2-3.88-4.48l-1.9-7.82-5.8 7.82c-2.9 3.88-4.2 4.47-6.24 4.47s-3.28-1.05-3.28-2.76c0-1.3.92-2.36 2.23-2.36.6 0 1.26.27 2.1.73.67.4 1.33.6 1.72.6.72 0 1.97-1.26 3.35-3.23l5.4-7.63-1.85-8.13c-.92-3.95-1.38-4.47-3.02-4.47-.53 0-1.32.13-2.56.46l-1.2.33-.18-1.07.72-.26c4-1.45 6.18-1.9 7.7-1.9 1.63 0 2.42 1.18 3.34 5.65M351.9 689.7l.66.6c-3.16 4.33-4.32 5.26-6.5 5.26-1.17 0-2.2-.74-2.2-2.5 0-.47.1-1.08.75-3.5l2.06-7.52c.37-1.44.65-3.1.65-3.67 0-.84-.4-1.35-1.1-1.35-1.87 0-3.96 2.28-6.88 6.6-2.1 3.1-2.47 4.18-4.65 11.52h-3.5l4.47-16.26c.05-.23.1-.5.1-.8 0-.92-.65-1.2-3.02-1.24v-.75c3.76-.75 5.06-.94 7.52-1.45l.2.1-3.12 10.12c4.64-7.43 7.76-10.22 10.73-10.22 2 0 3.02 1.16 3.02 2.84 0 .82-.18 1.8-.46 2.77l-2.6 9.44c-.46 1.68-.65 2.47-.65 2.84 0 .42.2.84.75.84.65 0 1.5-.75 2.83-2.46.33-.38.65-.8.98-1.2"/><path d="M380 319c0 27.6-22.4 50-50 50s-50-22.4-50-50 22.4-50 50-50 50 22.4 50 50z" stroke="#000" stroke-width="2" fill="#fff"/><use xlink:href="#b" transform="matrix(1,0,0,1,285,274) translate(45 50.4)"/><path d="M299.6 298.15h60.8v41.7h-60.8z" fill="none"/><path d="M317.32 304.92l.8 3.74c4.6-7.03 7.02-9.4 9.9-9.4 1.6 0 2.7 1 2.7 2.44 0 1.38-.9 2.36-2.23 2.36-1.26 0-1.85-1.1-3.43-1.1-1.18 0-3.54 2.88-6.44 7.94 0 .46.14 1.38.53 2.95l2.1 8.8c.46 1.85 1.05 2.7 1.97 2.7.86 0 1.58-.65 3.1-2.62.58-.8.85-1.2 1.37-1.84l1 .58c-3.82 5.9-5.53 7.5-8.03 7.5-2.1 0-3.1-1.2-3.88-4.48l-1.9-7.82-5.8 7.82c-2.9 3.88-4.2 4.47-6.24 4.47s-3.28-1.05-3.28-2.76c0-1.3.92-2.36 2.23-2.36.6 0 1.26.27 2.1.73.67.4 1.33.6 1.72.6.72 0 1.97-1.26 3.35-3.23l5.4-7.63-1.85-8.13c-.92-3.95-1.38-4.47-3.02-4.47-.53 0-1.32.13-2.56.46l-1.2.33-.18-1.07.72-.26c4-1.45 6.18-1.9 7.7-1.9 1.63 0 2.42 1.18 3.34 5.65M352.65 322.8c0 8-2.93 16-10.5 16-7.95 0-10.5-8.65-10.5-16.27 0-8.22 3.2-15.8 10.7-15.8 6.07 0 10.3 6.55 10.3 16.08m-4.46.24c0-9.66-2.05-15.1-6.14-15.1-3.86 0-5.95 5.48-5.95 14.92 0 9.43 2.05 14.73 6.05 14.73 3.95 0 6.04-5.36 6.04-14.56"/><path d="M380 459c0 27.6-22.4 50-50 50s-50-22.4-50-50 22.4-50 50-50 50 22.4 50 50z" stroke="#000" stroke-width="2" fill="#fff"/><use xlink:href="#b" transform="matrix(1,0,0,1,285,414) translate(45 50.4)"/><path d="M299.6 438.15h60.8v41.05h-60.8z" fill="none"/><path d="M317.32 444.92l.8 3.74c4.6-7.03 7.02-9.4 9.9-9.4 1.6 0 2.7 1 2.7 2.44 0 1.38-.9 2.36-2.23 2.36-1.26 0-1.85-1.1-3.43-1.1-1.18 0-3.54 2.88-6.44 7.94 0 .46.14 1.38.53 2.95l2.1 8.8c.46 1.85 1.05 2.7 1.97 2.7.86 0 1.58-.65 3.1-2.62.58-.8.85-1.2 1.37-1.84l1 .58c-3.82 5.9-5.53 7.5-8.03 7.5-2.1 0-3.1-1.2-3.88-4.48l-1.9-7.82-5.8 7.82c-2.9 3.88-4.2 4.47-6.24 4.47s-3.28-1.05-3.28-2.76c0-1.3.92-2.36 2.23-2.36.6 0 1.26.27 2.1.73.67.4 1.33.6 1.72.6.72 0 1.97-1.26 3.35-3.23l5.4-7.63-1.85-8.13c-.92-3.95-1.38-4.47-3.02-4.47-.53 0-1.32.13-2.56.46l-1.2.33-.18-1.07.72-.26c4-1.45 6.18-1.9 7.7-1.9 1.63 0 2.42 1.18 3.34 5.65M348.84 478.14h-12.82v-.7c3.43-.18 4.4-1.15 4.4-3.7v-20.88c0-1.58-.4-2.27-1.38-2.27-.47 0-1.26.22-2.1.55l-1.25.46v-.64l8.3-4.23.43.14v27.74c0 2 .93 2.85 4.4 2.85v.7"/><path d="M313.2 511.5h33.6v75.2h-33.6z" fill="none"/><path d="M334.16 543.06c0 2.23-1.65 4.2-4.14 4.2-2.5 0-4.2-1.64-4.2-4.2 0-2.5 2.1-4.14 4.2-4.14s4.14 1.7 4.14 4.14m0 19.12c0 2.23-1.65 4.2-4.14 4.2-2.5 0-4.2-1.64-4.2-4.2 0-2.5 2.1-4.14 4.2-4.14s4.14 1.7 4.14 4.14m0 19.2c0 2.22-1.65 4.2-4.14 4.2-2.5 0-4.2-1.65-4.2-4.2 0-2.5 2.1-4.15 4.2-4.15s4.14 1.7 4.14 4.14"/><path d="M380 319l240 140" stroke="#000" stroke-width="5" fill="none"/><path d="M381.26 316.84L380 319l-.1-2.96zM620 459l-14.66-3.18 4.67-8z"/><path d="M620.18 455.44L620 459l.1 2.58-18.65-4.05 8.14-13.95zm-10.94-1.34l3.77.82-2.56-2.88z"/><path d="M380 459h240" stroke="#000" stroke-width="5" fill="none"/><path d="M380 461.5h-.12l.12-2.5-.1-2.5h.1zM620 459l-14.27 4.64v-9.28z"/><path d="M620.13 456.4L620 459l.1 2.6-16.87 5.48v-16.16zm-11.9 3.8l3.68-1.2-3.67-1.2z"/><path d="M380 669l240-210" stroke="#000" stroke-width="5" fill="none"/><path d="M381.65 670.88l-1.82 1.6.17-3.48zM612.32 471.88l-6.1-6.97L620 459z"/><path d="M620 459l.13 3.6.1.9-7.53 12.62-10.64-12.16 18.08-7.74zm-9.64 6.85l1.57 1.8 1.98-3.32z"/><path d="M670 688V510" stroke="#000" stroke-width="5" fill="none"/><path d="M672.5 688.12L670 688l-2.5.1v-.1h5zM674.64 524.27h-9.28L670 510z"/><path d="M670 509l2.28-.08 5.8 17.85h-16.16l5.8-17.88zm-1.2 12.77h2.4l-1.2-3.68z"/><path d="M480 337h58.3v33H480z" fill="none"/><path d="M500.95 338.67l1.67 18.3c6.8-8.53 8.58-11.3 8.58-13.52 0-.63-.3-1.04-1.15-1.82-.83-.78-1.1-1.4-1.1-2.13 0-.83.9-1.6 2.04-1.6 1.55 0 2.7 1.23 2.7 2.9 0 3.32-3.85 9.4-11.03 18.14l-.47.58c-1.4 1.7-1.87 2.23-2.34 2.23-.36 0-.47-.47-.57-1.82l-1.52-16.12-4.62 7.92c-.94 1.56-1.88 3.27-2.86 5.14-1.88 3.6-2.76 4.9-3.33 4.9-.47 0-.57-.42-.68-2.45l-.22-4.72c-.2-4.53-.78-10.1-1.4-12.6-.47-1.9-.94-2.17-2.44-2.17h-1.46v-.67c1.6-.26 3.38-.46 4.94-.88.68-.16 1.14-.36 1.5-.36.58 0 .63.1 1 1.75.72 3.54 1.45 10.04 1.66 14.6l9.98-15.8c.26-.4.42-.5.68-.5.3 0 .4.14.4.72M532.17 356.5c0 6.34-2.3 12.66-8.3 12.66-6.3 0-8.32-6.84-8.32-12.87 0-6.5 2.54-12.5 8.46-12.5 4.83 0 8.17 5.18 8.17 12.7m-3.53.2c0-7.65-1.6-11.95-4.85-11.95-3.06 0-4.72 4.34-4.72 11.8 0 7.46 1.62 11.66 4.78 11.66 3.13 0 4.78-4.22 4.78-11.5"/><path d="M450 465.85h58.3v32.48H450z" fill="none"/><path d="M470.95 467.5l1.67 18.32c6.8-8.53 8.58-11.3 8.58-13.52 0-.63-.3-1.04-1.15-1.82-.83-.78-1.1-1.4-1.1-2.13 0-.84.9-1.62 2.04-1.62 1.55 0 2.7 1.25 2.7 2.92 0 3.32-3.85 9.4-11.03 18.14l-.47.57c-1.4 1.7-1.87 2.23-2.34 2.23-.36 0-.47-.47-.57-1.82l-1.52-16.12-4.62 7.9c-.94 1.57-1.88 3.28-2.86 5.15-1.88 3.6-2.76 4.9-3.33 4.9-.47 0-.57-.42-.68-2.44l-.22-4.73c-.2-4.53-.78-10.1-1.4-12.6-.47-1.9-.94-2.17-2.44-2.17h-1.46v-.68c1.6-.26 3.38-.47 4.94-.88.68-.16 1.14-.37 1.5-.37.58 0 .63.1 1 1.77.72 3.54 1.45 10.04 1.66 14.6l9.98-15.8c.26-.4.42-.5.68-.5.3 0 .4.14.4.7M499.16 497.5H489v-.56c2.73-.14 3.5-.9 3.5-2.94v-16.5c0-1.25-.33-1.8-1.1-1.8-.37 0-1 .18-1.65.43l-1 .37v-.5l6.58-3.36.33.1v21.96c0 1.58.74 2.24 3.5 2.24v.56"/><path d="M485 582.18h58.3V615H485z" fill="none"/><path d="M505.95 583.85l1.67 18.3c6.8-8.53 8.58-11.28 8.58-13.52 0-.62-.3-1.04-1.15-1.82-.83-.77-1.1-1.4-1.1-2.12 0-.83.9-1.6 2.04-1.6 1.55 0 2.7 1.24 2.7 2.9 0 3.33-3.85 9.4-11.03 18.15l-.47.57c-1.4 1.72-1.87 2.24-2.34 2.24-.36 0-.47-.47-.57-1.82L502.77 589l-4.62 7.9c-.94 1.56-1.88 3.28-2.86 5.15-1.88 3.6-2.76 4.9-3.33 4.9-.47 0-.57-.43-.68-2.46l-.22-4.74c-.2-4.52-.78-10.1-1.4-12.58-.47-1.93-.94-2.2-2.44-2.2h-1.46v-.66c1.6-.26 3.38-.47 4.94-.9.68-.14 1.14-.35 1.5-.35.58 0 .63.1 1 1.77.72 3.53 1.45 10.03 1.66 14.6l9.98-15.8c.26-.4.42-.52.68-.52.3 0 .4.16.4.73M536.58 609.53l.52.48c-2.5 3.43-3.42 4.16-5.15 4.16-.92 0-1.73-.6-1.73-1.98 0-.37.08-.85.6-2.76l1.6-5.96c.3-1.14.52-2.46.52-2.9 0-.66-.33-1.07-.88-1.07-1.47 0-3.12 1.8-5.44 5.2-1.65 2.48-1.95 3.32-3.68 9.13h-2.75l3.52-12.87c.03-.18.07-.4.07-.62 0-.74-.53-.96-2.4-1v-.58c2.98-.6 4-.74 5.96-1.14l.14.07-2.46 8c3.68-5.88 6.14-8.08 8.5-8.08 1.57 0 2.38.92 2.38 2.24 0 .66-.14 1.43-.37 2.2l-2.05 7.47c-.37 1.32-.52 1.95-.52 2.24 0 .33.15.66.6.66.5 0 1.17-.58 2.23-1.94.27-.3.53-.64.78-.97"/><path d="M942 459c0 27.6-22.4 50-50 50s-50-22.4-50-50 22.4-50 50-50 50 22.4 50 50z" stroke="#000" stroke-width="2" fill="#ddd"/><use xlink:href="#a" transform="matrix(1,0,0,1,847,414) translate(45 50.4)"/><path d="M849.04 438.58H932v46.84h-82.96z" fill="#ddd"/><path d="M858.6 452.2h4.74c1.12-3.63 2-6.44 3.67-8.83 1.54-2.2 3.63-3.93 6.74-3.93 2.5 0 4.38 1.33 4.38 3.16 0 1.13-.97 2.2-2.14 2.2-.92 0-1.88-.77-1.88-2 0-.86.5-1.1.5-1.57 0-.4-.4-.66-1.12-.66-2.85 0-4.74 3.56-6.22 11.62h5.46l-.3 1.62h-5.5l-3.68 16.3c-2.14 9.44-5.56 14.44-10.2 14.44-2.3 0-4.02-1.33-4.02-3.1 0-1.2.86-2.15 1.93-2.15 1.18 0 1.94.82 1.94 1.9 0 .65-.47.9-.47 1.47 0 .46.4.82 1.02.82 2.14 0 3.77-2.77 4.95-8.27l4.48-21.4h-4.64M893.62 482.2l-.6.83c-8.07-4.6-12.45-13.2-12.45-21.87 0-9.43 4.43-16.77 12.6-21.6l.45.8c-7.1 6.07-8.67 10.8-8.67 20.65 0 9.5 1.53 15.25 8.67 21.2M913.8 451.47l-1.02 7.14h-.8c-.52-4.22-2.05-5.9-4.55-5.9-1.78 0-3 1.02-3 2.9 0 1.38.76 2.86 2.75 5.2 2.55 2.96 3.46 4.95 3.46 6.93 0 4.24-3.1 6.84-7.34 6.84-.86 0-1.63-.06-2.8-.5-.97-.42-1.68-.47-2.24-.47-.56 0-1.12.25-1.48 1.07h-.82l1.02-8.1h.82c.7 4.83 2.45 6.92 5.1 6.92 2.4 0 3.87-1.43 3.87-3.93 0-1.63-.87-3.36-2.85-5.86-2.2-2.74-3.22-5.04-3.22-6.67 0-3.36 2.4-5.5 6.17-5.5.87 0 1.58.15 2.86.5.96.3 1.42.36 1.83.36.77 0 1.12-.2 1.53-.93h.7M916.45 440.36l.62-.8c7.8 4.68 12.43 13.2 12.43 21.85 0 9.44-4.48 16.68-12.6 21.63l-.45-.82c7.24-5.95 8.67-10.74 8.67-20.63 0-9.54-1.27-15.4-8.67-21.2"/><path d="M720 459h121" stroke="#000" stroke-width="5" fill="none"/><path d="M720 461.5h-.12l.12-2.5-.1-2.5h.1zM841 459l-14.27 4.64v-9.28z"/><path d="M842.1 456.73L842 459l.08 2.28-17.85 5.8v-16.16zm-12.87 3.46l3.68-1.2-3.67-1.2z"/><path d="M942 460h98" stroke="#000" stroke-width="5" fill="none"/><path d="M1040 460l-14.27 4.64v-9.28z" stroke="#000" stroke-width="5"/><path d="M1064 431.67h139v54.66h-139z" fill="none"/><use xlink:href="#c" transform="matrix(1,0,0,1,1069,436.66666666666663) translate(-7.51171875 34.4921875)"/><path d="M822.5 220h139v106h-139z" fill="none"/><use xlink:href="#d" transform="matrix(1,0,0,1,827.5,225) translate(-28.848524305555557 41.771701388888886)"/><use xlink:href="#e" transform="matrix(1,0,0,1,827.5,225) translate(-10.178819444444443 72.8828125)"/><path d="M600 220h139v106H600z" fill="none"/><use xlink:href="#f" transform="matrix(1,0,0,1,605,225) translate(-10.178819444444443 41.771701388888886)"/><use xlink:href="#g" transform="matrix(1,0,0,1,605,225) translate(36.495442708333336 72.8828125)"/><path d="M260 140h139v106H260z" fill="none"/><use xlink:href="#h" transform="matrix(1,0,0,1,265,145) translate(17.82573784722222 41.771701388888886)"/><use xlink:href="#i" transform="matrix(1,0,0,1,265,145) translate(8.490885416666664 72.8828125)"/><path d="M600 800h139v46H600z" fill="none"/><use xlink:href="#j" transform="matrix(1,0,0,1,605,805) translate(27.16059027777778 27.327256944444443)"/><path d="M704.85 583.6h26.02v36.9h-26.02z" fill="none"/><path d="M725.33 619.63h-14.35v-.78c3.85-.2 4.94-1.3 4.94-4.16v-23.36c0-1.77-.47-2.55-1.56-2.55-.52 0-1.4.25-2.34.62l-1.4.52v-.73l9.3-4.72.47.15v31.05c0 2.23 1.03 3.17 4.93 3.17v.78"/><defs><path d="M-.9 1.25H.9v1.32H-.9z" id="b"/><path d="M615-1102c343 0 484 203 482 560-1 347-147 562-488 562-336 0-475-219-479-562-4-349 156-560 485-560zm-8 989c240 0 301-180 301-429 0-245-55-427-290-427-236 0-299 181-299 427 0 243 61 429 288 429" id="k"/><path d="M528 20c-247 0-343-132-343-381v-721h180v686c-4 177 45 284 224 277 194-8 279-136 279-336v-627h181c3 360-6 732 6 1082H885c-4-54-7-126-8-185h-3C809-64 714 20 528 20" id="l"/><path d="M682 16c-209 0-323-80-324-285v-671H190v-142h170l58-282h120v282h432v142H538v652c2 114 60 155 182 155 106 0 209-16 297-34v137C921-4 806 16 682 16" id="m"/><path d="M698-1104c312 3 392 244 392 558 0 315-82 566-392 566-169 0-277-65-331-184h-5c8 188 2 394 4 589H185V-858c0-76-1-156-6-224h175c6 52 9 120 10 178h4c58-122 150-202 330-200zm-49 991c225 0 255-203 255-433 0-225-32-419-253-419-236 0-285 192-285 441 0 237 53 411 283 411" id="n"/><g id="c"><use transform="matrix(0.01953125,0,0,0.01953125,0,0)" xlink:href="#k"/><use transform="matrix(0.01953125,0,0,0.01953125,24.00390625,0)" xlink:href="#l"/><use transform="matrix(0.01953125,0,0,0.01953125,48.0078125,0)" xlink:href="#m"/><use transform="matrix(0.01953125,0,0,0.01953125,72.01171875,0)" xlink:href="#n"/><use transform="matrix(0.01953125,0,0,0.01953125,96.015625,0)" xlink:href="#l"/><use transform="matrix(0.01953125,0,0,0.01953125,120.01953125,0)" xlink:href="#m"/></g><path d="M775-193C708-75 621 20 439 20 226 20 106-93 106-306c0-251 170-341 417-346l223-4c4-143-12-264-148-264-103 0-141 58-150 153l-293-14c37-219 194-321 455-321 263 0 418 130 417 390v392c1 84 5 161 89 160 21 0 42-2 62-6v152c-57 15-108 27-180 26-145 0-202-73-217-205h-6zm-256 17c168 0 234-139 227-325-166 4-347-25-347 173 0 94 33 152 120 152" id="o"/><path d="M1109-360C1066-122 902 20 624 20c-347 0-514-209-514-555 0-353 168-567 518-567 270 0 425 136 473 361l-283 14c-16-106-75-183-196-182-75 0-130 31-165 93s-52 152-52 270c0 249 74 374 221 374 120 0 188-82 201-201" id="p"/><path d="M711 13c-250 0-386-99-385-349l2-556H161v-190h181l88-282h176v282h385v190H606v530c-10 130 45 186 174 184 91-2 176-11 255-27v186C933-1 833 13 711 13" id="q"/><path d="M794-190h353V0H118v-190h395v-702H223v-190h571v892zM513-1277v-207h281v207H513" id="r"/><path d="M774 0H438L31-1082h297c94 290 200 568 280 872 83-304 194-581 291-872h294" id="s"/><path d="M616-1102c361 0 521 202 521 560 0 354-171 562-527 562C259 20 92-192 92-542c0-351 169-560 524-560zm-9 930c200-2 236-165 236-370 0-199-27-367-223-367-195 0-233 146-233 367 0 129 18 223 55 282s92 88 165 88" id="t"/><path d="M768-1103c247 0 336 167 336 416V0H824v-619c-3-164-24-273-171-273-164 0-229 142-229 312V0H143c-4-359 9-736-8-1082h268c7 63 12 146 13 215h4c67-145 160-236 348-236" id="u"/><g id="d"><use transform="matrix(0.015190972222222222,0,0,0.015190972222222222,0,0)" xlink:href="#o"/><use transform="matrix(0.015190972222222222,0,0,0.015190972222222222,18.66970486111111,0)" xlink:href="#p"/><use transform="matrix(0.015190972222222222,0,0,0.015190972222222222,37.33940972222222,0)" xlink:href="#q"/><use transform="matrix(0.015190972222222222,0,0,0.015190972222222222,56.00911458333333,0)" xlink:href="#r"/><use transform="matrix(0.015190972222222222,0,0,0.015190972222222222,74.67881944444444,0)" xlink:href="#s"/><use transform="matrix(0.015190972222222222,0,0,0.015190972222222222,93.34852430555556,0)" xlink:href="#o"/><use transform="matrix(0.015190972222222222,0,0,0.015190972222222222,112.01822916666667,0)" xlink:href="#q"/><use transform="matrix(0.015190972222222222,0,0,0.015190972222222222,130.68793402777777,0)" xlink:href="#r"/><use transform="matrix(0.015190972222222222,0,0,0.015190972222222222,149.35763888888889,0)" xlink:href="#t"/><use transform="matrix(0.015190972222222222,0,0,0.015190972222222222,168.02734375,0)" xlink:href="#u"/></g><path d="M844-1321c-130 0-195 53-191 182v57h443v190H653V0H373v-892H117v-190h256v-83c5-247 162-348 422-349 120-1 232 13 327 28v184c-84-10-183-19-278-19" id="v"/><path d="M471 20c-247 0-336-169-336-415v-687h281v607c4 148 31 285 172 285 152 0 207-150 207-312v-580h281c4 359-9 736 8 1082H816c-7-63-11-146-12-215h-5C736-76 644 20 471 20" id="w"/><g id="e"><use transform="matrix(0.015190972222222222,0,0,0.015190972222222222,0,0)" xlink:href="#v"/><use transform="matrix(0.015190972222222222,0,0,0.015190972222222222,18.66970486111111,0)" xlink:href="#w"/><use transform="matrix(0.015190972222222222,0,0,0.015190972222222222,37.33940972222222,0)" xlink:href="#u"/><use transform="matrix(0.015190972222222222,0,0,0.015190972222222222,56.00911458333333,0)" xlink:href="#p"/><use transform="matrix(0.015190972222222222,0,0,0.015190972222222222,74.67881944444444,0)" xlink:href="#q"/><use transform="matrix(0.015190972222222222,0,0,0.015190972222222222,93.34852430555556,0)" xlink:href="#r"/><use transform="matrix(0.015190972222222222,0,0,0.015190972222222222,112.01822916666667,0)" xlink:href="#t"/><use transform="matrix(0.015190972222222222,0,0,0.015190972222222222,130.68793402777777,0)" xlink:href="#u"/></g><path d="M1028 0H784c-56-191-119-378-170-573C562-377 495-191 437 0H194L11-1082h228c32 239 67 472 95 714 4 40 7 80 7 119 53-195 119-378 177-568h193c56 190 120 371 169 568-1-79 11-158 21-226l91-607h226" id="x"/><path d="M1113-274C1038-96 884 20 626 20c-352 0-526-209-526-566 0-358 185-556 530-556 358 0 496 251 499 615H395c5 180 68 319 245 319 102 0 186-45 208-129zM857-663c-6-177-128-307-315-247-94 30-141 121-145 247h460" id="y"/><path d="M1108-33c-3 314-178 467-492 467-243 0-400-94-447-291l281-33c17 79 82 141 174 141 176 0 212-155 205-347-2-40 5-80 0-115C773-85 665-12 501-12c-288 0-377-242-377-538 0-242 65-426 223-510 50-26 108-39 175-39 160 0 253 78 307 191h5c1-58 5-125 14-174h266c-12 335-3 703-6 1049zM811-384c25-82 27-259 1-342-30-99-77-180-190-180-172 0-205 171-205 356 0 116 18 202 54 258 48 76 129 107 221 70 62-25 96-86 119-162" id="z"/><path d="M424-1484c-2 206 5 424-8 618h4c67-145 160-234 348-236 251-3 335 167 336 416V0H824v-621c0-150-23-276-173-270-163 7-227 142-227 312V0H143v-1484h281" id="A"/><path d="M802-909c-3-189-2-383-2-575h281v1248c-1 83 4 168 8 236H817c-9-50-14-117-15-176h-4C735-49 651 20 482 20 191 20 97-238 97-539c0-243 66-432 221-519 50-28 108-42 175-42 162 2 253 78 309 191zm-70 658c91-113 93-462 2-584-46-61-145-100-224-53-96 56-119 190-120 349 0 123 17 214 52 275 46 82 130 115 222 74 25-12 46-33 68-61" id="B"/><g id="f"><use transform="matrix(0.015190972222222222,0,0,0.015190972222222222,0,0)" xlink:href="#x"/><use transform="matrix(0.015190972222222222,0,0,0.015190972222222222,18.66970486111111,0)" xlink:href="#y"/><use transform="matrix(0.015190972222222222,0,0,0.015190972222222222,37.33940972222222,0)" xlink:href="#r"/><use transform="matrix(0.015190972222222222,0,0,0.015190972222222222,56.00911458333333,0)" xlink:href="#z"/><use transform="matrix(0.015190972222222222,0,0,0.015190972222222222,74.67881944444444,0)" xlink:href="#A"/><use transform="matrix(0.015190972222222222,0,0,0.015190972222222222,93.34852430555556,0)" xlink:href="#q"/><use transform="matrix(0.015190972222222222,0,0,0.015190972222222222,112.01822916666667,0)" xlink:href="#y"/><use transform="matrix(0.015190972222222222,0,0,0.015190972222222222,130.68793402777777,0)" xlink:href="#B"/></g><path d="M622-916c-112 2-200 14-200 111 0 90 89 101 168 121 234 58 514 77 514 368C1104-4 751 54 434 5 267-21 161-112 121-270l247-37c24 111 113 145 252 141 114-3 226-12 226-124 0-101-103-113-192-134-225-54-490-76-490-351 0-247 201-328 458-328 245 0 413 88 457 292l-249 26c-16-98-92-133-208-131" id="C"/><path d="M934-1102c199 0 220 177 220 381V0H926c-2-260 10-533-4-785-4-72-14-138-83-138-34 0-61 27-81 81s-29 134-29 241V0H501c-2-260 9-533-5-785-4-72-13-138-82-138-46 0-65 47-80 93-21 67-30 155-30 248V0H75c-3-360 6-732-6-1082h209c6 50 3 123 8 175 36-100 83-195 216-195 135 0 166 79 196 196 42-105 93-196 236-196" id="D"/><g id="g"><use transform="matrix(0.015190972222222222,0,0,0.015190972222222222,0,0)" xlink:href="#C"/><use transform="matrix(0.015190972222222222,0,0,0.015190972222222222,18.66970486111111,0)" xlink:href="#w"/><use transform="matrix(0.015190972222222222,0,0,0.015190972222222222,37.33940972222222,0)" xlink:href="#D"/></g><path d="M427-171c3 195 2 397 2 596H148V-846c1-83-4-168-8-236h272c10 49 14 118 15 176h4c59-114 151-197 316-197 291 0 385 259 385 560 0 243-65 433-220 521-50 28-109 42-176 42-162-2-253-78-309-191zm69-661c-91 113-92 463-1 586 46 62 145 101 225 54 96-57 118-191 119-351 0-123-18-215-53-276-46-82-128-115-220-74-25 12-48 33-70 61" id="E"/><g id="h"><use transform="matrix(0.015190972222222222,0,0,0.015190972222222222,0,0)" xlink:href="#r"/><use transform="matrix(0.015190972222222222,0,0,0.015190972222222222,18.66970486111111,0)" xlink:href="#u"/><use transform="matrix(0.015190972222222222,0,0,0.015190972222222222,37.33940972222222,0)" xlink:href="#E"/><use transform="matrix(0.015190972222222222,0,0,0.015190972222222222,56.00911458333333,0)" xlink:href="#w"/><use transform="matrix(0.015190972222222222,0,0,0.015190972222222222,74.67881944444444,0)" xlink:href="#q"/></g><path d="M875-1102c70 0 148 7 206 17v237c-110-17-267-37-359 15-123 69-192 207-192 395V0H250c-10-367 32-789-52-1082h271c19 69 36 149 46 228h4c52-151 151-250 356-248" id="F"/><g id="i"><use transform="matrix(0.015190972222222222,0,0,0.015190972222222222,0,0)" xlink:href="#s"/><use transform="matrix(0.015190972222222222,0,0,0.015190972222222222,18.66970486111111,0)" xlink:href="#y"/><use transform="matrix(0.015190972222222222,0,0,0.015190972222222222,37.33940972222222,0)" xlink:href="#p"/><use transform="matrix(0.015190972222222222,0,0,0.015190972222222222,56.00911458333333,0)" xlink:href="#q"/><use transform="matrix(0.015190972222222222,0,0,0.015190972222222222,74.67881944444444,0)" xlink:href="#t"/><use transform="matrix(0.015190972222222222,0,0,0.015190972222222222,93.34852430555556,0)" xlink:href="#F"/></g><path d="M429-1484c1 190-1 388 0 572 54-116 155-191 317-191 300 0 386 257 386 563 0 241-73 429-226 518-49 28-106 42-169 42-162 0-251-81-306-196h-4c-1 59-5 127-15 176H140c4-67 9-153 8-236v-1248h281zm66 648c-93 114-92 466 1 585 35 45 77 79 142 79 64 0 112-31 148-92 69-115 68-440-2-561-39-68-131-111-221-70-25 11-46 32-68 59" id="G"/><g id="j"><use transform="matrix(0.015190972222222222,0,0,0.015190972222222222,0,0)" xlink:href="#G"/><use transform="matrix(0.015190972222222222,0,0,0.015190972222222222,18.66970486111111,0)" xlink:href="#r"/><use transform="matrix(0.015190972222222222,0,0,0.015190972222222222,37.33940972222222,0)" xlink:href="#o"/><use transform="matrix(0.015190972222222222,0,0,0.015190972222222222,56.00911458333333,0)" xlink:href="#C"/></g></defs></g></svg>