<?xml version="1.0" encoding="UTF-8"?>
<svg width="648px" height="693px" viewBox="0 0 648 693" version="1.1" xmlns="http://www.w3.org/2000/svg" xmlns:xlink="http://www.w3.org/1999/xlink">
    <!-- Generator: Sketch 46.2 (44496) - http://www.bohemiancoding.com/sketch -->
    <title>Group</title>
    <desc>Created with Sketch.</desc>
    <defs></defs>
    <g id="Page-1" stroke="none" stroke-width="1" fill="none" fill-rule="evenodd">
        <g id="Group" transform="translate(4.000000, -1.000000)">
            <polygon id="path22" stroke="#000000" stroke-width="0.9962625" fill="#FFF880" fill-rule="nonzero" transform="translate(216.240006, 54.146531) scale(-1, 1) rotate(-180.000000) translate(-216.240006, -54.146531) " points="198.523262 36.4297875 233.95675 36.4297875 233.95675 71.863275 198.523262 71.863275"></polygon>
            <path d="M340.257275,54.146525 C340.257275,63.9313375 332.325337,71.863275 322.540525,71.863275 C312.755713,71.863275 304.823775,63.9313375 304.823775,54.146525 C304.823775,44.3617125 312.755713,36.429775 322.540525,36.429775 C332.325337,36.429775 340.257275,44.3617125 340.257275,54.146525 Z" id="path34" stroke="#000000" stroke-width="5" fill="#FF8080" fill-rule="nonzero" transform="translate(322.540525, 54.146525) scale(-1, 1) rotate(-180.000000) translate(-322.540525, -54.146525) "></path>
            <path d="M446.5578,54.146525 C446.5578,63.9313375 438.625875,71.863275 428.841075,71.863275 C419.05625,71.863275 411.124325,63.9313375 411.124325,54.146525 C411.124325,44.3617125 419.05625,36.429775 428.841075,36.429775 C438.625875,36.429775 446.5578,44.3617125 446.5578,54.146525 L446.5578,54.146525 Z" id="path46" stroke="#000000" stroke-width="5" fill="#FF8080" fill-rule="nonzero" transform="translate(428.841063, 54.146525) scale(-1, 1) rotate(-180.000000) translate(-428.841063, -54.146525) "></path>
            <path d="M552.85835,54.146525 C552.85835,63.9313375 544.926413,71.863275 535.1416,71.863275 C525.356787,71.863275 517.424863,63.9313375 517.424863,54.146525 C517.424863,44.3617125 525.356787,36.429775 535.1416,36.429775 C544.926413,36.429775 552.85835,44.3617125 552.85835,54.146525 Z" id="path58" stroke="#000000" stroke-width="5" fill="#FF8080" fill-rule="nonzero" transform="translate(535.141606, 54.146525) scale(-1, 1) rotate(-180.000000) translate(-535.141606, -54.146525) "></path>
            <path d="M237.500075,52.896525 L299.773575,52.896525" id="path68" stroke="#000000" stroke-width="1.99255005" transform="translate(268.636825, 53.521525) scale(-1, 1) rotate(-180.000000) translate(-268.636825, -53.521525) "></path>
            <path d="M296.934225,57.93235 C297.170825,56.51265 299.773575,54.3831125 300.4834,54.146525 C299.773575,53.9099375 297.170825,51.7804 296.934225,50.3607" id="path74" stroke="#000000" stroke-width="1.59402505" stroke-linecap="round" stroke-linejoin="round" transform="translate(298.708812, 54.146525) scale(-1, 1) rotate(-180.000000) translate(-298.708812, -54.146525) "></path>
            <path d="M343.800625,52.896525 L406.0741,52.896525" id="path78" stroke="#000000" stroke-width="1.99255005" transform="translate(374.937363, 53.521525) scale(-1, 1) rotate(-180.000000) translate(-374.937363, -53.521525) "></path>
            <path d="M403.23475,57.93235 C403.47135,56.51265 406.0741,54.3831125 406.783925,54.146525 C406.0741,53.9099375 403.47135,51.7804 403.23475,50.3607" id="path84" stroke="#000000" stroke-width="1.59402505" stroke-linecap="round" stroke-linejoin="round" transform="translate(405.009338, 54.146525) scale(-1, 1) rotate(-180.000000) translate(-405.009338, -54.146525) "></path>
            <path d="M450.101137,52.896525 L512.374638,52.896525" id="path88" stroke="#000000" stroke-width="1.99255005" transform="translate(481.237887, 53.521525) scale(-1, 1) rotate(-180.000000) translate(-481.237887, -53.521525) "></path>
            <path d="M509.535287,57.93235 C509.771887,56.51265 512.374637,54.3831125 513.084462,54.146525 C512.374637,53.9099375 509.771887,51.7804 509.535287,50.3607" id="path94" stroke="#000000" stroke-width="1.59402505" stroke-linecap="round" stroke-linejoin="round" transform="translate(511.309875, 54.146525) scale(-1, 1) rotate(-180.000000) translate(-511.309875, -54.146525) "></path>
            <path d="M556.401687,52.896525 L604.50175,52.896525" id="path98" stroke="#000000" stroke-width="1.99255005" transform="translate(580.451719, 53.521525) scale(-1, 1) rotate(-180.000000) translate(-580.451719, -53.521525) "></path>
            <path d="M601.6624,57.93235 C601.899,56.51265 604.50175,54.3831125 605.211575,54.146525 C604.50175,53.9099375 601.899,51.7804 601.6624,50.3607" id="path104" stroke="#000000" stroke-width="1.59402505" stroke-linecap="round" stroke-linejoin="round" transform="translate(603.436988, 54.146525) scale(-1, 1) rotate(-180.000000) translate(-603.436988, -54.146525) "></path>
            <polygon id="path110" stroke="#000000" stroke-width="0.9962625" fill="#FFF880" fill-rule="nonzero" transform="translate(216.240006, 107.296806) scale(-1, 1) rotate(-180.000000) translate(-216.240006, -107.296806) " points="198.523262 89.5800625 233.95675 89.5800625 233.95675 125.01355 198.523262 125.01355"></polygon>
            <path d="M340.257275,107.296787 C340.257275,117.0816 332.325337,125.01355 322.540525,125.01355 C312.755713,125.01355 304.823775,117.0816 304.823775,107.296787 C304.823775,97.511975 312.755713,89.5800375 322.540525,89.5800375 C332.325337,89.5800375 340.257275,97.511975 340.257275,107.296787 Z" id="path122" stroke="#000000" stroke-width="5" fill="#FF8080" fill-rule="nonzero" transform="translate(322.540525, 107.296794) scale(-1, 1) rotate(-180.000000) translate(-322.540525, -107.296794) "></path>
            <path d="M446.5578,107.296787 C446.5578,117.0816 438.625875,125.01355 428.841075,125.01355 C419.05625,125.01355 411.124325,117.0816 411.124325,107.296787 C411.124325,97.511975 419.05625,89.5800375 428.841075,89.5800375 C438.625875,89.5800375 446.5578,97.511975 446.5578,107.296787 L446.5578,107.296787 Z" id="path134" stroke="#000000" stroke-width="5" fill="#FF8080" fill-rule="nonzero" transform="translate(428.841063, 107.296794) scale(-1, 1) rotate(-180.000000) translate(-428.841063, -107.296794) "></path>
            <path d="M552.85835,107.296787 C552.85835,117.0816 544.926413,125.01355 535.1416,125.01355 C525.356787,125.01355 517.424863,117.0816 517.424863,107.296787 C517.424863,97.511975 525.356787,89.5800375 535.1416,89.5800375 C544.926413,89.5800375 552.85835,97.511975 552.85835,107.296787 Z" id="path146" stroke="#000000" stroke-width="5" fill="#FF8080" fill-rule="nonzero" transform="translate(535.141606, 107.296794) scale(-1, 1) rotate(-180.000000) translate(-535.141606, -107.296794) "></path>
            <path d="M237.500075,106.0468 L299.773575,106.0468" id="path156" stroke="#000000" stroke-width="1.99255005" transform="translate(268.636825, 106.671800) scale(-1, 1) rotate(-180.000000) translate(-268.636825, -106.671800) "></path>
            <path d="M296.934225,111.082625 C297.170825,109.662925 299.773575,107.533388 300.4834,107.2968 C299.773575,107.060213 297.170825,104.930675 296.934225,103.510975" id="path162" stroke="#000000" stroke-width="1.59402505" stroke-linecap="round" stroke-linejoin="round" transform="translate(298.708812, 107.296800) scale(-1, 1) rotate(-180.000000) translate(-298.708812, -107.296800) "></path>
            <path d="M343.800625,106.0468 L406.0741,106.0468" id="path166" stroke="#000000" stroke-width="1.99255005" transform="translate(374.937363, 106.671800) scale(-1, 1) rotate(-180.000000) translate(-374.937363, -106.671800) "></path>
            <path d="M403.23475,111.082625 C403.47135,109.662925 406.0741,107.533388 406.783925,107.2968 C406.0741,107.060213 403.47135,104.930675 403.23475,103.510975" id="path172" stroke="#000000" stroke-width="1.59402505" stroke-linecap="round" stroke-linejoin="round" transform="translate(405.009338, 107.296800) scale(-1, 1) rotate(-180.000000) translate(-405.009338, -107.296800) "></path>
            <path d="M450.101137,106.0468 L512.374638,106.0468" id="path176" stroke="#000000" stroke-width="1.99255005" transform="translate(481.237887, 106.671800) scale(-1, 1) rotate(-180.000000) translate(-481.237887, -106.671800) "></path>
            <path d="M509.535287,111.082625 C509.771887,109.662925 512.374637,107.533387 513.084462,107.2968 C512.374637,107.060212 509.771887,104.930675 509.535287,103.510975" id="path182" stroke="#000000" stroke-width="1.59402505" stroke-linecap="round" stroke-linejoin="round" transform="translate(511.309875, 107.296800) scale(-1, 1) rotate(-180.000000) translate(-511.309875, -107.296800) "></path>
            <path d="M556.401687,106.0468 L604.50175,106.0468" id="path186" stroke="#000000" stroke-width="1.99255005" transform="translate(580.451719, 106.671800) scale(-1, 1) rotate(-180.000000) translate(-580.451719, -106.671800) "></path>
            <path d="M601.6624,111.082625 C601.899,109.662925 604.50175,107.533387 605.211575,107.2968 C604.50175,107.060212 601.899,104.930675 601.6624,103.510975" id="path192" stroke="#000000" stroke-width="1.59402505" stroke-linecap="round" stroke-linejoin="round" transform="translate(603.436988, 107.296800) scale(-1, 1) rotate(-180.000000) translate(-603.436988, -107.296800) "></path>
            <polygon id="path198" stroke="#000000" stroke-width="0.9962625" fill="#FFF880" fill-rule="nonzero" transform="translate(216.240006, 160.447069) scale(-1, 1) rotate(-180.000000) translate(-216.240006, -160.447069) " points="198.523262 142.730325 233.95675 142.730325 233.95675 178.163812 198.523262 178.163812"></polygon>
            <path d="M340.257275,160.447087 C340.257275,170.231875 332.325337,178.163812 322.540525,178.163812 C312.755713,178.163812 304.823775,170.231875 304.823775,160.447087 C304.823775,150.662275 312.755713,142.730337 322.540525,142.730337 C332.325337,142.730337 340.257275,150.662275 340.257275,160.447087 Z" id="path210" stroke="#000000" stroke-width="5" fill="#FF8080" fill-rule="nonzero" transform="translate(322.540525, 160.447075) scale(-1, 1) rotate(-180.000000) translate(-322.540525, -160.447075) "></path>
            <path d="M446.5578,160.447087 C446.5578,170.231875 438.625875,178.163812 428.841075,178.163812 C419.05625,178.163812 411.124325,170.231875 411.124325,160.447087 C411.124325,150.662275 419.05625,142.730337 428.841075,142.730337 C438.625875,142.730337 446.5578,150.662275 446.5578,160.447087 L446.5578,160.447087 Z" id="path222" stroke="#000000" stroke-width="5" fill="#FF8080" fill-rule="nonzero" transform="translate(428.841063, 160.447075) scale(-1, 1) rotate(-180.000000) translate(-428.841063, -160.447075) "></path>
            <path d="M552.85835,160.447087 C552.85835,170.231875 544.926413,178.163812 535.1416,178.163812 C525.356787,178.163812 517.424863,170.231875 517.424863,160.447087 C517.424863,150.662275 525.356787,142.730337 535.1416,142.730337 C544.926413,142.730337 552.85835,150.662275 552.85835,160.447087 Z" id="path234" stroke="#000000" stroke-width="5" fill="#FF8080" fill-rule="nonzero" transform="translate(535.141606, 160.447075) scale(-1, 1) rotate(-180.000000) translate(-535.141606, -160.447075) "></path>
            <path d="M237.500075,159.197062 L299.773575,159.197062" id="path244" stroke="#000000" stroke-width="1.99255005" transform="translate(268.636825, 159.822062) scale(-1, 1) rotate(-180.000000) translate(-268.636825, -159.822062) "></path>
            <path d="M296.934225,164.232887 C297.170825,162.813187 299.773575,160.68365 300.4834,160.447062 C299.773575,160.210475 297.170825,158.080937 296.934225,156.661237" id="path250" stroke="#000000" stroke-width="1.59402505" stroke-linecap="round" stroke-linejoin="round" transform="translate(298.708812, 160.447062) scale(-1, 1) rotate(-180.000000) translate(-298.708812, -160.447062) "></path>
            <path d="M343.800625,159.197062 L406.0741,159.197062" id="path254" stroke="#000000" stroke-width="1.99255005" transform="translate(374.937363, 159.822062) scale(-1, 1) rotate(-180.000000) translate(-374.937363, -159.822062) "></path>
            <path d="M403.23475,164.232887 C403.47135,162.813187 406.0741,160.68365 406.783925,160.447062 C406.0741,160.210475 403.47135,158.080937 403.23475,156.661237" id="path260" stroke="#000000" stroke-width="1.59402505" stroke-linecap="round" stroke-linejoin="round" transform="translate(405.009338, 160.447062) scale(-1, 1) rotate(-180.000000) translate(-405.009338, -160.447062) "></path>
            <path d="M450.101137,159.197062 L512.374638,159.197062" id="path264" stroke="#000000" stroke-width="1.99255005" transform="translate(481.237887, 159.822062) scale(-1, 1) rotate(-180.000000) translate(-481.237887, -159.822062) "></path>
            <path d="M509.535287,164.232887 C509.771887,162.813187 512.374637,160.68365 513.084462,160.447062 C512.374637,160.210475 509.771887,158.080937 509.535287,156.661237" id="path270" stroke="#000000" stroke-width="1.59402505" stroke-linecap="round" stroke-linejoin="round" transform="translate(511.309875, 160.447062) scale(-1, 1) rotate(-180.000000) translate(-511.309875, -160.447062) "></path>
            <path d="M556.401687,159.197062 L604.50175,159.197062" id="path274" stroke="#000000" stroke-width="1.99255005" transform="translate(580.451719, 159.822062) scale(-1, 1) rotate(-180.000000) translate(-580.451719, -159.822062) "></path>
            <path d="M601.6624,164.232887 C601.899,162.813187 604.50175,160.68365 605.211575,160.447062 C604.50175,160.210475 601.899,158.080937 601.6624,156.661237" id="path280" stroke="#000000" stroke-width="1.59402505" stroke-linecap="round" stroke-linejoin="round" transform="translate(603.436988, 160.447062) scale(-1, 1) rotate(-180.000000) translate(-603.436988, -160.447062) "></path>
            <polygon id="path286" stroke="#000000" stroke-width="0.9962625" fill="#FFF880" fill-rule="nonzero" transform="translate(216.240006, 213.597344) scale(-1, 1) rotate(-180.000000) translate(-216.240006, -213.597344) " points="198.523262 195.8806 233.95675 195.8806 233.95675 231.314087 198.523262 231.314087"></polygon>
            <path d="M340.257275,213.597337 C340.257275,223.38215 332.325337,231.314087 322.540525,231.314087 C312.755713,231.314087 304.823775,223.38215 304.823775,213.597337 C304.823775,203.812525 312.755713,195.880612 322.540525,195.880612 C332.325337,195.880612 340.257275,203.812525 340.257275,213.597337 Z" id="path298" stroke="#000000" stroke-width="0.9962625" fill="#8080FF" fill-rule="nonzero" transform="translate(322.540525, 213.597350) scale(-1, 1) rotate(-180.000000) translate(-322.540525, -213.597350) "></path>
            <path d="M446.5578,213.597337 C446.5578,223.38215 438.625875,231.314087 428.841075,231.314087 C419.05625,231.314087 411.124325,223.38215 411.124325,213.597337 C411.124325,203.812525 419.05625,195.880612 428.841075,195.880612 C438.625875,195.880612 446.5578,203.812525 446.5578,213.597337 L446.5578,213.597337 Z" id="path310" stroke="#000000" stroke-width="0.9962625" fill="#8080FF" fill-rule="nonzero" transform="translate(428.841063, 213.597350) scale(-1, 1) rotate(-180.000000) translate(-428.841063, -213.597350) "></path>
            <path d="M552.85835,213.597337 C552.85835,223.38215 544.926413,231.314087 535.1416,231.314087 C525.356787,231.314087 517.424863,223.38215 517.424863,213.597337 C517.424863,203.812525 525.356787,195.880612 535.1416,195.880612 C544.926413,195.880612 552.85835,203.812525 552.85835,213.597337 Z" id="path322" stroke="#000000" stroke-width="0.9962625" fill="#8080FF" fill-rule="nonzero" transform="translate(535.141606, 213.597350) scale(-1, 1) rotate(-180.000000) translate(-535.141606, -213.597350) "></path>
            <path d="M237.500075,212.347362 L299.773575,212.347362" id="path332" stroke="#000000" stroke-width="1.99255005" transform="translate(268.636825, 212.972362) scale(-1, 1) rotate(-180.000000) translate(-268.636825, -212.972362) "></path>
            <path d="M296.934225,217.383187 C297.170825,215.963487 299.773575,213.83395 300.4834,213.597362 C299.773575,213.360775 297.170825,211.231237 296.934225,209.811537" id="path338" stroke="#000000" stroke-width="1.59402505" stroke-linecap="round" stroke-linejoin="round" transform="translate(298.708812, 213.597362) scale(-1, 1) rotate(-180.000000) translate(-298.708812, -213.597362) "></path>
            <path d="M343.800625,212.347362 L406.0741,212.347362" id="path342" stroke="#000000" stroke-width="1.99255005" transform="translate(374.937363, 212.972362) scale(-1, 1) rotate(-180.000000) translate(-374.937363, -212.972362) "></path>
            <path d="M403.23475,217.383187 C403.47135,215.963487 406.0741,213.83395 406.783925,213.597362 C406.0741,213.360775 403.47135,211.231237 403.23475,209.811537" id="path348" stroke="#000000" stroke-width="1.59402505" stroke-linecap="round" stroke-linejoin="round" transform="translate(405.009338, 213.597362) scale(-1, 1) rotate(-180.000000) translate(-405.009338, -213.597362) "></path>
            <path d="M450.101137,212.347362 L512.374638,212.347362" id="path352" stroke="#000000" stroke-width="1.99255005" transform="translate(481.237887, 212.972362) scale(-1, 1) rotate(-180.000000) translate(-481.237887, -212.972362) "></path>
            <path d="M509.535287,217.383187 C509.771887,215.963487 512.374637,213.83395 513.084462,213.597362 C512.374637,213.360775 509.771887,211.231237 509.535287,209.811537" id="path358" stroke="#000000" stroke-width="1.59402505" stroke-linecap="round" stroke-linejoin="round" transform="translate(511.309875, 213.597362) scale(-1, 1) rotate(-180.000000) translate(-511.309875, -213.597362) "></path>
            <path d="M556.401687,212.347362 L604.50175,212.347362" id="path362" stroke="#000000" stroke-width="1.99255005" transform="translate(580.451719, 212.972362) scale(-1, 1) rotate(-180.000000) translate(-580.451719, -212.972362) "></path>
            <path d="M601.6624,217.383187 C601.899,215.963487 604.50175,213.83395 605.211575,213.597362 C604.50175,213.360775 601.899,211.231237 601.6624,209.811537" id="path368" stroke="#000000" stroke-width="1.59402505" stroke-linecap="round" stroke-linejoin="round" transform="translate(603.436988, 213.597362) scale(-1, 1) rotate(-180.000000) translate(-603.436988, -213.597362) "></path>
            <polygon id="path374" stroke="#000000" stroke-width="0.9962625" fill="#FFF880" fill-rule="nonzero" transform="translate(216.240006, 266.747631) scale(-1, 1) rotate(-180.000000) translate(-216.240006, -266.747631) " points="198.523262 249.030887 233.95675 249.030887 233.95675 284.464375 198.523262 284.464375"></polygon>
            <path d="M340.257275,266.747625 C340.257275,276.532438 332.325337,284.464375 322.540525,284.464375 C312.755713,284.464375 304.823775,276.532437 304.823775,266.747625 C304.823775,256.9628 312.755713,249.030875 322.540525,249.030875 C332.325337,249.030875 340.257275,256.9628 340.257275,266.747625 L340.257275,266.747625 Z" id="path386" stroke="#000000" stroke-width="0.9962625" fill="#8080FF" fill-rule="nonzero" transform="translate(322.540525, 266.747625) scale(-1, 1) rotate(-180.000000) translate(-322.540525, -266.747625) "></path>
            <path d="M446.5578,266.747625 C446.5578,276.532438 438.625875,284.464375 428.841075,284.464375 C419.05625,284.464375 411.124325,276.532437 411.124325,266.747625 C411.124325,256.9628 419.05625,249.030875 428.841075,249.030875 C438.625875,249.030875 446.5578,256.9628 446.5578,266.747625 L446.5578,266.747625 Z" id="path398" stroke="#000000" stroke-width="0.9962625" fill="#8080FF" fill-rule="nonzero" transform="translate(428.841063, 266.747625) scale(-1, 1) rotate(-180.000000) translate(-428.841063, -266.747625) "></path>
            <path d="M552.85835,266.747625 C552.85835,276.532438 544.926413,284.464375 535.1416,284.464375 C525.356787,284.464375 517.424863,276.532437 517.424863,266.747625 C517.424863,256.9628 525.356787,249.030875 535.1416,249.030875 C544.926413,249.030875 552.85835,256.9628 552.85835,266.747625 L552.85835,266.747625 Z" id="path410" stroke="#000000" stroke-width="0.9962625" fill="#8080FF" fill-rule="nonzero" transform="translate(535.141606, 266.747625) scale(-1, 1) rotate(-180.000000) translate(-535.141606, -266.747625) "></path>
            <path d="M237.500075,265.497625 L299.773575,265.497625" id="path420" stroke="#000000" stroke-width="1.99255005" transform="translate(268.636825, 266.122625) scale(-1, 1) rotate(-180.000000) translate(-268.636825, -266.122625) "></path>
            <path d="M296.934225,270.53345 C297.170825,269.11375 299.773575,266.984212 300.4834,266.747625 C299.773575,266.511037 297.170825,264.3815 296.934225,262.9618" id="path426" stroke="#000000" stroke-width="1.59402505" stroke-linecap="round" stroke-linejoin="round" transform="translate(298.708812, 266.747625) scale(-1, 1) rotate(-180.000000) translate(-298.708812, -266.747625) "></path>
            <path d="M343.800625,265.497625 L406.0741,265.497625" id="path430" stroke="#000000" stroke-width="1.99255005" transform="translate(374.937363, 266.122625) scale(-1, 1) rotate(-180.000000) translate(-374.937363, -266.122625) "></path>
            <path d="M403.23475,270.53345 C403.47135,269.11375 406.0741,266.984212 406.783925,266.747625 C406.0741,266.511037 403.47135,264.3815 403.23475,262.9618" id="path436" stroke="#000000" stroke-width="1.59402505" stroke-linecap="round" stroke-linejoin="round" transform="translate(405.009338, 266.747625) scale(-1, 1) rotate(-180.000000) translate(-405.009338, -266.747625) "></path>
            <path d="M450.101137,265.497625 L512.374638,265.497625" id="path440" stroke="#000000" stroke-width="1.99255005" transform="translate(481.237887, 266.122625) scale(-1, 1) rotate(-180.000000) translate(-481.237887, -266.122625) "></path>
            <path d="M509.535287,270.53345 C509.771887,269.11375 512.374637,266.984212 513.084462,266.747625 C512.374637,266.511037 509.771887,264.3815 509.535287,262.9618" id="path446" stroke="#000000" stroke-width="1.59402505" stroke-linecap="round" stroke-linejoin="round" transform="translate(511.309875, 266.747625) scale(-1, 1) rotate(-180.000000) translate(-511.309875, -266.747625) "></path>
            <path d="M556.401687,265.497625 L604.50175,265.497625" id="path450" stroke="#000000" stroke-width="1.99255005" transform="translate(580.451719, 266.122625) scale(-1, 1) rotate(-180.000000) translate(-580.451719, -266.122625) "></path>
            <path d="M601.6624,270.53345 C601.899,269.11375 604.50175,266.984212 605.211575,266.747625 C604.50175,266.511037 601.899,264.3815 601.6624,262.9618" id="path456" stroke="#000000" stroke-width="1.59402505" stroke-linecap="round" stroke-linejoin="round" transform="translate(603.436988, 266.747625) scale(-1, 1) rotate(-180.000000) translate(-603.436988, -266.747625) "></path>
            <polygon id="path462" stroke="#000000" stroke-width="0.9962625" fill="#FFF880" fill-rule="nonzero" transform="translate(216.240006, 319.897906) scale(-1, 1) rotate(-180.000000) translate(-216.240006, -319.897906) " points="198.523262 302.181162 233.95675 302.181162 233.95675 337.61465 198.523262 337.61465"></polygon>
            <path d="M340.257275,319.8979 C340.257275,329.682712 332.325337,337.61465 322.540525,337.61465 C312.755713,337.61465 304.823775,329.682712 304.823775,319.8979 C304.823775,310.113087 312.755713,302.18115 322.540525,302.18115 C332.325337,302.18115 340.257275,310.113087 340.257275,319.8979 L340.257275,319.8979 Z" id="path474" stroke="#000000" stroke-width="0.9962625" fill="#8080FF" fill-rule="nonzero" transform="translate(322.540525, 319.897900) scale(-1, 1) rotate(-180.000000) translate(-322.540525, -319.897900) "></path>
            <path d="M446.5578,319.8979 C446.5578,329.682712 438.625875,337.61465 428.841075,337.61465 C419.05625,337.61465 411.124325,329.682712 411.124325,319.8979 C411.124325,310.113087 419.05625,302.18115 428.841075,302.18115 C438.625875,302.18115 446.5578,310.113087 446.5578,319.8979 L446.5578,319.8979 Z" id="path486" stroke="#000000" stroke-width="0.9962625" fill="#8080FF" fill-rule="nonzero" transform="translate(428.841063, 319.897900) scale(-1, 1) rotate(-180.000000) translate(-428.841063, -319.897900) "></path>
            <path d="M552.85835,319.8979 C552.85835,329.682712 544.926413,337.61465 535.1416,337.61465 C525.356787,337.61465 517.424863,329.682712 517.424863,319.8979 C517.424863,310.113087 525.356787,302.18115 535.1416,302.18115 C544.926413,302.18115 552.85835,310.113087 552.85835,319.8979 L552.85835,319.8979 Z" id="path498" stroke="#000000" stroke-width="0.9962625" fill="#8080FF" fill-rule="nonzero" transform="translate(535.141606, 319.897900) scale(-1, 1) rotate(-180.000000) translate(-535.141606, -319.897900) "></path>
            <path d="M237.500075,318.6479 L299.773575,318.6479" id="path508" stroke="#000000" stroke-width="1.99255005" transform="translate(268.636825, 319.272900) scale(-1, 1) rotate(-180.000000) translate(-268.636825, -319.272900) "></path>
            <path d="M296.934225,323.683725 C297.170825,322.264025 299.773575,320.134487 300.4834,319.8979 C299.773575,319.661312 297.170825,317.531775 296.934225,316.112075" id="path514" stroke="#000000" stroke-width="1.59402505" stroke-linecap="round" stroke-linejoin="round" transform="translate(298.708813, 319.897900) scale(-1, 1) rotate(-180.000000) translate(-298.708813, -319.897900) "></path>
            <path d="M343.800625,318.6479 L406.0741,318.6479" id="path518" stroke="#000000" stroke-width="1.99255005" transform="translate(374.937363, 319.272900) scale(-1, 1) rotate(-180.000000) translate(-374.937363, -319.272900) "></path>
            <path d="M403.23475,323.683725 C403.47135,322.264025 406.0741,320.134487 406.783925,319.8979 C406.0741,319.661312 403.47135,317.531775 403.23475,316.112075" id="path524" stroke="#000000" stroke-width="1.59402505" stroke-linecap="round" stroke-linejoin="round" transform="translate(405.009338, 319.897900) scale(-1, 1) rotate(-180.000000) translate(-405.009338, -319.897900) "></path>
            <path d="M450.101137,318.6479 L512.374638,318.6479" id="path528" stroke="#000000" stroke-width="1.99255005" transform="translate(481.237887, 319.272900) scale(-1, 1) rotate(-180.000000) translate(-481.237887, -319.272900) "></path>
            <path d="M509.535287,323.683725 C509.771887,322.264025 512.374637,320.134487 513.084462,319.8979 C512.374637,319.661312 509.771887,317.531775 509.535287,316.112075" id="path534" stroke="#000000" stroke-width="1.59402505" stroke-linecap="round" stroke-linejoin="round" transform="translate(511.309875, 319.897900) scale(-1, 1) rotate(-180.000000) translate(-511.309875, -319.897900) "></path>
            <path d="M556.401687,318.6479 L604.50175,318.6479" id="path538" stroke="#000000" stroke-width="1.99255005" transform="translate(580.451719, 319.272900) scale(-1, 1) rotate(-180.000000) translate(-580.451719, -319.272900) "></path>
            <path d="M601.6624,323.683725 C601.899,322.264025 604.50175,320.134487 605.211575,319.8979 C604.50175,319.661312 601.899,317.531775 601.6624,316.112075" id="path544" stroke="#000000" stroke-width="1.59402505" stroke-linecap="round" stroke-linejoin="round" transform="translate(603.436988, 319.897900) scale(-1, 1) rotate(-180.000000) translate(-603.436988, -319.897900) "></path>
            <path d="M601.6624,376.93235 C601.899,375.51265 604.50175,373.383112 605.211575,373.146525 C604.50175,372.909938 601.899,370.7804 601.6624,369.3607" id="path104" stroke="#000000" stroke-width="1.59402505" stroke-linecap="round" stroke-linejoin="round" transform="translate(603.436988, 373.146525) scale(-1, 1) rotate(-180.000000) translate(-603.436988, -373.146525) "></path>
            <path d="M601.6624,430.082625 C601.899,428.662925 604.50175,426.533387 605.211575,426.2968 C604.50175,426.060212 601.899,423.930675 601.6624,422.510975" id="path192" stroke="#000000" stroke-width="1.59402505" stroke-linecap="round" stroke-linejoin="round" transform="translate(603.436988, 426.296800) scale(-1, 1) rotate(-180.000000) translate(-603.436988, -426.296800) "></path>
            <path d="M601.6624,483.232888 C601.899,481.813187 604.50175,479.68365 605.211575,479.447062 C604.50175,479.210475 601.899,477.080937 601.6624,475.661237" id="path280" stroke="#000000" stroke-width="1.59402505" stroke-linecap="round" stroke-linejoin="round" transform="translate(603.436988, 479.447062) scale(-1, 1) rotate(-180.000000) translate(-603.436988, -479.447062) "></path>
            <path d="M601.6624,536.383187 C601.899,534.963487 604.50175,532.83395 605.211575,532.597362 C604.50175,532.360775 601.899,530.231237 601.6624,528.811537" id="path368" stroke="#000000" stroke-width="1.59402505" stroke-linecap="round" stroke-linejoin="round" transform="translate(603.436988, 532.597362) scale(-1, 1) rotate(-180.000000) translate(-603.436988, -532.597362) "></path>
            <path d="M601.6624,589.53345 C601.899,588.11375 604.50175,585.984212 605.211575,585.747625 C604.50175,585.511037 601.899,583.3815 601.6624,581.9618" id="path456" stroke="#000000" stroke-width="1.59402505" stroke-linecap="round" stroke-linejoin="round" transform="translate(603.436988, 585.747625) scale(-1, 1) rotate(-180.000000) translate(-603.436988, -585.747625) "></path>
            <path d="M601.6624,642.683725 C601.899,641.264025 604.50175,639.134487 605.211575,638.8979 C604.50175,638.661312 601.899,636.531775 601.6624,635.112075" id="path544" stroke="#000000" stroke-width="1.59402505" stroke-linecap="round" stroke-linejoin="round" transform="translate(603.436988, 638.897900) scale(-1, 1) rotate(-180.000000) translate(-603.436988, -638.897900) "></path>
            <path d="M322.540525,31.690925 L322.540525,0.99625" id="path564" stroke="#000000" stroke-width="1.49441257" transform="translate(323.165525, 16.343587) scale(-1, 1) rotate(-180.000000) translate(-323.165525, -16.343587) "></path>
            <path d="M321.046125,33.98235 C321.245387,32.7868 323.437175,30.9935 324.034925,30.794275 C323.437175,30.59505 321.245387,28.80175 321.046125,27.6062" id="path570" stroke="#000000" stroke-width="1.19549997" stroke-linecap="round" stroke-linejoin="round" transform="translate(322.540525, 30.794275) scale(-1, 1) rotate(-270.000000) translate(-322.540525, -30.794275) "></path>
            <path d="M428.841075,31.690925 L428.841075,0.99625" id="path574" stroke="#000000" stroke-width="1.49441257" transform="translate(429.466075, 16.343587) scale(-1, 1) rotate(-180.000000) translate(-429.466075, -16.343587) "></path>
            <path d="M427.346675,33.98235 C427.545937,32.7868 429.737725,30.9935 430.335475,30.794275 C429.737725,30.59505 427.545937,28.80175 427.346675,27.6062" id="path580" stroke="#000000" stroke-width="1.19549997" stroke-linecap="round" stroke-linejoin="round" transform="translate(428.841075, 30.794275) scale(-1, 1) rotate(-270.000000) translate(-428.841075, -30.794275) "></path>
            <path d="M535.1416,31.690925 L535.1416,0.99625" id="path584" stroke="#000000" stroke-width="1.49441257" transform="translate(535.766600, 16.343587) scale(-1, 1) rotate(-180.000000) translate(-535.766600, -16.343587) "></path>
            <path d="M533.6472,33.98235 C533.846463,32.7868 536.03825,30.9935 536.636,30.794275 C536.03825,30.59505 533.846463,28.80175 533.6472,27.6062" id="path590" stroke="#000000" stroke-width="1.19549997" stroke-linecap="round" stroke-linejoin="round" transform="translate(535.141600, 30.794275) scale(-1, 1) rotate(-270.000000) translate(-535.141600, -30.794275) "></path>
            <path d="M322.540525,84.8412 L322.540525,75.4065875" id="path594" stroke="#000000" stroke-width="1.49441257" transform="translate(323.165525, 80.123894) scale(-1, 1) rotate(-180.000000) translate(-323.165525, -80.123894) "></path>
            <path d="M321.046125,87.132625 C321.245387,85.937075 323.437175,84.143775 324.034925,83.94455 C323.437175,83.745325 321.245387,81.952025 321.046125,80.756475" id="path600" stroke="#000000" stroke-width="1.19549997" stroke-linecap="round" stroke-linejoin="round" transform="translate(322.540525, 83.944550) scale(-1, 1) rotate(-270.000000) translate(-322.540525, -83.944550) "></path>
            <path d="M428.841075,84.8412 L428.841075,75.4065875" id="path604" stroke="#000000" stroke-width="1.49441257" transform="translate(429.466075, 80.123894) scale(-1, 1) rotate(-180.000000) translate(-429.466075, -80.123894) "></path>
            <path d="M427.346675,87.132625 C427.545937,85.937075 429.737725,84.143775 430.335475,83.94455 C429.737725,83.745325 427.545937,81.952025 427.346675,80.756475" id="path610" stroke="#000000" stroke-width="1.19549997" stroke-linecap="round" stroke-linejoin="round" transform="translate(428.841075, 83.944550) scale(-1, 1) rotate(-270.000000) translate(-428.841075, -83.944550) "></path>
            <path d="M535.1416,84.8412 L535.1416,75.4065875" id="path614" stroke="#000000" stroke-width="1.49441257" transform="translate(535.766600, 80.123894) scale(-1, 1) rotate(-180.000000) translate(-535.766600, -80.123894) "></path>
            <path d="M533.6472,87.132625 C533.846463,85.937075 536.03825,84.143775 536.636,83.94455 C536.03825,83.745325 533.846463,81.952025 533.6472,80.756475" id="path620" stroke="#000000" stroke-width="1.19549997" stroke-linecap="round" stroke-linejoin="round" transform="translate(535.141600, 83.944550) scale(-1, 1) rotate(-270.000000) translate(-535.141600, -83.944550) "></path>
            <path d="M322.540525,137.991475 L322.540525,128.556887" id="path624" stroke="#000000" stroke-width="1.49441257" transform="translate(323.165525, 133.274181) scale(-1, 1) rotate(-180.000000) translate(-323.165525, -133.274181) "></path>
            <path d="M321.046125,140.2829 C321.245387,139.08735 323.437175,137.29405 324.034925,137.094825 C323.437175,136.8956 321.245387,135.1023 321.046125,133.90675" id="path630" stroke="#000000" stroke-width="1.19549997" stroke-linecap="round" stroke-linejoin="round" transform="translate(322.540525, 137.094825) scale(-1, 1) rotate(-270.000000) translate(-322.540525, -137.094825) "></path>
            <path d="M428.841075,137.991475 L428.841075,128.556887" id="path634" stroke="#000000" stroke-width="1.49441257" transform="translate(429.466075, 133.274181) scale(-1, 1) rotate(-180.000000) translate(-429.466075, -133.274181) "></path>
            <path d="M427.346675,140.2829 C427.545937,139.08735 429.737725,137.29405 430.335475,137.094825 C429.737725,136.8956 427.545937,135.1023 427.346675,133.90675" id="path640" stroke="#000000" stroke-width="1.19549997" stroke-linecap="round" stroke-linejoin="round" transform="translate(428.841075, 137.094825) scale(-1, 1) rotate(-270.000000) translate(-428.841075, -137.094825) "></path>
            <path d="M535.1416,137.991475 L535.1416,128.556887" id="path644" stroke="#000000" stroke-width="1.49441257" transform="translate(535.766600, 133.274181) scale(-1, 1) rotate(-180.000000) translate(-535.766600, -133.274181) "></path>
            <path d="M533.6472,140.2829 C533.846463,139.08735 536.03825,137.29405 536.636,137.094825 C536.03825,136.8956 533.846463,135.1023 533.6472,133.90675" id="path650" stroke="#000000" stroke-width="1.19549997" stroke-linecap="round" stroke-linejoin="round" transform="translate(535.141600, 137.094825) scale(-1, 1) rotate(-270.000000) translate(-535.141600, -137.094825) "></path>
            <path d="M322.540525,191.14175 L322.540525,181.707162" id="path654" stroke="#000000" stroke-width="1.49441257" transform="translate(323.165525, 186.424456) scale(-1, 1) rotate(-180.000000) translate(-323.165525, -186.424456) "></path>
            <path d="M321.046125,193.433175 C321.245387,192.237625 323.437175,190.444325 324.034925,190.2451 C323.437175,190.045875 321.245387,188.252575 321.046125,187.057025" id="path660" stroke="#000000" stroke-width="1.19549997" stroke-linecap="round" stroke-linejoin="round" transform="translate(322.540525, 190.245100) scale(-1, 1) rotate(-270.000000) translate(-322.540525, -190.245100) "></path>
            <path d="M428.841075,191.14175 L428.841075,181.707162" id="path664" stroke="#000000" stroke-width="1.49441257" transform="translate(429.466075, 186.424456) scale(-1, 1) rotate(-180.000000) translate(-429.466075, -186.424456) "></path>
            <path d="M427.346675,193.433175 C427.545937,192.237625 429.737725,190.444325 430.335475,190.2451 C429.737725,190.045875 427.545937,188.252575 427.346675,187.057025" id="path670" stroke="#000000" stroke-width="1.19549997" stroke-linecap="round" stroke-linejoin="round" transform="translate(428.841075, 190.245100) scale(-1, 1) rotate(-270.000000) translate(-428.841075, -190.245100) "></path>
            <path d="M535.1416,191.14175 L535.1416,181.707162" id="path674" stroke="#000000" stroke-width="1.49441257" transform="translate(535.766600, 186.424456) scale(-1, 1) rotate(-180.000000) translate(-535.766600, -186.424456) "></path>
            <path d="M533.6472,193.433175 C533.846463,192.237625 536.03825,190.444325 536.636,190.2451 C536.03825,190.045875 533.846463,188.252575 533.6472,187.057025" id="path680" stroke="#000000" stroke-width="1.19549997" stroke-linecap="round" stroke-linejoin="round" transform="translate(535.141600, 190.245100) scale(-1, 1) rotate(-270.000000) translate(-535.141600, -190.245100) "></path>
            <path d="M322.540525,244.292037 L322.540525,234.857425" id="path684" stroke="#000000" stroke-width="1.49441257" transform="translate(323.165525, 239.574731) scale(-1, 1) rotate(-180.000000) translate(-323.165525, -239.574731) "></path>
            <path d="M321.046125,246.583462 C321.245387,245.387912 323.437175,243.594612 324.034925,243.395387 C323.437175,243.196162 321.245387,241.402862 321.046125,240.207312" id="path690" stroke="#000000" stroke-width="1.19549997" stroke-linecap="round" stroke-linejoin="round" transform="translate(322.540525, 243.395387) scale(-1, 1) rotate(-270.000000) translate(-322.540525, -243.395387) "></path>
            <path d="M428.841075,244.292037 L428.841075,234.857425" id="path694" stroke="#000000" stroke-width="1.49441257" transform="translate(429.466075, 239.574731) scale(-1, 1) rotate(-180.000000) translate(-429.466075, -239.574731) "></path>
            <path d="M427.346675,246.583462 C427.545937,245.387912 429.737725,243.594612 430.335475,243.395387 C429.737725,243.196162 427.545937,241.402862 427.346675,240.207312" id="path700" stroke="#000000" stroke-width="1.19549997" stroke-linecap="round" stroke-linejoin="round" transform="translate(428.841075, 243.395387) scale(-1, 1) rotate(-270.000000) translate(-428.841075, -243.395387) "></path>
            <path d="M535.1416,244.292037 L535.1416,234.857425" id="path704" stroke="#000000" stroke-width="1.49441257" transform="translate(535.766600, 239.574731) scale(-1, 1) rotate(-180.000000) translate(-535.766600, -239.574731) "></path>
            <path d="M533.6472,246.583462 C533.846463,245.387912 536.03825,243.594612 536.636,243.395387 C536.03825,243.196162 533.846463,241.402862 533.6472,240.207312" id="path710" stroke="#000000" stroke-width="1.19549997" stroke-linecap="round" stroke-linejoin="round" transform="translate(535.141600, 243.395387) scale(-1, 1) rotate(-270.000000) translate(-535.141600, -243.395387) "></path>
            <path d="M322.540525,297.442312 L322.540525,288.0077" id="path714" stroke="#000000" stroke-width="1.49441257" transform="translate(323.165525, 292.725006) scale(-1, 1) rotate(-180.000000) translate(-323.165525, -292.725006) "></path>
            <path d="M321.046125,299.733737 C321.245387,298.538187 323.437175,296.744887 324.034925,296.545662 C323.437175,296.346437 321.245387,294.553137 321.046125,293.357587" id="path720" stroke="#000000" stroke-width="1.19549997" stroke-linecap="round" stroke-linejoin="round" transform="translate(322.540525, 296.545662) scale(-1, 1) rotate(-270.000000) translate(-322.540525, -296.545662) "></path>
            <path d="M428.841075,297.442312 L428.841075,288.0077" id="path724" stroke="#000000" stroke-width="1.49441257" transform="translate(429.466075, 292.725006) scale(-1, 1) rotate(-180.000000) translate(-429.466075, -292.725006) "></path>
            <path d="M427.346675,299.733737 C427.545937,298.538187 429.737725,296.744887 430.335475,296.545662 C429.737725,296.346437 427.545937,294.553137 427.346675,293.357587" id="path730" stroke="#000000" stroke-width="1.19549997" stroke-linecap="round" stroke-linejoin="round" transform="translate(428.841075, 296.545662) scale(-1, 1) rotate(-270.000000) translate(-428.841075, -296.545662) "></path>
            <path d="M535.1416,297.442312 L535.1416,288.0077" id="path734" stroke="#000000" stroke-width="1.49441257" transform="translate(535.766600, 292.725006) scale(-1, 1) rotate(-180.000000) translate(-535.766600, -292.725006) "></path>
            <path d="M533.6472,299.733737 C533.846463,298.538187 536.03825,296.744887 536.636,296.545662 C536.03825,296.346437 533.846463,294.553137 533.6472,293.357587" id="path740" stroke="#000000" stroke-width="1.19549997" stroke-linecap="round" stroke-linejoin="round" transform="translate(535.141600, 296.545662) scale(-1, 1) rotate(-270.000000) translate(-535.141600, -296.545662) "></path>
            <path d="M322.540525,350.442312 L322.540525,341.0077" id="path714" stroke="#000000" stroke-width="1.49441257" transform="translate(323.165525, 345.725006) scale(-1, 1) rotate(-180.000000) translate(-323.165525, -345.725006) "></path>
            <path d="M321.046125,352.733737 C321.245387,351.538187 323.437175,349.744887 324.034925,349.545662 C323.437175,349.346437 321.245387,347.553137 321.046125,346.357587" id="path720" stroke="#000000" stroke-width="1.19549997" stroke-linecap="round" stroke-linejoin="round" transform="translate(322.540525, 349.545662) scale(-1, 1) rotate(-270.000000) translate(-322.540525, -349.545662) "></path>
            <path d="M428.841075,350.442312 L428.841075,341.0077" id="path724" stroke="#000000" stroke-width="1.49441257" transform="translate(429.466075, 345.725006) scale(-1, 1) rotate(-180.000000) translate(-429.466075, -345.725006) "></path>
            <path d="M427.346675,352.733737 C427.545937,351.538187 429.737725,349.744887 430.335475,349.545662 C429.737725,349.346437 427.545937,347.553137 427.346675,346.357587" id="path730" stroke="#000000" stroke-width="1.19549997" stroke-linecap="round" stroke-linejoin="round" transform="translate(428.841075, 349.545662) scale(-1, 1) rotate(-270.000000) translate(-428.841075, -349.545662) "></path>
            <path d="M535.1416,350.442312 L535.1416,341.0077" id="path734" stroke="#000000" stroke-width="1.49441257" transform="translate(535.766600, 345.725006) scale(-1, 1) rotate(-180.000000) translate(-535.766600, -345.725006) "></path>
            <path d="M533.6472,352.733737 C533.846463,351.538187 536.03825,349.744887 536.636,349.545662 C536.03825,349.346437 533.846463,347.553137 533.6472,346.357587" id="path740" stroke="#000000" stroke-width="1.19549997" stroke-linecap="round" stroke-linejoin="round" transform="translate(535.141600, 349.545662) scale(-1, 1) rotate(-270.000000) translate(-535.141600, -349.545662) "></path>
            <path d="M180.8065,691.086375 L180.8065,0.582625" id="path774" stroke="#000000" stroke-width="1.99255005" transform="translate(180.306500, 346.041313) scale(-1, 1) rotate(-180.000000) translate(-180.306500, -346.041313) "></path>
            <text id="Time" fill="#000000" transform="translate(159.000000, 344.000000) rotate(-450.000000) translate(-159.000000, -344.000000) " font-family="Helvetica" font-size="18" font-weight="normal">
                <tspan x="139" y="351">Time</tspan>
            </text>
            <text id="B" font-family="Helvetica-Bold, Helvetica" font-size="28" font-weight="bold" fill="#000000">
                <tspan x="205" y="64">B</tspan>
            </text>
            <text id="o" font-family="Helvetica-Bold, Helvetica" font-size="28" font-weight="bold" fill="#000000">
                <tspan x="207" y="116">o</tspan>
            </text>
            <text id="b" font-family="Helvetica-Bold, Helvetica" font-size="28" font-weight="bold" fill="#000000">
                <tspan x="207" y="171">b</tspan>
            </text>
            <text id="i" font-family="Helvetica-Bold, Helvetica" font-size="28" font-weight="bold" fill="#000000">
                <tspan x="212" y="277">i</tspan>
            </text>
            <text id="s" font-family="Helvetica-Bold, Helvetica" font-size="28" font-weight="bold" fill="#000000">
                <tspan x="208" y="328">s</tspan>
            </text>
            <text id="_" font-family="Helvetica-Bold, Helvetica" font-size="28" font-weight="bold" fill="#000000">
                <tspan x="208" y="220">_</tspan>
            </text>
            <polygon id="path22" stroke="#000000" stroke-width="0.9962625" fill="#FFF880" fill-rule="nonzero" transform="translate(216.240006, 373.146531) scale(-1, 1) rotate(-180.000000) translate(-216.240006, -373.146531) " points="198.523262 355.429787 233.95675 355.429787 233.95675 390.863275 198.523262 390.863275"></polygon>
            <path d="M340.257275,373.146525 C340.257275,382.931337 332.325337,390.863275 322.540525,390.863275 C312.755713,390.863275 304.823775,382.931337 304.823775,373.146525 C304.823775,363.361712 312.755713,355.429775 322.540525,355.429775 C332.325337,355.429775 340.257275,363.361712 340.257275,373.146525 Z" id="path34" stroke="#000000" stroke-width="0.9962625" fill="#8080FF" fill-rule="nonzero" transform="translate(322.540525, 373.146525) scale(-1, 1) rotate(-180.000000) translate(-322.540525, -373.146525) "></path>
            <path d="M446.5578,373.146525 C446.5578,382.931337 438.625875,390.863275 428.841075,390.863275 C419.05625,390.863275 411.124325,382.931337 411.124325,373.146525 C411.124325,363.361712 419.05625,355.429775 428.841075,355.429775 C438.625875,355.429775 446.5578,363.361712 446.5578,373.146525 L446.5578,373.146525 Z" id="path46" stroke="#000000" stroke-width="0.9962625" fill="#8080FF" fill-rule="nonzero" transform="translate(428.841063, 373.146525) scale(-1, 1) rotate(-180.000000) translate(-428.841063, -373.146525) "></path>
            <path d="M552.85835,373.146525 C552.85835,382.931337 544.926413,390.863275 535.1416,390.863275 C525.356787,390.863275 517.424863,382.931337 517.424863,373.146525 C517.424863,363.361712 525.356787,355.429775 535.1416,355.429775 C544.926413,355.429775 552.85835,363.361712 552.85835,373.146525 Z" id="path58" stroke="#000000" stroke-width="0.9962625" fill="#8080FF" fill-rule="nonzero" transform="translate(535.141606, 373.146525) scale(-1, 1) rotate(-180.000000) translate(-535.141606, -373.146525) "></path>
            <path d="M237.500075,371.896525 L299.773575,371.896525" id="path68" stroke="#000000" stroke-width="1.99255005" transform="translate(268.636825, 372.521525) scale(-1, 1) rotate(-180.000000) translate(-268.636825, -372.521525) "></path>
            <path d="M296.934225,376.93235 C297.170825,375.51265 299.773575,373.383113 300.4834,373.146525 C299.773575,372.909938 297.170825,370.7804 296.934225,369.3607" id="path74" stroke="#000000" stroke-width="1.59402505" stroke-linecap="round" stroke-linejoin="round" transform="translate(298.708812, 373.146525) scale(-1, 1) rotate(-180.000000) translate(-298.708812, -373.146525) "></path>
            <path d="M343.800625,371.896525 L406.0741,371.896525" id="path78" stroke="#000000" stroke-width="1.99255005" transform="translate(374.937363, 372.521525) scale(-1, 1) rotate(-180.000000) translate(-374.937363, -372.521525) "></path>
            <path d="M403.23475,376.93235 C403.47135,375.51265 406.0741,373.383113 406.783925,373.146525 C406.0741,372.909938 403.47135,370.7804 403.23475,369.3607" id="path84" stroke="#000000" stroke-width="1.59402505" stroke-linecap="round" stroke-linejoin="round" transform="translate(405.009337, 373.146525) scale(-1, 1) rotate(-180.000000) translate(-405.009337, -373.146525) "></path>
            <path d="M450.101137,371.896525 L512.374638,371.896525" id="path88" stroke="#000000" stroke-width="1.99255005" transform="translate(481.237887, 372.521525) scale(-1, 1) rotate(-180.000000) translate(-481.237887, -372.521525) "></path>
            <path d="M509.535287,376.93235 C509.771887,375.51265 512.374637,373.383112 513.084462,373.146525 C512.374637,372.909938 509.771887,370.7804 509.535287,369.3607" id="path94" stroke="#000000" stroke-width="1.59402505" stroke-linecap="round" stroke-linejoin="round" transform="translate(511.309875, 373.146525) scale(-1, 1) rotate(-180.000000) translate(-511.309875, -373.146525) "></path>
            <path d="M556.401687,371.896525 L604.50175,371.896525" id="path98" stroke="#000000" stroke-width="1.99255005" transform="translate(580.451719, 372.521525) scale(-1, 1) rotate(-180.000000) translate(-580.451719, -372.521525) "></path>
            <polygon id="path110" stroke="#000000" stroke-width="0.9962625" fill="#FFF880" fill-rule="nonzero" transform="translate(216.240006, 426.296806) scale(-1, 1) rotate(-180.000000) translate(-216.240006, -426.296806) " points="198.523262 408.580062 233.95675 408.580062 233.95675 444.01355 198.523262 444.01355"></polygon>
            <path d="M340.257275,426.296787 C340.257275,436.0816 332.325337,444.01355 322.540525,444.01355 C312.755713,444.01355 304.823775,436.0816 304.823775,426.296787 C304.823775,416.511975 312.755713,408.580037 322.540525,408.580037 C332.325337,408.580037 340.257275,416.511975 340.257275,426.296787 Z" id="path122" stroke="#000000" stroke-width="0.9962625" fill="#8080FF" fill-rule="nonzero" transform="translate(322.540525, 426.296794) scale(-1, 1) rotate(-180.000000) translate(-322.540525, -426.296794) "></path>
            <path d="M446.5578,426.296787 C446.5578,436.0816 438.625875,444.01355 428.841075,444.01355 C419.05625,444.01355 411.124325,436.0816 411.124325,426.296787 C411.124325,416.511975 419.05625,408.580037 428.841075,408.580037 C438.625875,408.580037 446.5578,416.511975 446.5578,426.296787 L446.5578,426.296787 Z" id="path134" stroke="#000000" stroke-width="0.9962625" fill="#8080FF" fill-rule="nonzero" transform="translate(428.841063, 426.296794) scale(-1, 1) rotate(-180.000000) translate(-428.841063, -426.296794) "></path>
            <path d="M552.85835,426.296787 C552.85835,436.0816 544.926413,444.01355 535.1416,444.01355 C525.356787,444.01355 517.424863,436.0816 517.424863,426.296787 C517.424863,416.511975 525.356787,408.580037 535.1416,408.580037 C544.926413,408.580037 552.85835,416.511975 552.85835,426.296787 Z" id="path146" stroke="#000000" stroke-width="0.9962625" fill="#8080FF" fill-rule="nonzero" transform="translate(535.141606, 426.296794) scale(-1, 1) rotate(-180.000000) translate(-535.141606, -426.296794) "></path>
            <path d="M237.500075,425.0468 L299.773575,425.0468" id="path156" stroke="#000000" stroke-width="1.99255005" transform="translate(268.636825, 425.671800) scale(-1, 1) rotate(-180.000000) translate(-268.636825, -425.671800) "></path>
            <path d="M296.934225,430.082625 C297.170825,428.662925 299.773575,426.533387 300.4834,426.2968 C299.773575,426.060212 297.170825,423.930675 296.934225,422.510975" id="path162" stroke="#000000" stroke-width="1.59402505" stroke-linecap="round" stroke-linejoin="round" transform="translate(298.708812, 426.296800) scale(-1, 1) rotate(-180.000000) translate(-298.708812, -426.296800) "></path>
            <path d="M343.800625,425.0468 L406.0741,425.0468" id="path166" stroke="#000000" stroke-width="1.99255005" transform="translate(374.937363, 425.671800) scale(-1, 1) rotate(-180.000000) translate(-374.937363, -425.671800) "></path>
            <path d="M403.23475,430.082625 C403.47135,428.662925 406.0741,426.533387 406.783925,426.2968 C406.0741,426.060212 403.47135,423.930675 403.23475,422.510975" id="path172" stroke="#000000" stroke-width="1.59402505" stroke-linecap="round" stroke-linejoin="round" transform="translate(405.009337, 426.296800) scale(-1, 1) rotate(-180.000000) translate(-405.009337, -426.296800) "></path>
            <path d="M450.101137,425.0468 L512.374638,425.0468" id="path176" stroke="#000000" stroke-width="1.99255005" transform="translate(481.237887, 425.671800) scale(-1, 1) rotate(-180.000000) translate(-481.237887, -425.671800) "></path>
            <path d="M509.535287,430.082625 C509.771887,428.662925 512.374637,426.533387 513.084462,426.2968 C512.374637,426.060212 509.771887,423.930675 509.535287,422.510975" id="path182" stroke="#000000" stroke-width="1.59402505" stroke-linecap="round" stroke-linejoin="round" transform="translate(511.309875, 426.296800) scale(-1, 1) rotate(-180.000000) translate(-511.309875, -426.296800) "></path>
            <path d="M556.401687,425.0468 L604.50175,425.0468" id="path186" stroke="#000000" stroke-width="1.99255005" transform="translate(580.451719, 425.671800) scale(-1, 1) rotate(-180.000000) translate(-580.451719, -425.671800) "></path>
            <polygon id="path198" stroke="#000000" stroke-width="0.9962625" fill="#FFF880" fill-rule="nonzero" transform="translate(216.240006, 479.447069) scale(-1, 1) rotate(-180.000000) translate(-216.240006, -479.447069) " points="198.523262 461.730325 233.95675 461.730325 233.95675 497.163812 198.523262 497.163812"></polygon>
            <path d="M340.257275,479.447087 C340.257275,489.231875 332.325337,497.163812 322.540525,497.163812 C312.755713,497.163812 304.823775,489.231875 304.823775,479.447087 C304.823775,469.662275 312.755713,461.730337 322.540525,461.730337 C332.325337,461.730337 340.257275,469.662275 340.257275,479.447087 Z" id="path210" stroke="#000000" stroke-width="0.9962625" fill="#8080FF" fill-rule="nonzero" transform="translate(322.540525, 479.447075) scale(-1, 1) rotate(-180.000000) translate(-322.540525, -479.447075) "></path>
            <path d="M446.5578,479.447087 C446.5578,489.231875 438.625875,497.163812 428.841075,497.163812 C419.05625,497.163812 411.124325,489.231875 411.124325,479.447087 C411.124325,469.662275 419.05625,461.730337 428.841075,461.730337 C438.625875,461.730337 446.5578,469.662275 446.5578,479.447087 L446.5578,479.447087 Z" id="path222" stroke="#000000" stroke-width="0.9962625" fill="#8080FF" fill-rule="nonzero" transform="translate(428.841063, 479.447075) scale(-1, 1) rotate(-180.000000) translate(-428.841063, -479.447075) "></path>
            <path d="M552.85835,479.447087 C552.85835,489.231875 544.926413,497.163812 535.1416,497.163812 C525.356787,497.163812 517.424863,489.231875 517.424863,479.447087 C517.424863,469.662275 525.356787,461.730337 535.1416,461.730337 C544.926413,461.730337 552.85835,469.662275 552.85835,479.447087 Z" id="path234" stroke="#000000" stroke-width="0.9962625" fill="#8080FF" fill-rule="nonzero" transform="translate(535.141606, 479.447075) scale(-1, 1) rotate(-180.000000) translate(-535.141606, -479.447075) "></path>
            <path d="M237.500075,478.197062 L299.773575,478.197062" id="path244" stroke="#000000" stroke-width="1.99255005" transform="translate(268.636825, 478.822062) scale(-1, 1) rotate(-180.000000) translate(-268.636825, -478.822062) "></path>
            <path d="M296.934225,483.232888 C297.170825,481.813187 299.773575,479.68365 300.4834,479.447062 C299.773575,479.210475 297.170825,477.080937 296.934225,475.661237" id="path250" stroke="#000000" stroke-width="1.59402505" stroke-linecap="round" stroke-linejoin="round" transform="translate(298.708812, 479.447062) scale(-1, 1) rotate(-180.000000) translate(-298.708812, -479.447062) "></path>
            <path d="M343.800625,478.197062 L406.0741,478.197062" id="path254" stroke="#000000" stroke-width="1.99255005" transform="translate(374.937363, 478.822062) scale(-1, 1) rotate(-180.000000) translate(-374.937363, -478.822062) "></path>
            <path d="M403.23475,483.232888 C403.47135,481.813187 406.0741,479.68365 406.783925,479.447062 C406.0741,479.210475 403.47135,477.080937 403.23475,475.661237" id="path260" stroke="#000000" stroke-width="1.59402505" stroke-linecap="round" stroke-linejoin="round" transform="translate(405.009337, 479.447062) scale(-1, 1) rotate(-180.000000) translate(-405.009337, -479.447062) "></path>
            <path d="M450.101137,478.197062 L512.374638,478.197062" id="path264" stroke="#000000" stroke-width="1.99255005" transform="translate(481.237887, 478.822062) scale(-1, 1) rotate(-180.000000) translate(-481.237887, -478.822062) "></path>
            <path d="M509.535287,483.232888 C509.771887,481.813187 512.374637,479.68365 513.084462,479.447062 C512.374637,479.210475 509.771887,477.080937 509.535287,475.661237" id="path270" stroke="#000000" stroke-width="1.59402505" stroke-linecap="round" stroke-linejoin="round" transform="translate(511.309875, 479.447062) scale(-1, 1) rotate(-180.000000) translate(-511.309875, -479.447062) "></path>
            <path d="M556.401687,478.197062 L604.50175,478.197062" id="path274" stroke="#000000" stroke-width="1.99255005" transform="translate(580.451719, 478.822062) scale(-1, 1) rotate(-180.000000) translate(-580.451719, -478.822062) "></path>
            <polygon id="path286" stroke="#000000" stroke-width="0.9962625" fill="#FFF880" fill-rule="nonzero" transform="translate(216.240006, 532.597344) scale(-1, 1) rotate(-180.000000) translate(-216.240006, -532.597344) " points="198.523262 514.8806 233.95675 514.8806 233.95675 550.314087 198.523262 550.314087"></polygon>
            <path d="M340.257275,532.597337 C340.257275,542.38215 332.325337,550.314087 322.540525,550.314087 C312.755713,550.314087 304.823775,542.38215 304.823775,532.597337 C304.823775,522.812525 312.755713,514.880612 322.540525,514.880612 C332.325337,514.880612 340.257275,522.812525 340.257275,532.597337 Z" id="path298" stroke="#000000" stroke-width="5" fill="#FF8080" fill-rule="nonzero" transform="translate(322.540525, 532.597350) scale(-1, 1) rotate(-180.000000) translate(-322.540525, -532.597350) "></path>
            <path d="M446.5578,532.597337 C446.5578,542.38215 438.625875,550.314087 428.841075,550.314087 C419.05625,550.314087 411.124325,542.38215 411.124325,532.597337 C411.124325,522.812525 419.05625,514.880612 428.841075,514.880612 C438.625875,514.880612 446.5578,522.812525 446.5578,532.597337 L446.5578,532.597337 Z" id="path310" stroke="#000000" stroke-width="5" fill="#FF8080" fill-rule="nonzero" transform="translate(428.841063, 532.597350) scale(-1, 1) rotate(-180.000000) translate(-428.841063, -532.597350) "></path>
            <path d="M552.85835,532.597337 C552.85835,542.38215 544.926413,550.314087 535.1416,550.314087 C525.356787,550.314087 517.424863,542.38215 517.424863,532.597337 C517.424863,522.812525 525.356787,514.880612 535.1416,514.880612 C544.926413,514.880612 552.85835,522.812525 552.85835,532.597337 Z" id="path322" stroke="#000000" stroke-width="5" fill="#FF8080" fill-rule="nonzero" transform="translate(535.141606, 532.597350) scale(-1, 1) rotate(-180.000000) translate(-535.141606, -532.597350) "></path>
            <path d="M237.500075,531.347362 L299.773575,531.347362" id="path332" stroke="#000000" stroke-width="1.99255005" transform="translate(268.636825, 531.972362) scale(-1, 1) rotate(-180.000000) translate(-268.636825, -531.972362) "></path>
            <path d="M296.934225,536.383187 C297.170825,534.963487 299.773575,532.83395 300.4834,532.597362 C299.773575,532.360775 297.170825,530.231237 296.934225,528.811537" id="path338" stroke="#000000" stroke-width="1.59402505" stroke-linecap="round" stroke-linejoin="round" transform="translate(298.708812, 532.597362) scale(-1, 1) rotate(-180.000000) translate(-298.708812, -532.597362) "></path>
            <path d="M343.800625,531.347362 L406.0741,531.347362" id="path342" stroke="#000000" stroke-width="1.99255005" transform="translate(374.937363, 531.972362) scale(-1, 1) rotate(-180.000000) translate(-374.937363, -531.972362) "></path>
            <path d="M403.23475,536.383187 C403.47135,534.963487 406.0741,532.83395 406.783925,532.597362 C406.0741,532.360775 403.47135,530.231237 403.23475,528.811537" id="path348" stroke="#000000" stroke-width="1.59402505" stroke-linecap="round" stroke-linejoin="round" transform="translate(405.009337, 532.597362) scale(-1, 1) rotate(-180.000000) translate(-405.009337, -532.597362) "></path>
            <path d="M450.101137,531.347362 L512.374638,531.347362" id="path352" stroke="#000000" stroke-width="1.99255005" transform="translate(481.237887, 531.972362) scale(-1, 1) rotate(-180.000000) translate(-481.237887, -531.972362) "></path>
            <path d="M509.535287,536.383187 C509.771887,534.963487 512.374637,532.83395 513.084462,532.597362 C512.374637,532.360775 509.771887,530.231237 509.535287,528.811537" id="path358" stroke="#000000" stroke-width="1.59402505" stroke-linecap="round" stroke-linejoin="round" transform="translate(511.309875, 532.597362) scale(-1, 1) rotate(-180.000000) translate(-511.309875, -532.597362) "></path>
            <path d="M556.401687,531.347362 L604.50175,531.347362" id="path362" stroke="#000000" stroke-width="1.99255005" transform="translate(580.451719, 531.972362) scale(-1, 1) rotate(-180.000000) translate(-580.451719, -531.972362) "></path>
            <polygon id="path374" stroke="#000000" stroke-width="0.9962625" fill="#FFF880" fill-rule="nonzero" transform="translate(216.240006, 585.747631) scale(-1, 1) rotate(-180.000000) translate(-216.240006, -585.747631) " points="198.523262 568.030887 233.95675 568.030887 233.95675 603.464375 198.523262 603.464375"></polygon>
            <path d="M340.257275,585.747625 C340.257275,595.532438 332.325337,603.464375 322.540525,603.464375 C312.755713,603.464375 304.823775,595.532438 304.823775,585.747625 C304.823775,575.9628 312.755713,568.030875 322.540525,568.030875 C332.325337,568.030875 340.257275,575.9628 340.257275,585.747625 L340.257275,585.747625 Z" id="path386" stroke="#000000" stroke-width="5" fill="#FF8080" fill-rule="nonzero" transform="translate(322.540525, 585.747625) scale(-1, 1) rotate(-180.000000) translate(-322.540525, -585.747625) "></path>
            <path d="M446.5578,585.747625 C446.5578,595.532438 438.625875,603.464375 428.841075,603.464375 C419.05625,603.464375 411.124325,595.532438 411.124325,585.747625 C411.124325,575.9628 419.05625,568.030875 428.841075,568.030875 C438.625875,568.030875 446.5578,575.9628 446.5578,585.747625 L446.5578,585.747625 Z" id="path398" stroke="#000000" stroke-width="5" fill="#FF8080" fill-rule="nonzero" transform="translate(428.841063, 585.747625) scale(-1, 1) rotate(-180.000000) translate(-428.841063, -585.747625) "></path>
            <path d="M552.85835,585.747625 C552.85835,595.532438 544.926413,603.464375 535.1416,603.464375 C525.356787,603.464375 517.424863,595.532438 517.424863,585.747625 C517.424863,575.9628 525.356787,568.030875 535.1416,568.030875 C544.926413,568.030875 552.85835,575.9628 552.85835,585.747625 L552.85835,585.747625 Z" id="path410" stroke="#000000" stroke-width="5" fill="#FF8080" fill-rule="nonzero" transform="translate(535.141606, 585.747625) scale(-1, 1) rotate(-180.000000) translate(-535.141606, -585.747625) "></path>
            <path d="M237.500075,584.497625 L299.773575,584.497625" id="path420" stroke="#000000" stroke-width="1.99255005" transform="translate(268.636825, 585.122625) scale(-1, 1) rotate(-180.000000) translate(-268.636825, -585.122625) "></path>
            <path d="M296.934225,589.53345 C297.170825,588.11375 299.773575,585.984212 300.4834,585.747625 C299.773575,585.511037 297.170825,583.3815 296.934225,581.9618" id="path426" stroke="#000000" stroke-width="1.59402505" stroke-linecap="round" stroke-linejoin="round" transform="translate(298.708812, 585.747625) scale(-1, 1) rotate(-180.000000) translate(-298.708812, -585.747625) "></path>
            <path d="M343.800625,584.497625 L406.0741,584.497625" id="path430" stroke="#000000" stroke-width="1.99255005" transform="translate(374.937363, 585.122625) scale(-1, 1) rotate(-180.000000) translate(-374.937363, -585.122625) "></path>
            <path d="M403.23475,589.53345 C403.47135,588.11375 406.0741,585.984212 406.783925,585.747625 C406.0741,585.511037 403.47135,583.3815 403.23475,581.9618" id="path436" stroke="#000000" stroke-width="1.59402505" stroke-linecap="round" stroke-linejoin="round" transform="translate(405.009337, 585.747625) scale(-1, 1) rotate(-180.000000) translate(-405.009337, -585.747625) "></path>
            <path d="M450.101137,584.497625 L512.374638,584.497625" id="path440" stroke="#000000" stroke-width="1.99255005" transform="translate(481.237887, 585.122625) scale(-1, 1) rotate(-180.000000) translate(-481.237887, -585.122625) "></path>
            <path d="M509.535287,589.53345 C509.771887,588.11375 512.374637,585.984212 513.084462,585.747625 C512.374637,585.511037 509.771887,583.3815 509.535287,581.9618" id="path446" stroke="#000000" stroke-width="1.59402505" stroke-linecap="round" stroke-linejoin="round" transform="translate(511.309875, 585.747625) scale(-1, 1) rotate(-180.000000) translate(-511.309875, -585.747625) "></path>
            <path d="M556.401687,584.497625 L604.50175,584.497625" id="path450" stroke="#000000" stroke-width="1.99255005" transform="translate(580.451719, 585.122625) scale(-1, 1) rotate(-180.000000) translate(-580.451719, -585.122625) "></path>
            <polygon id="path462" stroke="#000000" stroke-width="0.9962625" fill="#FFF880" fill-rule="nonzero" transform="translate(216.240006, 638.897906) scale(-1, 1) rotate(-180.000000) translate(-216.240006, -638.897906) " points="198.523262 621.181162 233.95675 621.181162 233.95675 656.61465 198.523262 656.61465"></polygon>
            <path d="M340.257275,638.8979 C340.257275,648.682712 332.325337,656.61465 322.540525,656.61465 C312.755713,656.61465 304.823775,648.682712 304.823775,638.8979 C304.823775,629.113087 312.755713,621.18115 322.540525,621.18115 C332.325337,621.18115 340.257275,629.113087 340.257275,638.8979 L340.257275,638.8979 Z" id="path474" stroke="#000000" stroke-width="5" fill="#FF8080" fill-rule="nonzero" transform="translate(322.540525, 638.897900) scale(-1, 1) rotate(-180.000000) translate(-322.540525, -638.897900) "></path>
            <path d="M446.5578,638.8979 C446.5578,648.682712 438.625875,656.61465 428.841075,656.61465 C419.05625,656.61465 411.124325,648.682712 411.124325,638.8979 C411.124325,629.113087 419.05625,621.18115 428.841075,621.18115 C438.625875,621.18115 446.5578,629.113087 446.5578,638.8979 L446.5578,638.8979 Z" id="path486" stroke="#000000" stroke-width="5" fill="#FF8080" fill-rule="nonzero" transform="translate(428.841063, 638.897900) scale(-1, 1) rotate(-180.000000) translate(-428.841063, -638.897900) "></path>
            <path d="M552.85835,638.8979 C552.85835,648.682712 544.926413,656.61465 535.1416,656.61465 C525.356787,656.61465 517.424863,648.682712 517.424863,638.8979 C517.424863,629.113087 525.356787,621.18115 535.1416,621.18115 C544.926413,621.18115 552.85835,629.113087 552.85835,638.8979 L552.85835,638.8979 Z" id="path498" stroke="#000000" stroke-width="5" fill="#FF8080" fill-rule="nonzero" transform="translate(535.141606, 638.897900) scale(-1, 1) rotate(-180.000000) translate(-535.141606, -638.897900) "></path>
            <path d="M237.500075,637.6479 L299.773575,637.6479" id="path508" stroke="#000000" stroke-width="1.99255005" transform="translate(268.636825, 638.272900) scale(-1, 1) rotate(-180.000000) translate(-268.636825, -638.272900) "></path>
            <path d="M296.934225,642.683725 C297.170825,641.264025 299.773575,639.134487 300.4834,638.8979 C299.773575,638.661312 297.170825,636.531775 296.934225,635.112075" id="path514" stroke="#000000" stroke-width="1.59402505" stroke-linecap="round" stroke-linejoin="round" transform="translate(298.708812, 638.897900) scale(-1, 1) rotate(-180.000000) translate(-298.708812, -638.897900) "></path>
            <path d="M343.800625,637.6479 L406.0741,637.6479" id="path518" stroke="#000000" stroke-width="1.99255005" transform="translate(374.937363, 638.272900) scale(-1, 1) rotate(-180.000000) translate(-374.937363, -638.272900) "></path>
            <path d="M403.23475,642.683725 C403.47135,641.264025 406.0741,639.134487 406.783925,638.8979 C406.0741,638.661312 403.47135,636.531775 403.23475,635.112075" id="path524" stroke="#000000" stroke-width="1.59402505" stroke-linecap="round" stroke-linejoin="round" transform="translate(405.009337, 638.897900) scale(-1, 1) rotate(-180.000000) translate(-405.009337, -638.897900) "></path>
            <path d="M450.101137,637.6479 L512.374638,637.6479" id="path528" stroke="#000000" stroke-width="1.99255005" transform="translate(481.237887, 638.272900) scale(-1, 1) rotate(-180.000000) translate(-481.237887, -638.272900) "></path>
            <path d="M509.535287,642.683725 C509.771887,641.264025 512.374637,639.134487 513.084462,638.8979 C512.374637,638.661312 509.771887,636.531775 509.535287,635.112075" id="path534" stroke="#000000" stroke-width="1.59402505" stroke-linecap="round" stroke-linejoin="round" transform="translate(511.309875, 638.897900) scale(-1, 1) rotate(-180.000000) translate(-511.309875, -638.897900) "></path>
            <path d="M556.401687,637.6479 L604.50175,637.6479" id="path538" stroke="#000000" stroke-width="1.99255005" transform="translate(580.451719, 638.272900) scale(-1, 1) rotate(-180.000000) translate(-580.451719, -638.272900) "></path>
            <path d="M322.540525,403.8412 L322.540525,394.406588" id="path594" stroke="#000000" stroke-width="1.49441257" transform="translate(323.165525, 399.123894) scale(-1, 1) rotate(-180.000000) translate(-323.165525, -399.123894) "></path>
            <path d="M321.046125,406.132625 C321.245387,404.937075 323.437175,403.143775 324.034925,402.94455 C323.437175,402.745325 321.245387,400.952025 321.046125,399.756475" id="path600" stroke="#000000" stroke-width="1.19549997" stroke-linecap="round" stroke-linejoin="round" transform="translate(322.540525, 402.944550) scale(-1, 1) rotate(-270.000000) translate(-322.540525, -402.944550) "></path>
            <path d="M428.841075,403.8412 L428.841075,394.406588" id="path604" stroke="#000000" stroke-width="1.49441257" transform="translate(429.466075, 399.123894) scale(-1, 1) rotate(-180.000000) translate(-429.466075, -399.123894) "></path>
            <path d="M427.346675,406.132625 C427.545937,404.937075 429.737725,403.143775 430.335475,402.94455 C429.737725,402.745325 427.545937,400.952025 427.346675,399.756475" id="path610" stroke="#000000" stroke-width="1.19549997" stroke-linecap="round" stroke-linejoin="round" transform="translate(428.841075, 402.944550) scale(-1, 1) rotate(-270.000000) translate(-428.841075, -402.944550) "></path>
            <path d="M535.1416,403.8412 L535.1416,394.406588" id="path614" stroke="#000000" stroke-width="1.49441257" transform="translate(535.766600, 399.123894) scale(-1, 1) rotate(-180.000000) translate(-535.766600, -399.123894) "></path>
            <path d="M533.6472,406.132625 C533.846463,404.937075 536.03825,403.143775 536.636,402.94455 C536.03825,402.745325 533.846463,400.952025 533.6472,399.756475" id="path620" stroke="#000000" stroke-width="1.19549997" stroke-linecap="round" stroke-linejoin="round" transform="translate(535.141600, 402.944550) scale(-1, 1) rotate(-270.000000) translate(-535.141600, -402.944550) "></path>
            <path d="M322.540525,456.991475 L322.540525,447.556887" id="path624" stroke="#000000" stroke-width="1.49441257" transform="translate(323.165525, 452.274181) scale(-1, 1) rotate(-180.000000) translate(-323.165525, -452.274181) "></path>
            <path d="M321.046125,459.2829 C321.245387,458.08735 323.437175,456.29405 324.034925,456.094825 C323.437175,455.8956 321.245387,454.1023 321.046125,452.90675" id="path630" stroke="#000000" stroke-width="1.19549997" stroke-linecap="round" stroke-linejoin="round" transform="translate(322.540525, 456.094825) scale(-1, 1) rotate(-270.000000) translate(-322.540525, -456.094825) "></path>
            <path d="M428.841075,456.991475 L428.841075,447.556887" id="path634" stroke="#000000" stroke-width="1.49441257" transform="translate(429.466075, 452.274181) scale(-1, 1) rotate(-180.000000) translate(-429.466075, -452.274181) "></path>
            <path d="M427.346675,459.2829 C427.545937,458.08735 429.737725,456.29405 430.335475,456.094825 C429.737725,455.8956 427.545937,454.1023 427.346675,452.90675" id="path640" stroke="#000000" stroke-width="1.19549997" stroke-linecap="round" stroke-linejoin="round" transform="translate(428.841075, 456.094825) scale(-1, 1) rotate(-270.000000) translate(-428.841075, -456.094825) "></path>
            <path d="M535.1416,456.991475 L535.1416,447.556887" id="path644" stroke="#000000" stroke-width="1.49441257" transform="translate(535.766600, 452.274181) scale(-1, 1) rotate(-180.000000) translate(-535.766600, -452.274181) "></path>
            <path d="M533.6472,459.2829 C533.846463,458.08735 536.03825,456.29405 536.636,456.094825 C536.03825,455.8956 533.846463,454.1023 533.6472,452.90675" id="path650" stroke="#000000" stroke-width="1.19549997" stroke-linecap="round" stroke-linejoin="round" transform="translate(535.141600, 456.094825) scale(-1, 1) rotate(-270.000000) translate(-535.141600, -456.094825) "></path>
            <path d="M322.540525,510.14175 L322.540525,500.707162" id="path654" stroke="#000000" stroke-width="1.49441257" transform="translate(323.165525, 505.424456) scale(-1, 1) rotate(-180.000000) translate(-323.165525, -505.424456) "></path>
            <path d="M321.046125,512.433175 C321.245387,511.237625 323.437175,509.444325 324.034925,509.2451 C323.437175,509.045875 321.245387,507.252575 321.046125,506.057025" id="path660" stroke="#000000" stroke-width="1.19549997" stroke-linecap="round" stroke-linejoin="round" transform="translate(322.540525, 509.245100) scale(-1, 1) rotate(-270.000000) translate(-322.540525, -509.245100) "></path>
            <path d="M428.841075,510.14175 L428.841075,500.707162" id="path664" stroke="#000000" stroke-width="1.49441257" transform="translate(429.466075, 505.424456) scale(-1, 1) rotate(-180.000000) translate(-429.466075, -505.424456) "></path>
            <path d="M427.346675,512.433175 C427.545937,511.237625 429.737725,509.444325 430.335475,509.2451 C429.737725,509.045875 427.545937,507.252575 427.346675,506.057025" id="path670" stroke="#000000" stroke-width="1.19549997" stroke-linecap="round" stroke-linejoin="round" transform="translate(428.841075, 509.245100) scale(-1, 1) rotate(-270.000000) translate(-428.841075, -509.245100) "></path>
            <path d="M535.1416,510.14175 L535.1416,500.707162" id="path674" stroke="#000000" stroke-width="1.49441257" transform="translate(535.766600, 505.424456) scale(-1, 1) rotate(-180.000000) translate(-535.766600, -505.424456) "></path>
            <path d="M533.6472,512.433175 C533.846463,511.237625 536.03825,509.444325 536.636,509.2451 C536.03825,509.045875 533.846463,507.252575 533.6472,506.057025" id="path680" stroke="#000000" stroke-width="1.19549997" stroke-linecap="round" stroke-linejoin="round" transform="translate(535.141600, 509.245100) scale(-1, 1) rotate(-270.000000) translate(-535.141600, -509.245100) "></path>
            <path d="M322.540525,563.292037 L322.540525,553.857425" id="path684" stroke="#000000" stroke-width="1.49441257" transform="translate(323.165525, 558.574731) scale(-1, 1) rotate(-180.000000) translate(-323.165525, -558.574731) "></path>
            <path d="M321.046125,565.583462 C321.245387,564.387912 323.437175,562.594612 324.034925,562.395387 C323.437175,562.196162 321.245387,560.402862 321.046125,559.207312" id="path690" stroke="#000000" stroke-width="1.19549997" stroke-linecap="round" stroke-linejoin="round" transform="translate(322.540525, 562.395387) scale(-1, 1) rotate(-270.000000) translate(-322.540525, -562.395387) "></path>
            <path d="M428.841075,563.292037 L428.841075,553.857425" id="path694" stroke="#000000" stroke-width="1.49441257" transform="translate(429.466075, 558.574731) scale(-1, 1) rotate(-180.000000) translate(-429.466075, -558.574731) "></path>
            <path d="M427.346675,565.583462 C427.545937,564.387912 429.737725,562.594612 430.335475,562.395387 C429.737725,562.196162 427.545937,560.402862 427.346675,559.207312" id="path700" stroke="#000000" stroke-width="1.19549997" stroke-linecap="round" stroke-linejoin="round" transform="translate(428.841075, 562.395387) scale(-1, 1) rotate(-270.000000) translate(-428.841075, -562.395387) "></path>
            <path d="M535.1416,563.292037 L535.1416,553.857425" id="path704" stroke="#000000" stroke-width="1.49441257" transform="translate(535.766600, 558.574731) scale(-1, 1) rotate(-180.000000) translate(-535.766600, -558.574731) "></path>
            <path d="M533.6472,565.583462 C533.846463,564.387912 536.03825,562.594612 536.636,562.395387 C536.03825,562.196162 533.846463,560.402862 533.6472,559.207312" id="path710" stroke="#000000" stroke-width="1.19549997" stroke-linecap="round" stroke-linejoin="round" transform="translate(535.141600, 562.395387) scale(-1, 1) rotate(-270.000000) translate(-535.141600, -562.395387) "></path>
            <path d="M322.540525,616.442312 L322.540525,607.0077" id="path714" stroke="#000000" stroke-width="1.49441257" transform="translate(323.165525, 611.725006) scale(-1, 1) rotate(-180.000000) translate(-323.165525, -611.725006) "></path>
            <path d="M321.046125,618.733737 C321.245387,617.538187 323.437175,615.744887 324.034925,615.545662 C323.437175,615.346437 321.245387,613.553137 321.046125,612.357587" id="path720" stroke="#000000" stroke-width="1.19549997" stroke-linecap="round" stroke-linejoin="round" transform="translate(322.540525, 615.545662) scale(-1, 1) rotate(-270.000000) translate(-322.540525, -615.545662) "></path>
            <path d="M428.841075,616.442312 L428.841075,607.0077" id="path724" stroke="#000000" stroke-width="1.49441257" transform="translate(429.466075, 611.725006) scale(-1, 1) rotate(-180.000000) translate(-429.466075, -611.725006) "></path>
            <path d="M427.346675,618.733737 C427.545937,617.538187 429.737725,615.744887 430.335475,615.545662 C429.737725,615.346437 427.545937,613.553137 427.346675,612.357587" id="path730" stroke="#000000" stroke-width="1.19549997" stroke-linecap="round" stroke-linejoin="round" transform="translate(428.841075, 615.545662) scale(-1, 1) rotate(-270.000000) translate(-428.841075, -615.545662) "></path>
            <path d="M535.1416,616.442312 L535.1416,607.0077" id="path734" stroke="#000000" stroke-width="1.49441257" transform="translate(535.766600, 611.725006) scale(-1, 1) rotate(-180.000000) translate(-535.766600, -611.725006) "></path>
            <path d="M533.6472,618.733737 C533.846463,617.538187 536.03825,615.744887 536.636,615.545662 C536.03825,615.346437 533.846463,613.553137 533.6472,612.357587" id="path740" stroke="#000000" stroke-width="1.19549997" stroke-linecap="round" stroke-linejoin="round" transform="translate(535.141600, 615.545662) scale(-1, 1) rotate(-270.000000) translate(-535.141600, -615.545662) "></path>
            <text id="_" font-family="Helvetica-Bold, Helvetica" font-size="28" font-weight="bold" fill="#000000">
                <tspan x="208" y="383">_</tspan>
            </text>
            <text id="a" font-family="Helvetica-Bold, Helvetica" font-size="28" font-weight="bold" fill="#000000">
                <tspan x="208" y="435">a</tspan>
            </text>
            <text id="_" font-family="Helvetica-Bold, Helvetica" font-size="28" font-weight="bold" fill="#000000">
                <tspan x="208" y="487">_</tspan>
            </text>
            <text id="a" font-family="Helvetica-Bold, Helvetica" font-size="28" font-weight="bold" fill="#000000">
                <tspan x="208" y="594">a</tspan>
            </text>
            <text id="n" font-family="Helvetica-Bold, Helvetica" font-size="28" font-weight="bold" fill="#000000">
                <tspan x="207" y="647">n</tspan>
            </text>
            <text id="m" font-family="Helvetica-Bold, Helvetica" font-size="28" font-weight="bold" fill="#000000">
                <tspan x="204" y="541">m</tspan>
            </text>
            <text id="o" font-family="Helvetica-Bold, Helvetica" font-size="28" font-weight="bold" fill="#000000">
                <tspan x="623" y="62">o</tspan>
            </text>
            <text id="b" font-family="Helvetica-Bold, Helvetica" font-size="28" font-weight="bold" fill="#000000">
                <tspan x="623" y="117">b</tspan>
            </text>
            <text id="i" font-family="Helvetica-Bold, Helvetica" font-size="28" font-weight="bold" fill="#000000">
                <tspan x="628" y="223">i</tspan>
            </text>
            <text id="s" font-family="Helvetica-Bold, Helvetica" font-size="28" font-weight="bold" fill="#000000">
                <tspan x="624" y="274">s</tspan>
            </text>
            <text id="_" font-family="Helvetica-Bold, Helvetica" font-size="28" font-weight="bold" fill="#000000">
                <tspan x="624" y="166">_</tspan>
            </text>
            <text id="_" font-family="Helvetica-Bold, Helvetica" font-size="28" font-weight="bold" fill="#000000">
                <tspan x="624" y="329">_</tspan>
            </text>
            <text id="a" font-family="Helvetica-Bold, Helvetica" font-size="28" font-weight="bold" fill="#000000">
                <tspan x="624" y="381">a</tspan>
            </text>
            <text id="_" font-family="Helvetica-Bold, Helvetica" font-size="28" font-weight="bold" fill="#000000">
                <tspan x="624" y="433">_</tspan>
            </text>
            <text id="a" font-family="Helvetica-Bold, Helvetica" font-size="28" font-weight="bold" fill="#000000">
                <tspan x="624" y="540">a</tspan>
            </text>
            <text id="n" font-family="Helvetica-Bold, Helvetica" font-size="28" font-weight="bold" fill="#000000">
                <tspan x="623" y="593">n</tspan>
            </text>
            <text id="m" font-family="Helvetica-Bold, Helvetica" font-size="28" font-weight="bold" fill="#000000">
                <tspan x="620" y="486">m</tspan>
            </text>
            <path d="M322.540525,691.852662 L322.540525,661.158" id="path744" stroke="#000000" stroke-width="1.49441257" transform="translate(323.165525, 676.505331) scale(-1, 1) rotate(-180.000000) translate(-323.165525, -676.505331) "></path>
            <path d="M321.046125,694.144088 C321.245387,692.948538 323.437175,691.155237 324.034925,690.956013 C323.437175,690.756787 321.245387,688.963488 321.046125,687.767938" id="path750" stroke="#000000" stroke-width="1.19549997" stroke-linecap="round" stroke-linejoin="round" transform="translate(322.540525, 690.956013) scale(-1, 1) rotate(-270.000000) translate(-322.540525, -690.956013) "></path>
            <path d="M428.841075,691.852662 L428.841075,661.158" id="path754" stroke="#000000" stroke-width="1.49441257" transform="translate(429.466075, 676.505331) scale(-1, 1) rotate(-180.000000) translate(-429.466075, -676.505331) "></path>
            <path d="M427.346675,694.144088 C427.545937,692.948538 429.737725,691.155237 430.335475,690.956013 C429.737725,690.756787 427.545937,688.963488 427.346675,687.767938" id="path760" stroke="#000000" stroke-width="1.19549997" stroke-linecap="round" stroke-linejoin="round" transform="translate(428.841075, 690.956013) scale(-1, 1) rotate(-270.000000) translate(-428.841075, -690.956013) "></path>
            <path d="M535.1416,691.852662 L535.1416,661.158" id="path764" stroke="#000000" stroke-width="1.49441257" transform="translate(535.766600, 676.505331) scale(-1, 1) rotate(-180.000000) translate(-535.766600, -676.505331) "></path>
            <path d="M533.6472,694.144088 C533.846463,692.948538 536.03825,691.155237 536.636,690.956013 C536.03825,690.756787 533.846463,688.963488 533.6472,687.767938" id="path770" stroke="#000000" stroke-width="1.19549997" stroke-linecap="round" stroke-linejoin="round" transform="translate(535.141600, 690.956013) scale(-1, 1) rotate(-270.000000) translate(-535.141600, -690.956013) "></path>
            <path d="M179.031913,694.262375 C179.268513,692.842675 181.871263,690.713137 182.581088,690.47655 C181.871263,690.239962 179.268513,688.110425 179.031913,686.690725" id="path780" stroke="#000000" stroke-width="1.59402505" stroke-linecap="round" stroke-linejoin="round" transform="translate(180.806500, 690.476550) scale(-1, 1) rotate(-270.000000) translate(-180.806500, -690.476550) "></path>
            <text id="..." font-family="Helvetica-Bold, Helvetica" font-size="28" font-weight="bold" fill="#000000">
                <tspan x="619" y="642">...</tspan>
            </text>
            <path d="M196.5,533 L138.49138,533" id="Line" stroke="#000000" stroke-width="4" stroke-linecap="square"></path>
            <path d="M196.5,640 L138.49138,640" id="Line" stroke="#000000" stroke-width="4" stroke-linecap="square"></path>
            <path d="M138.5,533.5 L138,640" id="Line-2" stroke="#000000" stroke-width="4" stroke-linecap="square"></path>
            <path d="M196.5,53 L138.49138,53" id="Line" stroke="#000000" stroke-width="4" stroke-linecap="square"></path>
            <path d="M196.5,160 L138.49138,160" id="Line" stroke="#000000" stroke-width="4" stroke-linecap="square"></path>
            <path d="M138.5,53.5 L138,160" id="Line-2" stroke="#000000" stroke-width="4" stroke-linecap="square"></path>
            <path d="M137,104 L0,358.5" id="Line-3" stroke="#000000" stroke-width="4.5" stroke-linecap="square"></path>
            <path d="M0,360 L137,590" id="Line-4" stroke="#000000" stroke-width="4.5" stroke-linecap="square"></path>
        </g>
    </g>
</svg>